M48
; DRILL file {KiCad 9.0.6-9.0.6~ubuntu24.04.1} date 2026-01-11T21:02:38+0100
; FORMAT={-:-/ absolute / metric / decimal}
; #@! TF.CreationDate,2026-01-11T21:02:38+01:00
; #@! TF.GenerationSoftware,Kicad,Pcbnew,9.0.6-9.0.6~ubuntu24.04.1
; #@! TF.FileFunction,Plated,1,2,PTH
FMAT,2
METRIC
; #@! TA.AperFunction,Plated,PTH,ViaDrill
T1C0.250
; #@! TA.AperFunction,Plated,PTH,ViaDrill
T2C0.300
%
G90
G05
T1
X6.625Y-23.2
X6.625Y-54.0
X6.625Y-84.8
X6.67Y-10.3
X6.67Y-41.1
X6.67Y-71.9
X6.9Y-7.3
X6.9Y-38.1
X6.9Y-68.9
X7.179Y-11.961
X7.179Y-42.761
X7.179Y-73.561
X7.57Y-31.68
X7.57Y-31.68
X7.57Y-62.48
X7.57Y-62.48
X7.57Y-93.28
X7.57Y-93.28
X7.725Y-28.89
X7.725Y-59.69
X7.725Y-90.49
X7.726Y-25.162
X7.726Y-55.962
X7.726Y-86.762
X7.9Y-15.0
X7.9Y-45.8
X7.9Y-76.6
X8.101Y-23.818
X8.101Y-54.618
X8.101Y-85.418
X8.2Y-7.32
X8.2Y-10.401
X8.2Y-38.12
X8.2Y-41.201
X8.2Y-68.92
X8.2Y-72.001
X8.322Y-28.954
X8.322Y-59.754
X8.322Y-90.554
X8.4Y-9.1
X8.4Y-39.9
X8.4Y-70.7
X8.525Y-24.4
X8.525Y-55.2
X8.525Y-86.0
X8.655Y-27.918
X8.655Y-58.718
X8.655Y-89.518
X8.8Y-28.5
X8.8Y-59.3
X8.8Y-90.1
X9.3Y-24.144
X9.3Y-54.944
X9.3Y-85.744
X9.5Y-7.3
X9.5Y-38.1
X9.5Y-68.9
X10.1Y-28.4
X10.1Y-59.2
X10.1Y-90.0
X10.2Y-9.15
X10.2Y-10.401
X10.2Y-39.95
X10.2Y-41.201
X10.2Y-70.75
X10.2Y-72.001
X10.7Y-28.599
X10.7Y-29.85
X10.7Y-59.399
X10.7Y-60.65
X10.7Y-90.199
X10.7Y-91.45
X10.8Y-10.6
X10.8Y-41.4
X10.8Y-72.2
X11.4Y-31.7
X11.4Y-62.5
X11.4Y-93.3
X11.6Y-14.856
X11.6Y-45.656
X11.6Y-76.456
X12.1Y-10.5
X12.1Y-41.3
X12.1Y-72.1
X12.245Y-11.082
X12.245Y-41.882
X12.245Y-72.682
X12.375Y-14.6
X12.375Y-45.4
X12.375Y-76.2
X12.5Y-29.9
X12.5Y-60.7
X12.5Y-91.5
X12.578Y-10.046
X12.578Y-40.846
X12.578Y-71.646
X12.7Y-28.599
X12.7Y-31.68
X12.7Y-59.399
X12.7Y-62.48
X12.7Y-90.199
X12.7Y-93.28
X12.799Y-15.182
X12.799Y-45.982
X12.799Y-76.782
X13.0Y-24.0
X13.0Y-54.8
X13.0Y-85.6
X13.174Y-13.838
X13.174Y-44.638
X13.174Y-75.438
X13.175Y-10.11
X13.175Y-40.91
X13.175Y-71.71
X13.33Y-7.32
X13.33Y-7.32
X13.33Y-38.12
X13.33Y-38.12
X13.33Y-68.92
X13.33Y-68.92
X13.721Y-27.039
X13.721Y-57.839
X13.721Y-88.639
X14.0Y-31.7
X14.0Y-62.5
X14.0Y-93.3
X14.23Y-28.7
X14.23Y-59.5
X14.23Y-90.3
X14.275Y-15.8
X14.275Y-46.6
X14.275Y-77.4
X20.525Y-23.2
X20.525Y-54.0
X20.525Y-84.8
X20.57Y-10.3
X20.57Y-41.1
X20.57Y-71.9
X20.8Y-7.3
X20.8Y-38.1
X20.8Y-68.9
X21.079Y-11.961
X21.079Y-42.761
X21.079Y-73.561
X21.47Y-31.68
X21.47Y-31.68
X21.47Y-62.48
X21.47Y-62.48
X21.47Y-93.28
X21.47Y-93.28
X21.625Y-28.89
X21.625Y-59.69
X21.625Y-90.49
X21.626Y-25.162
X21.626Y-55.962
X21.626Y-86.762
X21.8Y-15.0
X21.8Y-45.8
X21.8Y-76.6
X22.001Y-23.818
X22.001Y-54.618
X22.001Y-85.418
X22.1Y-7.32
X22.1Y-10.401
X22.1Y-38.12
X22.1Y-41.201
X22.1Y-68.92
X22.1Y-72.001
X22.222Y-28.954
X22.222Y-59.754
X22.222Y-90.554
X22.3Y-9.1
X22.3Y-39.9
X22.3Y-70.7
X22.425Y-24.4
X22.425Y-55.2
X22.425Y-86.0
X22.555Y-27.918
X22.555Y-58.718
X22.555Y-89.518
X22.7Y-28.5
X22.7Y-59.3
X22.7Y-90.1
X23.2Y-24.144
X23.2Y-54.944
X23.2Y-85.744
X23.4Y-7.3
X23.4Y-38.1
X23.4Y-68.9
X24.0Y-28.4
X24.0Y-59.2
X24.0Y-90.0
X24.1Y-9.15
X24.1Y-10.401
X24.1Y-39.95
X24.1Y-41.201
X24.1Y-70.75
X24.1Y-72.001
X24.6Y-28.599
X24.6Y-29.85
X24.6Y-59.399
X24.6Y-60.65
X24.6Y-90.199
X24.6Y-91.45
X24.7Y-10.6
X24.7Y-41.4
X24.7Y-72.2
X25.3Y-31.7
X25.3Y-62.5
X25.3Y-93.3
X25.5Y-14.856
X25.5Y-45.656
X25.5Y-76.456
X26.0Y-10.5
X26.0Y-41.3
X26.0Y-72.1
X26.145Y-11.082
X26.145Y-41.882
X26.145Y-72.682
X26.275Y-14.6
X26.275Y-45.4
X26.275Y-76.2
X26.4Y-29.9
X26.4Y-60.7
X26.4Y-91.5
X26.478Y-10.046
X26.478Y-40.846
X26.478Y-71.646
X26.6Y-28.599
X26.6Y-31.68
X26.6Y-59.399
X26.6Y-62.48
X26.6Y-90.199
X26.6Y-93.28
X26.699Y-15.182
X26.699Y-45.982
X26.699Y-76.782
X26.9Y-24.0
X26.9Y-54.8
X26.9Y-85.6
X27.074Y-13.838
X27.074Y-44.638
X27.074Y-75.438
X27.075Y-10.11
X27.075Y-40.91
X27.075Y-71.71
X27.23Y-7.32
X27.23Y-7.32
X27.23Y-38.12
X27.23Y-38.12
X27.23Y-68.92
X27.23Y-68.92
X27.621Y-27.039
X27.621Y-57.839
X27.621Y-88.639
X27.9Y-31.7
X27.9Y-62.5
X27.9Y-93.3
X28.13Y-28.7
X28.13Y-59.5
X28.13Y-90.3
X28.175Y-15.8
X28.175Y-46.6
X28.175Y-77.4
X34.425Y-23.2
X34.425Y-54.0
X34.425Y-84.8
X34.47Y-10.3
X34.47Y-41.1
X34.47Y-71.9
X34.7Y-7.3
X34.7Y-38.1
X34.7Y-68.9
X34.979Y-11.961
X34.979Y-42.761
X34.979Y-73.561
X35.37Y-31.68
X35.37Y-31.68
X35.37Y-62.48
X35.37Y-62.48
X35.37Y-93.28
X35.37Y-93.28
X35.525Y-28.89
X35.525Y-59.69
X35.525Y-90.49
X35.526Y-25.162
X35.526Y-55.962
X35.526Y-86.762
X35.7Y-15.0
X35.7Y-45.8
X35.7Y-76.6
X35.901Y-23.818
X35.901Y-54.618
X35.901Y-85.418
X36.0Y-7.32
X36.0Y-10.401
X36.0Y-38.12
X36.0Y-41.201
X36.0Y-68.92
X36.0Y-72.001
X36.122Y-28.954
X36.122Y-59.754
X36.122Y-90.554
X36.2Y-9.1
X36.2Y-39.9
X36.2Y-70.7
X36.325Y-24.4
X36.325Y-55.2
X36.325Y-86.0
X36.455Y-27.918
X36.455Y-58.718
X36.455Y-89.518
X36.6Y-28.5
X36.6Y-59.3
X36.6Y-90.1
X37.1Y-24.144
X37.1Y-54.944
X37.1Y-85.744
X37.3Y-7.3
X37.3Y-38.1
X37.3Y-68.9
X37.9Y-28.4
X37.9Y-59.2
X37.9Y-90.0
X38.0Y-9.15
X38.0Y-10.401
X38.0Y-39.95
X38.0Y-41.201
X38.0Y-70.75
X38.0Y-72.001
X38.5Y-28.599
X38.5Y-29.85
X38.5Y-59.399
X38.5Y-60.65
X38.5Y-90.199
X38.5Y-91.45
X38.6Y-10.6
X38.6Y-41.4
X38.6Y-72.2
X39.2Y-31.7
X39.2Y-62.5
X39.2Y-93.3
X39.4Y-14.856
X39.4Y-45.656
X39.4Y-76.456
X39.9Y-10.5
X39.9Y-41.3
X39.9Y-72.1
X40.045Y-11.082
X40.045Y-41.882
X40.045Y-72.682
X40.175Y-14.6
X40.175Y-45.4
X40.175Y-76.2
X40.3Y-29.9
X40.3Y-60.7
X40.3Y-91.5
X40.378Y-10.046
X40.378Y-40.846
X40.378Y-71.646
X40.5Y-28.599
X40.5Y-31.68
X40.5Y-59.399
X40.5Y-62.48
X40.5Y-90.199
X40.5Y-93.28
X40.599Y-15.182
X40.599Y-45.982
X40.599Y-76.782
X40.8Y-24.0
X40.8Y-54.8
X40.8Y-85.6
X40.974Y-13.838
X40.974Y-44.638
X40.974Y-75.438
X40.975Y-10.11
X40.975Y-40.91
X40.975Y-71.71
X41.13Y-7.32
X41.13Y-7.32
X41.13Y-38.12
X41.13Y-38.12
X41.13Y-68.92
X41.13Y-68.92
X41.521Y-27.039
X41.521Y-57.839
X41.521Y-88.639
X41.8Y-31.7
X41.8Y-62.5
X41.8Y-93.3
X42.03Y-28.7
X42.03Y-59.5
X42.03Y-90.3
X42.075Y-15.8
X42.075Y-46.6
X42.075Y-77.4
X48.325Y-23.2
X48.325Y-54.0
X48.325Y-84.8
X48.37Y-10.3
X48.37Y-41.1
X48.37Y-71.9
X48.6Y-7.3
X48.6Y-38.1
X48.6Y-68.9
X48.879Y-11.961
X48.879Y-42.761
X48.879Y-73.561
X49.27Y-31.68
X49.27Y-31.68
X49.27Y-62.48
X49.27Y-62.48
X49.27Y-93.28
X49.27Y-93.28
X49.425Y-28.89
X49.425Y-59.69
X49.425Y-90.49
X49.426Y-25.162
X49.426Y-55.962
X49.426Y-86.762
X49.6Y-15.0
X49.6Y-45.8
X49.6Y-76.6
X49.801Y-23.818
X49.801Y-54.618
X49.801Y-85.418
X49.9Y-7.32
X49.9Y-10.401
X49.9Y-38.12
X49.9Y-41.201
X49.9Y-68.92
X49.9Y-72.001
X50.022Y-28.954
X50.022Y-59.754
X50.022Y-90.554
X50.1Y-9.1
X50.1Y-39.9
X50.1Y-70.7
X50.225Y-24.4
X50.225Y-55.2
X50.225Y-86.0
X50.355Y-27.918
X50.355Y-58.718
X50.355Y-89.518
X50.5Y-28.5
X50.5Y-59.3
X50.5Y-90.1
X51.0Y-24.144
X51.0Y-54.944
X51.0Y-85.744
X51.2Y-7.3
X51.2Y-38.1
X51.2Y-68.9
X51.8Y-28.4
X51.8Y-59.2
X51.8Y-90.0
X51.9Y-9.15
X51.9Y-10.401
X51.9Y-39.95
X51.9Y-41.201
X51.9Y-70.75
X51.9Y-72.001
X52.4Y-28.599
X52.4Y-29.85
X52.4Y-59.399
X52.4Y-60.65
X52.4Y-90.199
X52.4Y-91.45
X52.5Y-10.6
X52.5Y-41.4
X52.5Y-72.2
X53.1Y-31.7
X53.1Y-62.5
X53.1Y-93.3
X53.3Y-14.856
X53.3Y-45.656
X53.3Y-76.456
X53.8Y-10.5
X53.8Y-41.3
X53.8Y-72.1
X53.945Y-11.082
X53.945Y-41.882
X53.945Y-72.682
X54.075Y-14.6
X54.075Y-45.4
X54.075Y-76.2
X54.2Y-29.9
X54.2Y-60.7
X54.2Y-91.5
X54.278Y-10.046
X54.278Y-40.846
X54.278Y-71.646
X54.4Y-28.599
X54.4Y-31.68
X54.4Y-59.399
X54.4Y-62.48
X54.4Y-90.199
X54.4Y-93.28
X54.499Y-15.182
X54.499Y-45.982
X54.499Y-76.782
X54.7Y-24.0
X54.7Y-54.8
X54.7Y-85.6
X54.874Y-13.838
X54.874Y-44.638
X54.874Y-75.438
X54.875Y-10.11
X54.875Y-40.91
X54.875Y-71.71
X55.03Y-7.32
X55.03Y-7.32
X55.03Y-38.12
X55.03Y-38.12
X55.03Y-68.92
X55.03Y-68.92
X55.421Y-27.039
X55.421Y-57.839
X55.421Y-88.639
X55.7Y-31.7
X55.7Y-62.5
X55.7Y-93.3
X55.93Y-28.7
X55.93Y-59.5
X55.93Y-90.3
X55.975Y-15.8
X55.975Y-46.6
X55.975Y-77.4
T2
X64.1Y-13.35
X64.1Y-20.55
X64.1Y-27.75
X64.1Y-34.95
X64.1Y-42.15
X64.1Y-49.35
X64.1Y-56.55
X64.1Y-63.75
X64.1Y-70.95
X64.1Y-78.15
X64.1Y-85.35
X64.1Y-92.55
X64.225Y-8.325
X64.225Y-15.525
X64.225Y-22.725
X64.225Y-29.925
X64.225Y-37.125
X64.225Y-44.325
X64.225Y-51.525
X64.225Y-58.725
X64.225Y-65.925
X64.225Y-73.125
X64.225Y-80.325
X64.225Y-87.525
X66.75Y-12.0
X66.75Y-19.2
X66.75Y-26.4
X66.75Y-33.6
X66.75Y-40.8
X66.75Y-48.0
X66.75Y-55.2
X66.75Y-62.4
X66.75Y-69.6
X66.75Y-76.8
X66.75Y-84.0
X66.75Y-91.2
X67.75Y-9.25
X67.75Y-16.45
X67.75Y-23.65
X67.75Y-30.85
X67.75Y-38.05
X67.75Y-45.25
X67.75Y-52.45
X67.75Y-59.65
X67.75Y-66.85
X67.75Y-74.05
X67.75Y-81.25
X67.75Y-88.45
X79.5Y-13.35
X79.5Y-20.55
X79.5Y-27.75
X79.5Y-34.95
X79.5Y-42.15
X79.5Y-49.35
X79.5Y-56.55
X79.5Y-63.75
X79.5Y-70.95
X79.5Y-78.15
X79.5Y-85.35
X79.5Y-92.55
X79.625Y-8.325
X79.625Y-15.525
X79.625Y-22.725
X79.625Y-29.925
X79.625Y-37.125
X79.625Y-44.325
X79.625Y-51.525
X79.625Y-58.725
X79.625Y-65.925
X79.625Y-73.125
X79.625Y-80.325
X79.625Y-87.525
X82.15Y-12.0
X82.15Y-19.2
X82.15Y-26.4
X82.15Y-33.6
X82.15Y-40.8
X82.15Y-48.0
X82.15Y-55.2
X82.15Y-62.4
X82.15Y-69.6
X82.15Y-76.8
X82.15Y-84.0
X82.15Y-91.2
X83.15Y-9.25
X83.15Y-16.45
X83.15Y-23.65
X83.15Y-30.85
X83.15Y-38.05
X83.15Y-45.25
X83.15Y-52.45
X83.15Y-59.65
X83.15Y-66.85
X83.15Y-74.05
X83.15Y-81.25
X83.15Y-88.45
M30
