M48
; DRILL file {KiCad 9.0.6-9.0.6~ubuntu24.04.1} date 2026-01-17T19:17:03+0100
; FORMAT={-:-/ absolute / metric / decimal}
; #@! TF.CreationDate,2026-01-17T19:17:03+01:00
; #@! TF.GenerationSoftware,Kicad,Pcbnew,9.0.6-9.0.6~ubuntu24.04.1
; #@! TF.FileFunction,NonPlated,1,2,NPTH
FMAT,2
METRIC
; #@! TA.AperFunction,NonPlated,NPTH,ComponentDrill
T1C0.300
%
G90
G05
T1
X6.2Y0.0
X6.2Y-0.5
X6.2Y-1.0
X6.2Y-1.5
X6.2Y-2.0
X6.2Y-2.5
X6.2Y-3.0
X6.2Y-3.5
X6.2Y-4.0
X6.2Y-4.5
X6.2Y-5.0
X6.2Y-6.8
X6.2Y-7.3
X6.2Y-7.8
X6.2Y-8.3
X6.2Y-8.8
X6.2Y-20.7
X6.2Y-21.2
X6.2Y-21.7
X6.2Y-22.2
X6.2Y-22.7
X6.2Y-34.0
X6.2Y-34.6
X6.2Y-35.2
X6.2Y-35.8
X6.2Y-37.6
X6.2Y-38.1
X6.2Y-38.6
X6.2Y-39.1
X6.2Y-39.6
X6.2Y-51.5
X6.2Y-52.0
X6.2Y-52.5
X6.2Y-53.0
X6.2Y-53.5
X6.2Y-64.8
X6.2Y-65.4
X6.2Y-66.0
X6.2Y-66.6
X6.2Y-68.4
X6.2Y-68.9
X6.2Y-69.4
X6.2Y-69.9
X6.2Y-70.4
X6.2Y-82.3
X6.2Y-82.8
X6.2Y-83.3
X6.2Y-83.8
X6.2Y-84.3
X6.2Y-95.6
X6.2Y-96.1
X6.2Y-96.6
X6.2Y-97.1
X6.2Y-97.6
X6.2Y-98.1
X6.2Y-98.6
X6.2Y-99.1
X6.2Y-99.6
X6.2Y-100.1
X6.2Y-100.6
X9.45Y-18.9
X9.45Y-20.1
X9.45Y-49.7
X9.45Y-50.9
X9.45Y-80.5
X9.45Y-81.7
X9.95Y-18.9
X9.95Y-20.1
X9.95Y-49.7
X9.95Y-50.9
X9.95Y-80.5
X9.95Y-81.7
X10.45Y-18.9
X10.45Y-20.1
X10.45Y-49.7
X10.45Y-50.9
X10.45Y-80.5
X10.45Y-81.7
X10.95Y-18.9
X10.95Y-20.1
X10.95Y-49.7
X10.95Y-50.9
X10.95Y-80.5
X10.95Y-81.7
X11.45Y-18.9
X11.45Y-20.1
X11.45Y-49.7
X11.45Y-50.9
X11.45Y-80.5
X11.45Y-81.7
X14.7Y-16.3
X14.7Y-16.8
X14.7Y-17.3
X14.7Y-17.8
X14.7Y-18.3
X14.7Y-30.2
X14.7Y-30.7
X14.7Y-31.2
X14.7Y-31.7
X14.7Y-32.2
X14.7Y-47.1
X14.7Y-47.6
X14.7Y-48.1
X14.7Y-48.6
X14.7Y-49.1
X14.7Y-61.0
X14.7Y-61.5
X14.7Y-62.0
X14.7Y-62.5
X14.7Y-63.0
X14.7Y-77.9
X14.7Y-78.4
X14.7Y-78.9
X14.7Y-79.4
X14.7Y-79.9
X14.7Y-91.8
X14.7Y-92.3
X14.7Y-92.8
X14.7Y-93.3
X14.7Y-93.8
X15.9Y-34.0
X15.9Y-34.6
X15.9Y-35.2
X15.9Y-35.8
X15.9Y-64.8
X15.9Y-65.4
X15.9Y-66.0
X15.9Y-66.6
X18.9Y-34.0
X18.9Y-34.6
X18.9Y-35.2
X18.9Y-35.8
X18.9Y-64.8
X18.9Y-65.4
X18.9Y-66.0
X18.9Y-66.6
X20.1Y-6.8
X20.1Y-7.3
X20.1Y-7.8
X20.1Y-8.3
X20.1Y-8.8
X20.1Y-20.7
X20.1Y-21.2
X20.1Y-21.7
X20.1Y-22.2
X20.1Y-22.7
X20.1Y-37.6
X20.1Y-38.1
X20.1Y-38.6
X20.1Y-39.1
X20.1Y-39.6
X20.1Y-51.5
X20.1Y-52.0
X20.1Y-52.5
X20.1Y-53.0
X20.1Y-53.5
X20.1Y-68.4
X20.1Y-68.9
X20.1Y-69.4
X20.1Y-69.9
X20.1Y-70.4
X20.1Y-82.3
X20.1Y-82.8
X20.1Y-83.3
X20.1Y-83.8
X20.1Y-84.3
X23.35Y-18.9
X23.35Y-20.1
X23.35Y-49.7
X23.35Y-50.9
X23.35Y-80.5
X23.35Y-81.7
X23.85Y-18.9
X23.85Y-20.1
X23.85Y-49.7
X23.85Y-50.9
X23.85Y-80.5
X23.85Y-81.7
X24.35Y-18.9
X24.35Y-20.1
X24.35Y-49.7
X24.35Y-50.9
X24.35Y-80.5
X24.35Y-81.7
X24.85Y-18.9
X24.85Y-20.1
X24.85Y-49.7
X24.85Y-50.9
X24.85Y-80.5
X24.85Y-81.7
X25.35Y-18.9
X25.35Y-20.1
X25.35Y-49.7
X25.35Y-50.9
X25.35Y-80.5
X25.35Y-81.7
X28.6Y-16.3
X28.6Y-16.8
X28.6Y-17.3
X28.6Y-17.8
X28.6Y-18.3
X28.6Y-30.2
X28.6Y-30.7
X28.6Y-31.2
X28.6Y-31.7
X28.6Y-32.2
X28.6Y-47.1
X28.6Y-47.6
X28.6Y-48.1
X28.6Y-48.6
X28.6Y-49.1
X28.6Y-61.0
X28.6Y-61.5
X28.6Y-62.0
X28.6Y-62.5
X28.6Y-63.0
X28.6Y-77.9
X28.6Y-78.4
X28.6Y-78.9
X28.6Y-79.4
X28.6Y-79.9
X28.6Y-91.8
X28.6Y-92.3
X28.6Y-92.8
X28.6Y-93.3
X28.6Y-93.8
X29.8Y-34.0
X29.8Y-34.6
X29.8Y-35.2
X29.8Y-35.8
X29.8Y-64.8
X29.8Y-65.4
X29.8Y-66.0
X29.8Y-66.6
X32.8Y-34.0
X32.8Y-34.6
X32.8Y-35.2
X32.8Y-35.8
X32.8Y-64.8
X32.8Y-65.4
X32.8Y-66.0
X32.8Y-66.6
X34.0Y-6.8
X34.0Y-7.3
X34.0Y-7.8
X34.0Y-8.3
X34.0Y-8.8
X34.0Y-20.7
X34.0Y-21.2
X34.0Y-21.7
X34.0Y-22.2
X34.0Y-22.7
X34.0Y-37.6
X34.0Y-38.1
X34.0Y-38.6
X34.0Y-39.1
X34.0Y-39.6
X34.0Y-51.5
X34.0Y-52.0
X34.0Y-52.5
X34.0Y-53.0
X34.0Y-53.5
X34.0Y-68.4
X34.0Y-68.9
X34.0Y-69.4
X34.0Y-69.9
X34.0Y-70.4
X34.0Y-82.3
X34.0Y-82.8
X34.0Y-83.3
X34.0Y-83.8
X34.0Y-84.3
X37.25Y-18.9
X37.25Y-20.1
X37.25Y-49.7
X37.25Y-50.9
X37.25Y-80.5
X37.25Y-81.7
X37.75Y-18.9
X37.75Y-20.1
X37.75Y-49.7
X37.75Y-50.9
X37.75Y-80.5
X37.75Y-81.7
X38.25Y-18.9
X38.25Y-20.1
X38.25Y-49.7
X38.25Y-50.9
X38.25Y-80.5
X38.25Y-81.7
X38.75Y-18.9
X38.75Y-20.1
X38.75Y-49.7
X38.75Y-50.9
X38.75Y-80.5
X38.75Y-81.7
X39.25Y-18.9
X39.25Y-20.1
X39.25Y-49.7
X39.25Y-50.9
X39.25Y-80.5
X39.25Y-81.7
X42.5Y-16.3
X42.5Y-16.8
X42.5Y-17.3
X42.5Y-17.8
X42.5Y-18.3
X42.5Y-30.2
X42.5Y-30.7
X42.5Y-31.2
X42.5Y-31.7
X42.5Y-32.2
X42.5Y-47.1
X42.5Y-47.6
X42.5Y-48.1
X42.5Y-48.6
X42.5Y-49.1
X42.5Y-61.0
X42.5Y-61.5
X42.5Y-62.0
X42.5Y-62.5
X42.5Y-63.0
X42.5Y-77.9
X42.5Y-78.4
X42.5Y-78.9
X42.5Y-79.4
X42.5Y-79.9
X42.5Y-91.8
X42.5Y-92.3
X42.5Y-92.8
X42.5Y-93.3
X42.5Y-93.8
X43.7Y-34.0
X43.7Y-34.6
X43.7Y-35.2
X43.7Y-35.8
X43.7Y-64.8
X43.7Y-65.4
X43.7Y-66.0
X43.7Y-66.6
X46.7Y-34.0
X46.7Y-34.6
X46.7Y-35.2
X46.7Y-35.8
X46.7Y-64.8
X46.7Y-65.4
X46.7Y-66.0
X46.7Y-66.6
X47.9Y-6.8
X47.9Y-7.3
X47.9Y-7.8
X47.9Y-8.3
X47.9Y-8.8
X47.9Y-20.7
X47.9Y-21.2
X47.9Y-21.7
X47.9Y-22.2
X47.9Y-22.7
X47.9Y-37.6
X47.9Y-38.1
X47.9Y-38.6
X47.9Y-39.1
X47.9Y-39.6
X47.9Y-51.5
X47.9Y-52.0
X47.9Y-52.5
X47.9Y-53.0
X47.9Y-53.5
X47.9Y-68.4
X47.9Y-68.9
X47.9Y-69.4
X47.9Y-69.9
X47.9Y-70.4
X47.9Y-82.3
X47.9Y-82.8
X47.9Y-83.3
X47.9Y-83.8
X47.9Y-84.3
X51.15Y-18.9
X51.15Y-20.1
X51.15Y-49.7
X51.15Y-50.9
X51.15Y-80.5
X51.15Y-81.7
X51.65Y-18.9
X51.65Y-20.1
X51.65Y-49.7
X51.65Y-50.9
X51.65Y-80.5
X51.65Y-81.7
X52.15Y-18.9
X52.15Y-20.1
X52.15Y-49.7
X52.15Y-50.9
X52.15Y-80.5
X52.15Y-81.7
X52.65Y-18.9
X52.65Y-20.1
X52.65Y-49.7
X52.65Y-50.9
X52.65Y-80.5
X52.65Y-81.7
X53.15Y-18.9
X53.15Y-20.1
X53.15Y-49.7
X53.15Y-50.9
X53.15Y-80.5
X53.15Y-81.7
X56.4Y0.0
X56.4Y-0.5
X56.4Y-1.0
X56.4Y-1.5
X56.4Y-2.0
X56.4Y-2.5
X56.4Y-3.0
X56.4Y-3.5
X56.4Y-4.0
X56.4Y-4.5
X56.4Y-5.0
X56.4Y-16.3
X56.4Y-16.8
X56.4Y-17.3
X56.4Y-17.8
X56.4Y-18.3
X56.4Y-30.2
X56.4Y-30.7
X56.4Y-31.2
X56.4Y-31.7
X56.4Y-32.2
X56.4Y-34.0
X56.4Y-34.6
X56.4Y-35.2
X56.4Y-35.8
X56.4Y-47.1
X56.4Y-47.6
X56.4Y-48.1
X56.4Y-48.6
X56.4Y-49.1
X56.4Y-61.0
X56.4Y-61.5
X56.4Y-62.0
X56.4Y-62.5
X56.4Y-63.0
X56.4Y-64.8
X56.4Y-65.4
X56.4Y-66.0
X56.4Y-66.6
X56.4Y-77.9
X56.4Y-78.4
X56.4Y-78.9
X56.4Y-79.4
X56.4Y-79.9
X56.4Y-91.8
X56.4Y-92.3
X56.4Y-92.8
X56.4Y-93.3
X56.4Y-93.8
X56.4Y-95.6
X56.4Y-96.1
X56.4Y-96.6
X56.4Y-97.1
X56.4Y-97.6
X56.4Y-98.1
X56.4Y-98.6
X56.4Y-99.1
X56.4Y-99.6
X56.4Y-100.1
X56.4Y-100.6
X63.8Y0.0
X63.8Y-0.5
X63.8Y-1.0
X63.8Y-1.5
X63.8Y-2.0
X63.8Y-2.5
X63.8Y-3.0
X63.8Y-3.5
X63.8Y-4.0
X63.8Y-4.5
X63.8Y-5.0
X63.8Y-8.8
X63.8Y-9.3
X63.8Y-9.8
X63.8Y-10.3
X63.8Y-10.8
X63.8Y-16.0
X63.8Y-16.5
X63.8Y-17.0
X63.8Y-17.5
X63.8Y-18.0
X63.8Y-23.2
X63.8Y-23.7
X63.8Y-24.2
X63.8Y-24.7
X63.8Y-25.2
X63.8Y-30.4
X63.8Y-30.9
X63.8Y-31.4
X63.8Y-31.9
X63.8Y-32.4
X63.8Y-37.6
X63.8Y-38.1
X63.8Y-38.6
X63.8Y-39.1
X63.8Y-39.6
X63.8Y-44.8
X63.8Y-45.3
X63.8Y-45.8
X63.8Y-46.3
X63.8Y-46.8
X63.8Y-52.0
X63.8Y-52.5
X63.8Y-53.0
X63.8Y-53.5
X63.8Y-54.0
X63.8Y-59.2
X63.8Y-59.7
X63.8Y-60.2
X63.8Y-60.7
X63.8Y-61.2
X63.8Y-66.4
X63.8Y-66.9
X63.8Y-67.4
X63.8Y-67.9
X63.8Y-68.4
X63.8Y-73.6
X63.8Y-74.1
X63.8Y-74.6
X63.8Y-75.1
X63.8Y-75.6
X63.8Y-80.8
X63.8Y-81.3
X63.8Y-81.8
X63.8Y-82.3
X63.8Y-82.8
X63.8Y-88.0
X63.8Y-88.5
X63.8Y-89.0
X63.8Y-89.5
X63.8Y-90.0
X63.8Y-95.6
X63.8Y-96.1
X63.8Y-96.6
X63.8Y-97.1
X63.8Y-97.6
X63.8Y-98.1
X63.8Y-98.6
X63.8Y-99.1
X63.8Y-99.6
X63.8Y-100.1
X63.8Y-100.6
X68.95Y-7.7
X68.95Y-13.7
X68.95Y-14.9
X68.95Y-20.9
X68.95Y-22.1
X68.95Y-28.1
X68.95Y-29.3
X68.95Y-35.3
X68.95Y-36.5
X68.95Y-42.5
X68.95Y-43.7
X68.95Y-49.7
X68.95Y-50.9
X68.95Y-56.9
X68.95Y-58.1
X68.95Y-64.1
X68.95Y-65.3
X68.95Y-71.3
X68.95Y-72.5
X68.95Y-78.5
X68.95Y-79.7
X68.95Y-85.7
X68.95Y-86.9
X68.95Y-92.9
X69.45Y-7.7
X69.45Y-13.7
X69.45Y-14.9
X69.45Y-20.9
X69.45Y-22.1
X69.45Y-28.1
X69.45Y-29.3
X69.45Y-35.3
X69.45Y-36.5
X69.45Y-42.5
X69.45Y-43.7
X69.45Y-49.7
X69.45Y-50.9
X69.45Y-56.9
X69.45Y-58.1
X69.45Y-64.1
X69.45Y-65.3
X69.45Y-71.3
X69.45Y-72.5
X69.45Y-78.5
X69.45Y-79.7
X69.45Y-85.7
X69.45Y-86.9
X69.45Y-92.9
X69.95Y-7.7
X69.95Y-13.7
X69.95Y-14.9
X69.95Y-20.9
X69.95Y-22.1
X69.95Y-28.1
X69.95Y-29.3
X69.95Y-35.3
X69.95Y-36.5
X69.95Y-42.5
X69.95Y-43.7
X69.95Y-49.7
X69.95Y-50.9
X69.95Y-56.9
X69.95Y-58.1
X69.95Y-64.1
X69.95Y-65.3
X69.95Y-71.3
X69.95Y-72.5
X69.95Y-78.5
X69.95Y-79.7
X69.95Y-85.7
X69.95Y-86.9
X69.95Y-92.9
X70.45Y-7.7
X70.45Y-13.7
X70.45Y-14.9
X70.45Y-20.9
X70.45Y-22.1
X70.45Y-28.1
X70.45Y-29.3
X70.45Y-35.3
X70.45Y-36.5
X70.45Y-42.5
X70.45Y-43.7
X70.45Y-49.7
X70.45Y-50.9
X70.45Y-56.9
X70.45Y-58.1
X70.45Y-64.1
X70.45Y-65.3
X70.45Y-71.3
X70.45Y-72.5
X70.45Y-78.5
X70.45Y-79.7
X70.45Y-85.7
X70.45Y-86.9
X70.45Y-92.9
X70.95Y-7.7
X70.95Y-13.7
X70.95Y-14.9
X70.95Y-20.9
X70.95Y-22.1
X70.95Y-28.1
X70.95Y-29.3
X70.95Y-35.3
X70.95Y-36.5
X70.95Y-42.5
X70.95Y-43.7
X70.95Y-49.7
X70.95Y-50.9
X70.95Y-56.9
X70.95Y-58.1
X70.95Y-64.1
X70.95Y-65.3
X70.95Y-71.3
X70.95Y-72.5
X70.95Y-78.5
X70.95Y-79.7
X70.95Y-85.7
X70.95Y-86.9
X70.95Y-92.9
X73.8Y-8.8
X73.8Y-9.3
X73.8Y-9.8
X73.8Y-10.3
X73.8Y-10.8
X73.8Y-16.0
X73.8Y-16.5
X73.8Y-17.0
X73.8Y-17.5
X73.8Y-18.0
X73.8Y-23.2
X73.8Y-23.7
X73.8Y-24.2
X73.8Y-24.7
X73.8Y-25.2
X73.8Y-30.4
X73.8Y-30.9
X73.8Y-31.4
X73.8Y-31.9
X73.8Y-32.4
X73.8Y-37.6
X73.8Y-38.1
X73.8Y-38.6
X73.8Y-39.1
X73.8Y-39.6
X73.8Y-44.8
X73.8Y-45.3
X73.8Y-45.8
X73.8Y-46.3
X73.8Y-46.8
X73.8Y-52.0
X73.8Y-52.5
X73.8Y-53.0
X73.8Y-53.5
X73.8Y-54.0
X73.8Y-59.2
X73.8Y-59.7
X73.8Y-60.2
X73.8Y-60.7
X73.8Y-61.2
X73.8Y-66.4
X73.8Y-66.9
X73.8Y-67.4
X73.8Y-67.9
X73.8Y-68.4
X73.8Y-73.6
X73.8Y-74.1
X73.8Y-74.6
X73.8Y-75.1
X73.8Y-75.6
X73.8Y-80.8
X73.8Y-81.3
X73.8Y-81.8
X73.8Y-82.3
X73.8Y-82.8
X73.8Y-88.0
X73.8Y-88.5
X73.8Y-89.0
X73.8Y-89.5
X73.8Y-90.0
X79.2Y-8.8
X79.2Y-9.3
X79.2Y-9.8
X79.2Y-10.3
X79.2Y-10.8
X79.2Y-16.0
X79.2Y-16.5
X79.2Y-17.0
X79.2Y-17.5
X79.2Y-18.0
X79.2Y-23.2
X79.2Y-23.7
X79.2Y-24.2
X79.2Y-24.7
X79.2Y-25.2
X79.2Y-30.4
X79.2Y-30.9
X79.2Y-31.4
X79.2Y-31.9
X79.2Y-32.4
X79.2Y-37.6
X79.2Y-38.1
X79.2Y-38.6
X79.2Y-39.1
X79.2Y-39.6
X79.2Y-44.8
X79.2Y-45.3
X79.2Y-45.8
X79.2Y-46.3
X79.2Y-46.8
X79.2Y-52.0
X79.2Y-52.5
X79.2Y-53.0
X79.2Y-53.5
X79.2Y-54.0
X79.2Y-59.2
X79.2Y-59.7
X79.2Y-60.2
X79.2Y-60.7
X79.2Y-61.2
X79.2Y-66.4
X79.2Y-66.9
X79.2Y-67.4
X79.2Y-67.9
X79.2Y-68.4
X79.2Y-73.6
X79.2Y-74.1
X79.2Y-74.6
X79.2Y-75.1
X79.2Y-75.6
X79.2Y-80.8
X79.2Y-81.3
X79.2Y-81.8
X79.2Y-82.3
X79.2Y-82.8
X79.2Y-88.0
X79.2Y-88.5
X79.2Y-89.0
X79.2Y-89.5
X79.2Y-90.0
X84.35Y-7.7
X84.35Y-13.7
X84.35Y-14.9
X84.35Y-20.9
X84.35Y-22.1
X84.35Y-28.1
X84.35Y-29.3
X84.35Y-35.3
X84.35Y-36.5
X84.35Y-42.5
X84.35Y-43.7
X84.35Y-49.7
X84.35Y-50.9
X84.35Y-56.9
X84.35Y-58.1
X84.35Y-64.1
X84.35Y-65.3
X84.35Y-71.3
X84.35Y-72.5
X84.35Y-78.5
X84.35Y-79.7
X84.35Y-85.7
X84.35Y-86.9
X84.35Y-92.9
X84.85Y-7.7
X84.85Y-13.7
X84.85Y-14.9
X84.85Y-20.9
X84.85Y-22.1
X84.85Y-28.1
X84.85Y-29.3
X84.85Y-35.3
X84.85Y-36.5
X84.85Y-42.5
X84.85Y-43.7
X84.85Y-49.7
X84.85Y-50.9
X84.85Y-56.9
X84.85Y-58.1
X84.85Y-64.1
X84.85Y-65.3
X84.85Y-71.3
X84.85Y-72.5
X84.85Y-78.5
X84.85Y-79.7
X84.85Y-85.7
X84.85Y-86.9
X84.85Y-92.9
X85.35Y-7.7
X85.35Y-13.7
X85.35Y-14.9
X85.35Y-20.9
X85.35Y-22.1
X85.35Y-28.1
X85.35Y-29.3
X85.35Y-35.3
X85.35Y-36.5
X85.35Y-42.5
X85.35Y-43.7
X85.35Y-49.7
X85.35Y-50.9
X85.35Y-56.9
X85.35Y-58.1
X85.35Y-64.1
X85.35Y-65.3
X85.35Y-71.3
X85.35Y-72.5
X85.35Y-78.5
X85.35Y-79.7
X85.35Y-85.7
X85.35Y-86.9
X85.35Y-92.9
X85.85Y-7.7
X85.85Y-13.7
X85.85Y-14.9
X85.85Y-20.9
X85.85Y-22.1
X85.85Y-28.1
X85.85Y-29.3
X85.85Y-35.3
X85.85Y-36.5
X85.85Y-42.5
X85.85Y-43.7
X85.85Y-49.7
X85.85Y-50.9
X85.85Y-56.9
X85.85Y-58.1
X85.85Y-64.1
X85.85Y-65.3
X85.85Y-71.3
X85.85Y-72.5
X85.85Y-78.5
X85.85Y-79.7
X85.85Y-85.7
X85.85Y-86.9
X85.85Y-92.9
X86.35Y-7.7
X86.35Y-13.7
X86.35Y-14.9
X86.35Y-20.9
X86.35Y-22.1
X86.35Y-28.1
X86.35Y-29.3
X86.35Y-35.3
X86.35Y-36.5
X86.35Y-42.5
X86.35Y-43.7
X86.35Y-49.7
X86.35Y-50.9
X86.35Y-56.9
X86.35Y-58.1
X86.35Y-64.1
X86.35Y-65.3
X86.35Y-71.3
X86.35Y-72.5
X86.35Y-78.5
X86.35Y-79.7
X86.35Y-85.7
X86.35Y-86.9
X86.35Y-92.9
X89.2Y0.0
X89.2Y-0.5
X89.2Y-1.0
X89.2Y-1.5
X89.2Y-2.0
X89.2Y-2.5
X89.2Y-3.0
X89.2Y-3.5
X89.2Y-4.0
X89.2Y-4.5
X89.2Y-5.0
X89.2Y-8.8
X89.2Y-9.3
X89.2Y-9.8
X89.2Y-10.3
X89.2Y-10.8
X89.2Y-16.0
X89.2Y-16.5
X89.2Y-17.0
X89.2Y-17.5
X89.2Y-18.0
X89.2Y-23.2
X89.2Y-23.7
X89.2Y-24.2
X89.2Y-24.7
X89.2Y-25.2
X89.2Y-30.4
X89.2Y-30.9
X89.2Y-31.4
X89.2Y-31.9
X89.2Y-32.4
X89.2Y-37.6
X89.2Y-38.1
X89.2Y-38.6
X89.2Y-39.1
X89.2Y-39.6
X89.2Y-44.8
X89.2Y-45.3
X89.2Y-45.8
X89.2Y-46.3
X89.2Y-46.8
X89.2Y-52.0
X89.2Y-52.5
X89.2Y-53.0
X89.2Y-53.5
X89.2Y-54.0
X89.2Y-59.2
X89.2Y-59.7
X89.2Y-60.2
X89.2Y-60.7
X89.2Y-61.2
X89.2Y-66.4
X89.2Y-66.9
X89.2Y-67.4
X89.2Y-67.9
X89.2Y-68.4
X89.2Y-73.6
X89.2Y-74.1
X89.2Y-74.6
X89.2Y-75.1
X89.2Y-75.6
X89.2Y-80.8
X89.2Y-81.3
X89.2Y-81.8
X89.2Y-82.3
X89.2Y-82.8
X89.2Y-88.0
X89.2Y-88.5
X89.2Y-89.0
X89.2Y-89.5
X89.2Y-90.0
X89.2Y-95.6
X89.2Y-96.1
X89.2Y-96.6
X89.2Y-97.1
X89.2Y-97.6
X89.2Y-98.1
X89.2Y-98.6
X89.2Y-99.1
X89.2Y-99.6
X89.2Y-100.1
X89.2Y-100.6
M30
