G04 #@! TF.GenerationSoftware,KiCad,Pcbnew,9.0.6-9.0.6~ubuntu24.04.1*
G04 #@! TF.CreationDate,2026-01-17T19:17:03+01:00*
G04 #@! TF.ProjectId,panel,70616e65-6c2e-46b6-9963-61645f706362,rev?*
G04 #@! TF.SameCoordinates,Original*
G04 #@! TF.FileFunction,Legend,Bot*
G04 #@! TF.FilePolarity,Positive*
%FSLAX46Y46*%
G04 Gerber Fmt 4.6, Leading zero omitted, Abs format (unit mm)*
G04 Created by KiCad (PCBNEW 9.0.6-9.0.6~ubuntu24.04.1) date 2026-01-17 19:17:03*
%MOMM*%
%LPD*%
G01*
G04 APERTURE LIST*
%ADD10C,0.150000*%
%ADD11C,0.120000*%
G04 APERTURE END LIST*
D10*
X82819047Y-47689104D02*
X82342857Y-47689104D01*
X82914285Y-47974819D02*
X82580952Y-46974819D01*
X82580952Y-46974819D02*
X82247619Y-47974819D01*
X81914285Y-47451009D02*
X81580952Y-47451009D01*
X81438095Y-47974819D02*
X81914285Y-47974819D01*
X81914285Y-47974819D02*
X81914285Y-46974819D01*
X81914285Y-46974819D02*
X81438095Y-46974819D01*
X80485714Y-47974819D02*
X81057142Y-47974819D01*
X80771428Y-47974819D02*
X80771428Y-46974819D01*
X80771428Y-46974819D02*
X80866666Y-47117676D01*
X80866666Y-47117676D02*
X80961904Y-47212914D01*
X80961904Y-47212914D02*
X81057142Y-47260533D01*
X79866666Y-46974819D02*
X79771428Y-46974819D01*
X79771428Y-46974819D02*
X79676190Y-47022438D01*
X79676190Y-47022438D02*
X79628571Y-47070057D01*
X79628571Y-47070057D02*
X79580952Y-47165295D01*
X79580952Y-47165295D02*
X79533333Y-47355771D01*
X79533333Y-47355771D02*
X79533333Y-47593866D01*
X79533333Y-47593866D02*
X79580952Y-47784342D01*
X79580952Y-47784342D02*
X79628571Y-47879580D01*
X79628571Y-47879580D02*
X79676190Y-47927200D01*
X79676190Y-47927200D02*
X79771428Y-47974819D01*
X79771428Y-47974819D02*
X79866666Y-47974819D01*
X79866666Y-47974819D02*
X79961904Y-47927200D01*
X79961904Y-47927200D02*
X80009523Y-47879580D01*
X80009523Y-47879580D02*
X80057142Y-47784342D01*
X80057142Y-47784342D02*
X80104761Y-47593866D01*
X80104761Y-47593866D02*
X80104761Y-47355771D01*
X80104761Y-47355771D02*
X80057142Y-47165295D01*
X80057142Y-47165295D02*
X80009523Y-47070057D01*
X80009523Y-47070057D02*
X79961904Y-47022438D01*
X79961904Y-47022438D02*
X79866666Y-46974819D01*
X78580952Y-47974819D02*
X79152380Y-47974819D01*
X78866666Y-47974819D02*
X78866666Y-46974819D01*
X78866666Y-46974819D02*
X78961904Y-47117676D01*
X78961904Y-47117676D02*
X79057142Y-47212914D01*
X79057142Y-47212914D02*
X79152380Y-47260533D01*
X82819047Y-69289104D02*
X82342857Y-69289104D01*
X82914285Y-69574819D02*
X82580952Y-68574819D01*
X82580952Y-68574819D02*
X82247619Y-69574819D01*
X81914285Y-69051009D02*
X81580952Y-69051009D01*
X81438095Y-69574819D02*
X81914285Y-69574819D01*
X81914285Y-69574819D02*
X81914285Y-68574819D01*
X81914285Y-68574819D02*
X81438095Y-68574819D01*
X80485714Y-69574819D02*
X81057142Y-69574819D01*
X80771428Y-69574819D02*
X80771428Y-68574819D01*
X80771428Y-68574819D02*
X80866666Y-68717676D01*
X80866666Y-68717676D02*
X80961904Y-68812914D01*
X80961904Y-68812914D02*
X81057142Y-68860533D01*
X79866666Y-68574819D02*
X79771428Y-68574819D01*
X79771428Y-68574819D02*
X79676190Y-68622438D01*
X79676190Y-68622438D02*
X79628571Y-68670057D01*
X79628571Y-68670057D02*
X79580952Y-68765295D01*
X79580952Y-68765295D02*
X79533333Y-68955771D01*
X79533333Y-68955771D02*
X79533333Y-69193866D01*
X79533333Y-69193866D02*
X79580952Y-69384342D01*
X79580952Y-69384342D02*
X79628571Y-69479580D01*
X79628571Y-69479580D02*
X79676190Y-69527200D01*
X79676190Y-69527200D02*
X79771428Y-69574819D01*
X79771428Y-69574819D02*
X79866666Y-69574819D01*
X79866666Y-69574819D02*
X79961904Y-69527200D01*
X79961904Y-69527200D02*
X80009523Y-69479580D01*
X80009523Y-69479580D02*
X80057142Y-69384342D01*
X80057142Y-69384342D02*
X80104761Y-69193866D01*
X80104761Y-69193866D02*
X80104761Y-68955771D01*
X80104761Y-68955771D02*
X80057142Y-68765295D01*
X80057142Y-68765295D02*
X80009523Y-68670057D01*
X80009523Y-68670057D02*
X79961904Y-68622438D01*
X79961904Y-68622438D02*
X79866666Y-68574819D01*
X78580952Y-69574819D02*
X79152380Y-69574819D01*
X78866666Y-69574819D02*
X78866666Y-68574819D01*
X78866666Y-68574819D02*
X78961904Y-68717676D01*
X78961904Y-68717676D02*
X79057142Y-68812914D01*
X79057142Y-68812914D02*
X79152380Y-68860533D01*
X82819047Y-26089104D02*
X82342857Y-26089104D01*
X82914285Y-26374819D02*
X82580952Y-25374819D01*
X82580952Y-25374819D02*
X82247619Y-26374819D01*
X81914285Y-25851009D02*
X81580952Y-25851009D01*
X81438095Y-26374819D02*
X81914285Y-26374819D01*
X81914285Y-26374819D02*
X81914285Y-25374819D01*
X81914285Y-25374819D02*
X81438095Y-25374819D01*
X80485714Y-26374819D02*
X81057142Y-26374819D01*
X80771428Y-26374819D02*
X80771428Y-25374819D01*
X80771428Y-25374819D02*
X80866666Y-25517676D01*
X80866666Y-25517676D02*
X80961904Y-25612914D01*
X80961904Y-25612914D02*
X81057142Y-25660533D01*
X79866666Y-25374819D02*
X79771428Y-25374819D01*
X79771428Y-25374819D02*
X79676190Y-25422438D01*
X79676190Y-25422438D02*
X79628571Y-25470057D01*
X79628571Y-25470057D02*
X79580952Y-25565295D01*
X79580952Y-25565295D02*
X79533333Y-25755771D01*
X79533333Y-25755771D02*
X79533333Y-25993866D01*
X79533333Y-25993866D02*
X79580952Y-26184342D01*
X79580952Y-26184342D02*
X79628571Y-26279580D01*
X79628571Y-26279580D02*
X79676190Y-26327200D01*
X79676190Y-26327200D02*
X79771428Y-26374819D01*
X79771428Y-26374819D02*
X79866666Y-26374819D01*
X79866666Y-26374819D02*
X79961904Y-26327200D01*
X79961904Y-26327200D02*
X80009523Y-26279580D01*
X80009523Y-26279580D02*
X80057142Y-26184342D01*
X80057142Y-26184342D02*
X80104761Y-25993866D01*
X80104761Y-25993866D02*
X80104761Y-25755771D01*
X80104761Y-25755771D02*
X80057142Y-25565295D01*
X80057142Y-25565295D02*
X80009523Y-25470057D01*
X80009523Y-25470057D02*
X79961904Y-25422438D01*
X79961904Y-25422438D02*
X79866666Y-25374819D01*
X78580952Y-26374819D02*
X79152380Y-26374819D01*
X78866666Y-26374819D02*
X78866666Y-25374819D01*
X78866666Y-25374819D02*
X78961904Y-25517676D01*
X78961904Y-25517676D02*
X79057142Y-25612914D01*
X79057142Y-25612914D02*
X79152380Y-25660533D01*
X82819047Y-11689104D02*
X82342857Y-11689104D01*
X82914285Y-11974819D02*
X82580952Y-10974819D01*
X82580952Y-10974819D02*
X82247619Y-11974819D01*
X81914285Y-11451009D02*
X81580952Y-11451009D01*
X81438095Y-11974819D02*
X81914285Y-11974819D01*
X81914285Y-11974819D02*
X81914285Y-10974819D01*
X81914285Y-10974819D02*
X81438095Y-10974819D01*
X80485714Y-11974819D02*
X81057142Y-11974819D01*
X80771428Y-11974819D02*
X80771428Y-10974819D01*
X80771428Y-10974819D02*
X80866666Y-11117676D01*
X80866666Y-11117676D02*
X80961904Y-11212914D01*
X80961904Y-11212914D02*
X81057142Y-11260533D01*
X79866666Y-10974819D02*
X79771428Y-10974819D01*
X79771428Y-10974819D02*
X79676190Y-11022438D01*
X79676190Y-11022438D02*
X79628571Y-11070057D01*
X79628571Y-11070057D02*
X79580952Y-11165295D01*
X79580952Y-11165295D02*
X79533333Y-11355771D01*
X79533333Y-11355771D02*
X79533333Y-11593866D01*
X79533333Y-11593866D02*
X79580952Y-11784342D01*
X79580952Y-11784342D02*
X79628571Y-11879580D01*
X79628571Y-11879580D02*
X79676190Y-11927200D01*
X79676190Y-11927200D02*
X79771428Y-11974819D01*
X79771428Y-11974819D02*
X79866666Y-11974819D01*
X79866666Y-11974819D02*
X79961904Y-11927200D01*
X79961904Y-11927200D02*
X80009523Y-11879580D01*
X80009523Y-11879580D02*
X80057142Y-11784342D01*
X80057142Y-11784342D02*
X80104761Y-11593866D01*
X80104761Y-11593866D02*
X80104761Y-11355771D01*
X80104761Y-11355771D02*
X80057142Y-11165295D01*
X80057142Y-11165295D02*
X80009523Y-11070057D01*
X80009523Y-11070057D02*
X79961904Y-11022438D01*
X79961904Y-11022438D02*
X79866666Y-10974819D01*
X78580952Y-11974819D02*
X79152380Y-11974819D01*
X78866666Y-11974819D02*
X78866666Y-10974819D01*
X78866666Y-10974819D02*
X78961904Y-11117676D01*
X78961904Y-11117676D02*
X79057142Y-11212914D01*
X79057142Y-11212914D02*
X79152380Y-11260533D01*
X82819047Y-33289104D02*
X82342857Y-33289104D01*
X82914285Y-33574819D02*
X82580952Y-32574819D01*
X82580952Y-32574819D02*
X82247619Y-33574819D01*
X81914285Y-33051009D02*
X81580952Y-33051009D01*
X81438095Y-33574819D02*
X81914285Y-33574819D01*
X81914285Y-33574819D02*
X81914285Y-32574819D01*
X81914285Y-32574819D02*
X81438095Y-32574819D01*
X80485714Y-33574819D02*
X81057142Y-33574819D01*
X80771428Y-33574819D02*
X80771428Y-32574819D01*
X80771428Y-32574819D02*
X80866666Y-32717676D01*
X80866666Y-32717676D02*
X80961904Y-32812914D01*
X80961904Y-32812914D02*
X81057142Y-32860533D01*
X79866666Y-32574819D02*
X79771428Y-32574819D01*
X79771428Y-32574819D02*
X79676190Y-32622438D01*
X79676190Y-32622438D02*
X79628571Y-32670057D01*
X79628571Y-32670057D02*
X79580952Y-32765295D01*
X79580952Y-32765295D02*
X79533333Y-32955771D01*
X79533333Y-32955771D02*
X79533333Y-33193866D01*
X79533333Y-33193866D02*
X79580952Y-33384342D01*
X79580952Y-33384342D02*
X79628571Y-33479580D01*
X79628571Y-33479580D02*
X79676190Y-33527200D01*
X79676190Y-33527200D02*
X79771428Y-33574819D01*
X79771428Y-33574819D02*
X79866666Y-33574819D01*
X79866666Y-33574819D02*
X79961904Y-33527200D01*
X79961904Y-33527200D02*
X80009523Y-33479580D01*
X80009523Y-33479580D02*
X80057142Y-33384342D01*
X80057142Y-33384342D02*
X80104761Y-33193866D01*
X80104761Y-33193866D02*
X80104761Y-32955771D01*
X80104761Y-32955771D02*
X80057142Y-32765295D01*
X80057142Y-32765295D02*
X80009523Y-32670057D01*
X80009523Y-32670057D02*
X79961904Y-32622438D01*
X79961904Y-32622438D02*
X79866666Y-32574819D01*
X78580952Y-33574819D02*
X79152380Y-33574819D01*
X78866666Y-33574819D02*
X78866666Y-32574819D01*
X78866666Y-32574819D02*
X78961904Y-32717676D01*
X78961904Y-32717676D02*
X79057142Y-32812914D01*
X79057142Y-32812914D02*
X79152380Y-32860533D01*
X82819047Y-54889104D02*
X82342857Y-54889104D01*
X82914285Y-55174819D02*
X82580952Y-54174819D01*
X82580952Y-54174819D02*
X82247619Y-55174819D01*
X81914285Y-54651009D02*
X81580952Y-54651009D01*
X81438095Y-55174819D02*
X81914285Y-55174819D01*
X81914285Y-55174819D02*
X81914285Y-54174819D01*
X81914285Y-54174819D02*
X81438095Y-54174819D01*
X80485714Y-55174819D02*
X81057142Y-55174819D01*
X80771428Y-55174819D02*
X80771428Y-54174819D01*
X80771428Y-54174819D02*
X80866666Y-54317676D01*
X80866666Y-54317676D02*
X80961904Y-54412914D01*
X80961904Y-54412914D02*
X81057142Y-54460533D01*
X79866666Y-54174819D02*
X79771428Y-54174819D01*
X79771428Y-54174819D02*
X79676190Y-54222438D01*
X79676190Y-54222438D02*
X79628571Y-54270057D01*
X79628571Y-54270057D02*
X79580952Y-54365295D01*
X79580952Y-54365295D02*
X79533333Y-54555771D01*
X79533333Y-54555771D02*
X79533333Y-54793866D01*
X79533333Y-54793866D02*
X79580952Y-54984342D01*
X79580952Y-54984342D02*
X79628571Y-55079580D01*
X79628571Y-55079580D02*
X79676190Y-55127200D01*
X79676190Y-55127200D02*
X79771428Y-55174819D01*
X79771428Y-55174819D02*
X79866666Y-55174819D01*
X79866666Y-55174819D02*
X79961904Y-55127200D01*
X79961904Y-55127200D02*
X80009523Y-55079580D01*
X80009523Y-55079580D02*
X80057142Y-54984342D01*
X80057142Y-54984342D02*
X80104761Y-54793866D01*
X80104761Y-54793866D02*
X80104761Y-54555771D01*
X80104761Y-54555771D02*
X80057142Y-54365295D01*
X80057142Y-54365295D02*
X80009523Y-54270057D01*
X80009523Y-54270057D02*
X79961904Y-54222438D01*
X79961904Y-54222438D02*
X79866666Y-54174819D01*
X78580952Y-55174819D02*
X79152380Y-55174819D01*
X78866666Y-55174819D02*
X78866666Y-54174819D01*
X78866666Y-54174819D02*
X78961904Y-54317676D01*
X78961904Y-54317676D02*
X79057142Y-54412914D01*
X79057142Y-54412914D02*
X79152380Y-54460533D01*
X82819047Y-62089104D02*
X82342857Y-62089104D01*
X82914285Y-62374819D02*
X82580952Y-61374819D01*
X82580952Y-61374819D02*
X82247619Y-62374819D01*
X81914285Y-61851009D02*
X81580952Y-61851009D01*
X81438095Y-62374819D02*
X81914285Y-62374819D01*
X81914285Y-62374819D02*
X81914285Y-61374819D01*
X81914285Y-61374819D02*
X81438095Y-61374819D01*
X80485714Y-62374819D02*
X81057142Y-62374819D01*
X80771428Y-62374819D02*
X80771428Y-61374819D01*
X80771428Y-61374819D02*
X80866666Y-61517676D01*
X80866666Y-61517676D02*
X80961904Y-61612914D01*
X80961904Y-61612914D02*
X81057142Y-61660533D01*
X79866666Y-61374819D02*
X79771428Y-61374819D01*
X79771428Y-61374819D02*
X79676190Y-61422438D01*
X79676190Y-61422438D02*
X79628571Y-61470057D01*
X79628571Y-61470057D02*
X79580952Y-61565295D01*
X79580952Y-61565295D02*
X79533333Y-61755771D01*
X79533333Y-61755771D02*
X79533333Y-61993866D01*
X79533333Y-61993866D02*
X79580952Y-62184342D01*
X79580952Y-62184342D02*
X79628571Y-62279580D01*
X79628571Y-62279580D02*
X79676190Y-62327200D01*
X79676190Y-62327200D02*
X79771428Y-62374819D01*
X79771428Y-62374819D02*
X79866666Y-62374819D01*
X79866666Y-62374819D02*
X79961904Y-62327200D01*
X79961904Y-62327200D02*
X80009523Y-62279580D01*
X80009523Y-62279580D02*
X80057142Y-62184342D01*
X80057142Y-62184342D02*
X80104761Y-61993866D01*
X80104761Y-61993866D02*
X80104761Y-61755771D01*
X80104761Y-61755771D02*
X80057142Y-61565295D01*
X80057142Y-61565295D02*
X80009523Y-61470057D01*
X80009523Y-61470057D02*
X79961904Y-61422438D01*
X79961904Y-61422438D02*
X79866666Y-61374819D01*
X78580952Y-62374819D02*
X79152380Y-62374819D01*
X78866666Y-62374819D02*
X78866666Y-61374819D01*
X78866666Y-61374819D02*
X78961904Y-61517676D01*
X78961904Y-61517676D02*
X79057142Y-61612914D01*
X79057142Y-61612914D02*
X79152380Y-61660533D01*
X67419047Y-62089104D02*
X66942857Y-62089104D01*
X67514285Y-62374819D02*
X67180952Y-61374819D01*
X67180952Y-61374819D02*
X66847619Y-62374819D01*
X66514285Y-61851009D02*
X66180952Y-61851009D01*
X66038095Y-62374819D02*
X66514285Y-62374819D01*
X66514285Y-62374819D02*
X66514285Y-61374819D01*
X66514285Y-61374819D02*
X66038095Y-61374819D01*
X65085714Y-62374819D02*
X65657142Y-62374819D01*
X65371428Y-62374819D02*
X65371428Y-61374819D01*
X65371428Y-61374819D02*
X65466666Y-61517676D01*
X65466666Y-61517676D02*
X65561904Y-61612914D01*
X65561904Y-61612914D02*
X65657142Y-61660533D01*
X64466666Y-61374819D02*
X64371428Y-61374819D01*
X64371428Y-61374819D02*
X64276190Y-61422438D01*
X64276190Y-61422438D02*
X64228571Y-61470057D01*
X64228571Y-61470057D02*
X64180952Y-61565295D01*
X64180952Y-61565295D02*
X64133333Y-61755771D01*
X64133333Y-61755771D02*
X64133333Y-61993866D01*
X64133333Y-61993866D02*
X64180952Y-62184342D01*
X64180952Y-62184342D02*
X64228571Y-62279580D01*
X64228571Y-62279580D02*
X64276190Y-62327200D01*
X64276190Y-62327200D02*
X64371428Y-62374819D01*
X64371428Y-62374819D02*
X64466666Y-62374819D01*
X64466666Y-62374819D02*
X64561904Y-62327200D01*
X64561904Y-62327200D02*
X64609523Y-62279580D01*
X64609523Y-62279580D02*
X64657142Y-62184342D01*
X64657142Y-62184342D02*
X64704761Y-61993866D01*
X64704761Y-61993866D02*
X64704761Y-61755771D01*
X64704761Y-61755771D02*
X64657142Y-61565295D01*
X64657142Y-61565295D02*
X64609523Y-61470057D01*
X64609523Y-61470057D02*
X64561904Y-61422438D01*
X64561904Y-61422438D02*
X64466666Y-61374819D01*
X63180952Y-62374819D02*
X63752380Y-62374819D01*
X63466666Y-62374819D02*
X63466666Y-61374819D01*
X63466666Y-61374819D02*
X63561904Y-61517676D01*
X63561904Y-61517676D02*
X63657142Y-61612914D01*
X63657142Y-61612914D02*
X63752380Y-61660533D01*
X67419047Y-11689104D02*
X66942857Y-11689104D01*
X67514285Y-11974819D02*
X67180952Y-10974819D01*
X67180952Y-10974819D02*
X66847619Y-11974819D01*
X66514285Y-11451009D02*
X66180952Y-11451009D01*
X66038095Y-11974819D02*
X66514285Y-11974819D01*
X66514285Y-11974819D02*
X66514285Y-10974819D01*
X66514285Y-10974819D02*
X66038095Y-10974819D01*
X65085714Y-11974819D02*
X65657142Y-11974819D01*
X65371428Y-11974819D02*
X65371428Y-10974819D01*
X65371428Y-10974819D02*
X65466666Y-11117676D01*
X65466666Y-11117676D02*
X65561904Y-11212914D01*
X65561904Y-11212914D02*
X65657142Y-11260533D01*
X64466666Y-10974819D02*
X64371428Y-10974819D01*
X64371428Y-10974819D02*
X64276190Y-11022438D01*
X64276190Y-11022438D02*
X64228571Y-11070057D01*
X64228571Y-11070057D02*
X64180952Y-11165295D01*
X64180952Y-11165295D02*
X64133333Y-11355771D01*
X64133333Y-11355771D02*
X64133333Y-11593866D01*
X64133333Y-11593866D02*
X64180952Y-11784342D01*
X64180952Y-11784342D02*
X64228571Y-11879580D01*
X64228571Y-11879580D02*
X64276190Y-11927200D01*
X64276190Y-11927200D02*
X64371428Y-11974819D01*
X64371428Y-11974819D02*
X64466666Y-11974819D01*
X64466666Y-11974819D02*
X64561904Y-11927200D01*
X64561904Y-11927200D02*
X64609523Y-11879580D01*
X64609523Y-11879580D02*
X64657142Y-11784342D01*
X64657142Y-11784342D02*
X64704761Y-11593866D01*
X64704761Y-11593866D02*
X64704761Y-11355771D01*
X64704761Y-11355771D02*
X64657142Y-11165295D01*
X64657142Y-11165295D02*
X64609523Y-11070057D01*
X64609523Y-11070057D02*
X64561904Y-11022438D01*
X64561904Y-11022438D02*
X64466666Y-10974819D01*
X63180952Y-11974819D02*
X63752380Y-11974819D01*
X63466666Y-11974819D02*
X63466666Y-10974819D01*
X63466666Y-10974819D02*
X63561904Y-11117676D01*
X63561904Y-11117676D02*
X63657142Y-11212914D01*
X63657142Y-11212914D02*
X63752380Y-11260533D01*
X82819047Y-40489104D02*
X82342857Y-40489104D01*
X82914285Y-40774819D02*
X82580952Y-39774819D01*
X82580952Y-39774819D02*
X82247619Y-40774819D01*
X81914285Y-40251009D02*
X81580952Y-40251009D01*
X81438095Y-40774819D02*
X81914285Y-40774819D01*
X81914285Y-40774819D02*
X81914285Y-39774819D01*
X81914285Y-39774819D02*
X81438095Y-39774819D01*
X80485714Y-40774819D02*
X81057142Y-40774819D01*
X80771428Y-40774819D02*
X80771428Y-39774819D01*
X80771428Y-39774819D02*
X80866666Y-39917676D01*
X80866666Y-39917676D02*
X80961904Y-40012914D01*
X80961904Y-40012914D02*
X81057142Y-40060533D01*
X79866666Y-39774819D02*
X79771428Y-39774819D01*
X79771428Y-39774819D02*
X79676190Y-39822438D01*
X79676190Y-39822438D02*
X79628571Y-39870057D01*
X79628571Y-39870057D02*
X79580952Y-39965295D01*
X79580952Y-39965295D02*
X79533333Y-40155771D01*
X79533333Y-40155771D02*
X79533333Y-40393866D01*
X79533333Y-40393866D02*
X79580952Y-40584342D01*
X79580952Y-40584342D02*
X79628571Y-40679580D01*
X79628571Y-40679580D02*
X79676190Y-40727200D01*
X79676190Y-40727200D02*
X79771428Y-40774819D01*
X79771428Y-40774819D02*
X79866666Y-40774819D01*
X79866666Y-40774819D02*
X79961904Y-40727200D01*
X79961904Y-40727200D02*
X80009523Y-40679580D01*
X80009523Y-40679580D02*
X80057142Y-40584342D01*
X80057142Y-40584342D02*
X80104761Y-40393866D01*
X80104761Y-40393866D02*
X80104761Y-40155771D01*
X80104761Y-40155771D02*
X80057142Y-39965295D01*
X80057142Y-39965295D02*
X80009523Y-39870057D01*
X80009523Y-39870057D02*
X79961904Y-39822438D01*
X79961904Y-39822438D02*
X79866666Y-39774819D01*
X78580952Y-40774819D02*
X79152380Y-40774819D01*
X78866666Y-40774819D02*
X78866666Y-39774819D01*
X78866666Y-39774819D02*
X78961904Y-39917676D01*
X78961904Y-39917676D02*
X79057142Y-40012914D01*
X79057142Y-40012914D02*
X79152380Y-40060533D01*
X82819047Y-18889104D02*
X82342857Y-18889104D01*
X82914285Y-19174819D02*
X82580952Y-18174819D01*
X82580952Y-18174819D02*
X82247619Y-19174819D01*
X81914285Y-18651009D02*
X81580952Y-18651009D01*
X81438095Y-19174819D02*
X81914285Y-19174819D01*
X81914285Y-19174819D02*
X81914285Y-18174819D01*
X81914285Y-18174819D02*
X81438095Y-18174819D01*
X80485714Y-19174819D02*
X81057142Y-19174819D01*
X80771428Y-19174819D02*
X80771428Y-18174819D01*
X80771428Y-18174819D02*
X80866666Y-18317676D01*
X80866666Y-18317676D02*
X80961904Y-18412914D01*
X80961904Y-18412914D02*
X81057142Y-18460533D01*
X79866666Y-18174819D02*
X79771428Y-18174819D01*
X79771428Y-18174819D02*
X79676190Y-18222438D01*
X79676190Y-18222438D02*
X79628571Y-18270057D01*
X79628571Y-18270057D02*
X79580952Y-18365295D01*
X79580952Y-18365295D02*
X79533333Y-18555771D01*
X79533333Y-18555771D02*
X79533333Y-18793866D01*
X79533333Y-18793866D02*
X79580952Y-18984342D01*
X79580952Y-18984342D02*
X79628571Y-19079580D01*
X79628571Y-19079580D02*
X79676190Y-19127200D01*
X79676190Y-19127200D02*
X79771428Y-19174819D01*
X79771428Y-19174819D02*
X79866666Y-19174819D01*
X79866666Y-19174819D02*
X79961904Y-19127200D01*
X79961904Y-19127200D02*
X80009523Y-19079580D01*
X80009523Y-19079580D02*
X80057142Y-18984342D01*
X80057142Y-18984342D02*
X80104761Y-18793866D01*
X80104761Y-18793866D02*
X80104761Y-18555771D01*
X80104761Y-18555771D02*
X80057142Y-18365295D01*
X80057142Y-18365295D02*
X80009523Y-18270057D01*
X80009523Y-18270057D02*
X79961904Y-18222438D01*
X79961904Y-18222438D02*
X79866666Y-18174819D01*
X78580952Y-19174819D02*
X79152380Y-19174819D01*
X78866666Y-19174819D02*
X78866666Y-18174819D01*
X78866666Y-18174819D02*
X78961904Y-18317676D01*
X78961904Y-18317676D02*
X79057142Y-18412914D01*
X79057142Y-18412914D02*
X79152380Y-18460533D01*
X67419047Y-47689104D02*
X66942857Y-47689104D01*
X67514285Y-47974819D02*
X67180952Y-46974819D01*
X67180952Y-46974819D02*
X66847619Y-47974819D01*
X66514285Y-47451009D02*
X66180952Y-47451009D01*
X66038095Y-47974819D02*
X66514285Y-47974819D01*
X66514285Y-47974819D02*
X66514285Y-46974819D01*
X66514285Y-46974819D02*
X66038095Y-46974819D01*
X65085714Y-47974819D02*
X65657142Y-47974819D01*
X65371428Y-47974819D02*
X65371428Y-46974819D01*
X65371428Y-46974819D02*
X65466666Y-47117676D01*
X65466666Y-47117676D02*
X65561904Y-47212914D01*
X65561904Y-47212914D02*
X65657142Y-47260533D01*
X64466666Y-46974819D02*
X64371428Y-46974819D01*
X64371428Y-46974819D02*
X64276190Y-47022438D01*
X64276190Y-47022438D02*
X64228571Y-47070057D01*
X64228571Y-47070057D02*
X64180952Y-47165295D01*
X64180952Y-47165295D02*
X64133333Y-47355771D01*
X64133333Y-47355771D02*
X64133333Y-47593866D01*
X64133333Y-47593866D02*
X64180952Y-47784342D01*
X64180952Y-47784342D02*
X64228571Y-47879580D01*
X64228571Y-47879580D02*
X64276190Y-47927200D01*
X64276190Y-47927200D02*
X64371428Y-47974819D01*
X64371428Y-47974819D02*
X64466666Y-47974819D01*
X64466666Y-47974819D02*
X64561904Y-47927200D01*
X64561904Y-47927200D02*
X64609523Y-47879580D01*
X64609523Y-47879580D02*
X64657142Y-47784342D01*
X64657142Y-47784342D02*
X64704761Y-47593866D01*
X64704761Y-47593866D02*
X64704761Y-47355771D01*
X64704761Y-47355771D02*
X64657142Y-47165295D01*
X64657142Y-47165295D02*
X64609523Y-47070057D01*
X64609523Y-47070057D02*
X64561904Y-47022438D01*
X64561904Y-47022438D02*
X64466666Y-46974819D01*
X63180952Y-47974819D02*
X63752380Y-47974819D01*
X63466666Y-47974819D02*
X63466666Y-46974819D01*
X63466666Y-46974819D02*
X63561904Y-47117676D01*
X63561904Y-47117676D02*
X63657142Y-47212914D01*
X63657142Y-47212914D02*
X63752380Y-47260533D01*
X82819047Y-90889104D02*
X82342857Y-90889104D01*
X82914285Y-91174819D02*
X82580952Y-90174819D01*
X82580952Y-90174819D02*
X82247619Y-91174819D01*
X81914285Y-90651009D02*
X81580952Y-90651009D01*
X81438095Y-91174819D02*
X81914285Y-91174819D01*
X81914285Y-91174819D02*
X81914285Y-90174819D01*
X81914285Y-90174819D02*
X81438095Y-90174819D01*
X80485714Y-91174819D02*
X81057142Y-91174819D01*
X80771428Y-91174819D02*
X80771428Y-90174819D01*
X80771428Y-90174819D02*
X80866666Y-90317676D01*
X80866666Y-90317676D02*
X80961904Y-90412914D01*
X80961904Y-90412914D02*
X81057142Y-90460533D01*
X79866666Y-90174819D02*
X79771428Y-90174819D01*
X79771428Y-90174819D02*
X79676190Y-90222438D01*
X79676190Y-90222438D02*
X79628571Y-90270057D01*
X79628571Y-90270057D02*
X79580952Y-90365295D01*
X79580952Y-90365295D02*
X79533333Y-90555771D01*
X79533333Y-90555771D02*
X79533333Y-90793866D01*
X79533333Y-90793866D02*
X79580952Y-90984342D01*
X79580952Y-90984342D02*
X79628571Y-91079580D01*
X79628571Y-91079580D02*
X79676190Y-91127200D01*
X79676190Y-91127200D02*
X79771428Y-91174819D01*
X79771428Y-91174819D02*
X79866666Y-91174819D01*
X79866666Y-91174819D02*
X79961904Y-91127200D01*
X79961904Y-91127200D02*
X80009523Y-91079580D01*
X80009523Y-91079580D02*
X80057142Y-90984342D01*
X80057142Y-90984342D02*
X80104761Y-90793866D01*
X80104761Y-90793866D02*
X80104761Y-90555771D01*
X80104761Y-90555771D02*
X80057142Y-90365295D01*
X80057142Y-90365295D02*
X80009523Y-90270057D01*
X80009523Y-90270057D02*
X79961904Y-90222438D01*
X79961904Y-90222438D02*
X79866666Y-90174819D01*
X78580952Y-91174819D02*
X79152380Y-91174819D01*
X78866666Y-91174819D02*
X78866666Y-90174819D01*
X78866666Y-90174819D02*
X78961904Y-90317676D01*
X78961904Y-90317676D02*
X79057142Y-90412914D01*
X79057142Y-90412914D02*
X79152380Y-90460533D01*
X67419047Y-83689104D02*
X66942857Y-83689104D01*
X67514285Y-83974819D02*
X67180952Y-82974819D01*
X67180952Y-82974819D02*
X66847619Y-83974819D01*
X66514285Y-83451009D02*
X66180952Y-83451009D01*
X66038095Y-83974819D02*
X66514285Y-83974819D01*
X66514285Y-83974819D02*
X66514285Y-82974819D01*
X66514285Y-82974819D02*
X66038095Y-82974819D01*
X65085714Y-83974819D02*
X65657142Y-83974819D01*
X65371428Y-83974819D02*
X65371428Y-82974819D01*
X65371428Y-82974819D02*
X65466666Y-83117676D01*
X65466666Y-83117676D02*
X65561904Y-83212914D01*
X65561904Y-83212914D02*
X65657142Y-83260533D01*
X64466666Y-82974819D02*
X64371428Y-82974819D01*
X64371428Y-82974819D02*
X64276190Y-83022438D01*
X64276190Y-83022438D02*
X64228571Y-83070057D01*
X64228571Y-83070057D02*
X64180952Y-83165295D01*
X64180952Y-83165295D02*
X64133333Y-83355771D01*
X64133333Y-83355771D02*
X64133333Y-83593866D01*
X64133333Y-83593866D02*
X64180952Y-83784342D01*
X64180952Y-83784342D02*
X64228571Y-83879580D01*
X64228571Y-83879580D02*
X64276190Y-83927200D01*
X64276190Y-83927200D02*
X64371428Y-83974819D01*
X64371428Y-83974819D02*
X64466666Y-83974819D01*
X64466666Y-83974819D02*
X64561904Y-83927200D01*
X64561904Y-83927200D02*
X64609523Y-83879580D01*
X64609523Y-83879580D02*
X64657142Y-83784342D01*
X64657142Y-83784342D02*
X64704761Y-83593866D01*
X64704761Y-83593866D02*
X64704761Y-83355771D01*
X64704761Y-83355771D02*
X64657142Y-83165295D01*
X64657142Y-83165295D02*
X64609523Y-83070057D01*
X64609523Y-83070057D02*
X64561904Y-83022438D01*
X64561904Y-83022438D02*
X64466666Y-82974819D01*
X63180952Y-83974819D02*
X63752380Y-83974819D01*
X63466666Y-83974819D02*
X63466666Y-82974819D01*
X63466666Y-82974819D02*
X63561904Y-83117676D01*
X63561904Y-83117676D02*
X63657142Y-83212914D01*
X63657142Y-83212914D02*
X63752380Y-83260533D01*
X67419047Y-69289104D02*
X66942857Y-69289104D01*
X67514285Y-69574819D02*
X67180952Y-68574819D01*
X67180952Y-68574819D02*
X66847619Y-69574819D01*
X66514285Y-69051009D02*
X66180952Y-69051009D01*
X66038095Y-69574819D02*
X66514285Y-69574819D01*
X66514285Y-69574819D02*
X66514285Y-68574819D01*
X66514285Y-68574819D02*
X66038095Y-68574819D01*
X65085714Y-69574819D02*
X65657142Y-69574819D01*
X65371428Y-69574819D02*
X65371428Y-68574819D01*
X65371428Y-68574819D02*
X65466666Y-68717676D01*
X65466666Y-68717676D02*
X65561904Y-68812914D01*
X65561904Y-68812914D02*
X65657142Y-68860533D01*
X64466666Y-68574819D02*
X64371428Y-68574819D01*
X64371428Y-68574819D02*
X64276190Y-68622438D01*
X64276190Y-68622438D02*
X64228571Y-68670057D01*
X64228571Y-68670057D02*
X64180952Y-68765295D01*
X64180952Y-68765295D02*
X64133333Y-68955771D01*
X64133333Y-68955771D02*
X64133333Y-69193866D01*
X64133333Y-69193866D02*
X64180952Y-69384342D01*
X64180952Y-69384342D02*
X64228571Y-69479580D01*
X64228571Y-69479580D02*
X64276190Y-69527200D01*
X64276190Y-69527200D02*
X64371428Y-69574819D01*
X64371428Y-69574819D02*
X64466666Y-69574819D01*
X64466666Y-69574819D02*
X64561904Y-69527200D01*
X64561904Y-69527200D02*
X64609523Y-69479580D01*
X64609523Y-69479580D02*
X64657142Y-69384342D01*
X64657142Y-69384342D02*
X64704761Y-69193866D01*
X64704761Y-69193866D02*
X64704761Y-68955771D01*
X64704761Y-68955771D02*
X64657142Y-68765295D01*
X64657142Y-68765295D02*
X64609523Y-68670057D01*
X64609523Y-68670057D02*
X64561904Y-68622438D01*
X64561904Y-68622438D02*
X64466666Y-68574819D01*
X63180952Y-69574819D02*
X63752380Y-69574819D01*
X63466666Y-69574819D02*
X63466666Y-68574819D01*
X63466666Y-68574819D02*
X63561904Y-68717676D01*
X63561904Y-68717676D02*
X63657142Y-68812914D01*
X63657142Y-68812914D02*
X63752380Y-68860533D01*
X82819047Y-76489104D02*
X82342857Y-76489104D01*
X82914285Y-76774819D02*
X82580952Y-75774819D01*
X82580952Y-75774819D02*
X82247619Y-76774819D01*
X81914285Y-76251009D02*
X81580952Y-76251009D01*
X81438095Y-76774819D02*
X81914285Y-76774819D01*
X81914285Y-76774819D02*
X81914285Y-75774819D01*
X81914285Y-75774819D02*
X81438095Y-75774819D01*
X80485714Y-76774819D02*
X81057142Y-76774819D01*
X80771428Y-76774819D02*
X80771428Y-75774819D01*
X80771428Y-75774819D02*
X80866666Y-75917676D01*
X80866666Y-75917676D02*
X80961904Y-76012914D01*
X80961904Y-76012914D02*
X81057142Y-76060533D01*
X79866666Y-75774819D02*
X79771428Y-75774819D01*
X79771428Y-75774819D02*
X79676190Y-75822438D01*
X79676190Y-75822438D02*
X79628571Y-75870057D01*
X79628571Y-75870057D02*
X79580952Y-75965295D01*
X79580952Y-75965295D02*
X79533333Y-76155771D01*
X79533333Y-76155771D02*
X79533333Y-76393866D01*
X79533333Y-76393866D02*
X79580952Y-76584342D01*
X79580952Y-76584342D02*
X79628571Y-76679580D01*
X79628571Y-76679580D02*
X79676190Y-76727200D01*
X79676190Y-76727200D02*
X79771428Y-76774819D01*
X79771428Y-76774819D02*
X79866666Y-76774819D01*
X79866666Y-76774819D02*
X79961904Y-76727200D01*
X79961904Y-76727200D02*
X80009523Y-76679580D01*
X80009523Y-76679580D02*
X80057142Y-76584342D01*
X80057142Y-76584342D02*
X80104761Y-76393866D01*
X80104761Y-76393866D02*
X80104761Y-76155771D01*
X80104761Y-76155771D02*
X80057142Y-75965295D01*
X80057142Y-75965295D02*
X80009523Y-75870057D01*
X80009523Y-75870057D02*
X79961904Y-75822438D01*
X79961904Y-75822438D02*
X79866666Y-75774819D01*
X78580952Y-76774819D02*
X79152380Y-76774819D01*
X78866666Y-76774819D02*
X78866666Y-75774819D01*
X78866666Y-75774819D02*
X78961904Y-75917676D01*
X78961904Y-75917676D02*
X79057142Y-76012914D01*
X79057142Y-76012914D02*
X79152380Y-76060533D01*
X82819047Y-83689104D02*
X82342857Y-83689104D01*
X82914285Y-83974819D02*
X82580952Y-82974819D01*
X82580952Y-82974819D02*
X82247619Y-83974819D01*
X81914285Y-83451009D02*
X81580952Y-83451009D01*
X81438095Y-83974819D02*
X81914285Y-83974819D01*
X81914285Y-83974819D02*
X81914285Y-82974819D01*
X81914285Y-82974819D02*
X81438095Y-82974819D01*
X80485714Y-83974819D02*
X81057142Y-83974819D01*
X80771428Y-83974819D02*
X80771428Y-82974819D01*
X80771428Y-82974819D02*
X80866666Y-83117676D01*
X80866666Y-83117676D02*
X80961904Y-83212914D01*
X80961904Y-83212914D02*
X81057142Y-83260533D01*
X79866666Y-82974819D02*
X79771428Y-82974819D01*
X79771428Y-82974819D02*
X79676190Y-83022438D01*
X79676190Y-83022438D02*
X79628571Y-83070057D01*
X79628571Y-83070057D02*
X79580952Y-83165295D01*
X79580952Y-83165295D02*
X79533333Y-83355771D01*
X79533333Y-83355771D02*
X79533333Y-83593866D01*
X79533333Y-83593866D02*
X79580952Y-83784342D01*
X79580952Y-83784342D02*
X79628571Y-83879580D01*
X79628571Y-83879580D02*
X79676190Y-83927200D01*
X79676190Y-83927200D02*
X79771428Y-83974819D01*
X79771428Y-83974819D02*
X79866666Y-83974819D01*
X79866666Y-83974819D02*
X79961904Y-83927200D01*
X79961904Y-83927200D02*
X80009523Y-83879580D01*
X80009523Y-83879580D02*
X80057142Y-83784342D01*
X80057142Y-83784342D02*
X80104761Y-83593866D01*
X80104761Y-83593866D02*
X80104761Y-83355771D01*
X80104761Y-83355771D02*
X80057142Y-83165295D01*
X80057142Y-83165295D02*
X80009523Y-83070057D01*
X80009523Y-83070057D02*
X79961904Y-83022438D01*
X79961904Y-83022438D02*
X79866666Y-82974819D01*
X78580952Y-83974819D02*
X79152380Y-83974819D01*
X78866666Y-83974819D02*
X78866666Y-82974819D01*
X78866666Y-82974819D02*
X78961904Y-83117676D01*
X78961904Y-83117676D02*
X79057142Y-83212914D01*
X79057142Y-83212914D02*
X79152380Y-83260533D01*
X67419047Y-40489104D02*
X66942857Y-40489104D01*
X67514285Y-40774819D02*
X67180952Y-39774819D01*
X67180952Y-39774819D02*
X66847619Y-40774819D01*
X66514285Y-40251009D02*
X66180952Y-40251009D01*
X66038095Y-40774819D02*
X66514285Y-40774819D01*
X66514285Y-40774819D02*
X66514285Y-39774819D01*
X66514285Y-39774819D02*
X66038095Y-39774819D01*
X65085714Y-40774819D02*
X65657142Y-40774819D01*
X65371428Y-40774819D02*
X65371428Y-39774819D01*
X65371428Y-39774819D02*
X65466666Y-39917676D01*
X65466666Y-39917676D02*
X65561904Y-40012914D01*
X65561904Y-40012914D02*
X65657142Y-40060533D01*
X64466666Y-39774819D02*
X64371428Y-39774819D01*
X64371428Y-39774819D02*
X64276190Y-39822438D01*
X64276190Y-39822438D02*
X64228571Y-39870057D01*
X64228571Y-39870057D02*
X64180952Y-39965295D01*
X64180952Y-39965295D02*
X64133333Y-40155771D01*
X64133333Y-40155771D02*
X64133333Y-40393866D01*
X64133333Y-40393866D02*
X64180952Y-40584342D01*
X64180952Y-40584342D02*
X64228571Y-40679580D01*
X64228571Y-40679580D02*
X64276190Y-40727200D01*
X64276190Y-40727200D02*
X64371428Y-40774819D01*
X64371428Y-40774819D02*
X64466666Y-40774819D01*
X64466666Y-40774819D02*
X64561904Y-40727200D01*
X64561904Y-40727200D02*
X64609523Y-40679580D01*
X64609523Y-40679580D02*
X64657142Y-40584342D01*
X64657142Y-40584342D02*
X64704761Y-40393866D01*
X64704761Y-40393866D02*
X64704761Y-40155771D01*
X64704761Y-40155771D02*
X64657142Y-39965295D01*
X64657142Y-39965295D02*
X64609523Y-39870057D01*
X64609523Y-39870057D02*
X64561904Y-39822438D01*
X64561904Y-39822438D02*
X64466666Y-39774819D01*
X63180952Y-40774819D02*
X63752380Y-40774819D01*
X63466666Y-40774819D02*
X63466666Y-39774819D01*
X63466666Y-39774819D02*
X63561904Y-39917676D01*
X63561904Y-39917676D02*
X63657142Y-40012914D01*
X63657142Y-40012914D02*
X63752380Y-40060533D01*
X67419047Y-26089104D02*
X66942857Y-26089104D01*
X67514285Y-26374819D02*
X67180952Y-25374819D01*
X67180952Y-25374819D02*
X66847619Y-26374819D01*
X66514285Y-25851009D02*
X66180952Y-25851009D01*
X66038095Y-26374819D02*
X66514285Y-26374819D01*
X66514285Y-26374819D02*
X66514285Y-25374819D01*
X66514285Y-25374819D02*
X66038095Y-25374819D01*
X65085714Y-26374819D02*
X65657142Y-26374819D01*
X65371428Y-26374819D02*
X65371428Y-25374819D01*
X65371428Y-25374819D02*
X65466666Y-25517676D01*
X65466666Y-25517676D02*
X65561904Y-25612914D01*
X65561904Y-25612914D02*
X65657142Y-25660533D01*
X64466666Y-25374819D02*
X64371428Y-25374819D01*
X64371428Y-25374819D02*
X64276190Y-25422438D01*
X64276190Y-25422438D02*
X64228571Y-25470057D01*
X64228571Y-25470057D02*
X64180952Y-25565295D01*
X64180952Y-25565295D02*
X64133333Y-25755771D01*
X64133333Y-25755771D02*
X64133333Y-25993866D01*
X64133333Y-25993866D02*
X64180952Y-26184342D01*
X64180952Y-26184342D02*
X64228571Y-26279580D01*
X64228571Y-26279580D02*
X64276190Y-26327200D01*
X64276190Y-26327200D02*
X64371428Y-26374819D01*
X64371428Y-26374819D02*
X64466666Y-26374819D01*
X64466666Y-26374819D02*
X64561904Y-26327200D01*
X64561904Y-26327200D02*
X64609523Y-26279580D01*
X64609523Y-26279580D02*
X64657142Y-26184342D01*
X64657142Y-26184342D02*
X64704761Y-25993866D01*
X64704761Y-25993866D02*
X64704761Y-25755771D01*
X64704761Y-25755771D02*
X64657142Y-25565295D01*
X64657142Y-25565295D02*
X64609523Y-25470057D01*
X64609523Y-25470057D02*
X64561904Y-25422438D01*
X64561904Y-25422438D02*
X64466666Y-25374819D01*
X63180952Y-26374819D02*
X63752380Y-26374819D01*
X63466666Y-26374819D02*
X63466666Y-25374819D01*
X63466666Y-25374819D02*
X63561904Y-25517676D01*
X63561904Y-25517676D02*
X63657142Y-25612914D01*
X63657142Y-25612914D02*
X63752380Y-25660533D01*
X67419047Y-76489104D02*
X66942857Y-76489104D01*
X67514285Y-76774819D02*
X67180952Y-75774819D01*
X67180952Y-75774819D02*
X66847619Y-76774819D01*
X66514285Y-76251009D02*
X66180952Y-76251009D01*
X66038095Y-76774819D02*
X66514285Y-76774819D01*
X66514285Y-76774819D02*
X66514285Y-75774819D01*
X66514285Y-75774819D02*
X66038095Y-75774819D01*
X65085714Y-76774819D02*
X65657142Y-76774819D01*
X65371428Y-76774819D02*
X65371428Y-75774819D01*
X65371428Y-75774819D02*
X65466666Y-75917676D01*
X65466666Y-75917676D02*
X65561904Y-76012914D01*
X65561904Y-76012914D02*
X65657142Y-76060533D01*
X64466666Y-75774819D02*
X64371428Y-75774819D01*
X64371428Y-75774819D02*
X64276190Y-75822438D01*
X64276190Y-75822438D02*
X64228571Y-75870057D01*
X64228571Y-75870057D02*
X64180952Y-75965295D01*
X64180952Y-75965295D02*
X64133333Y-76155771D01*
X64133333Y-76155771D02*
X64133333Y-76393866D01*
X64133333Y-76393866D02*
X64180952Y-76584342D01*
X64180952Y-76584342D02*
X64228571Y-76679580D01*
X64228571Y-76679580D02*
X64276190Y-76727200D01*
X64276190Y-76727200D02*
X64371428Y-76774819D01*
X64371428Y-76774819D02*
X64466666Y-76774819D01*
X64466666Y-76774819D02*
X64561904Y-76727200D01*
X64561904Y-76727200D02*
X64609523Y-76679580D01*
X64609523Y-76679580D02*
X64657142Y-76584342D01*
X64657142Y-76584342D02*
X64704761Y-76393866D01*
X64704761Y-76393866D02*
X64704761Y-76155771D01*
X64704761Y-76155771D02*
X64657142Y-75965295D01*
X64657142Y-75965295D02*
X64609523Y-75870057D01*
X64609523Y-75870057D02*
X64561904Y-75822438D01*
X64561904Y-75822438D02*
X64466666Y-75774819D01*
X63180952Y-76774819D02*
X63752380Y-76774819D01*
X63466666Y-76774819D02*
X63466666Y-75774819D01*
X63466666Y-75774819D02*
X63561904Y-75917676D01*
X63561904Y-75917676D02*
X63657142Y-76012914D01*
X63657142Y-76012914D02*
X63752380Y-76060533D01*
X67419047Y-54889104D02*
X66942857Y-54889104D01*
X67514285Y-55174819D02*
X67180952Y-54174819D01*
X67180952Y-54174819D02*
X66847619Y-55174819D01*
X66514285Y-54651009D02*
X66180952Y-54651009D01*
X66038095Y-55174819D02*
X66514285Y-55174819D01*
X66514285Y-55174819D02*
X66514285Y-54174819D01*
X66514285Y-54174819D02*
X66038095Y-54174819D01*
X65085714Y-55174819D02*
X65657142Y-55174819D01*
X65371428Y-55174819D02*
X65371428Y-54174819D01*
X65371428Y-54174819D02*
X65466666Y-54317676D01*
X65466666Y-54317676D02*
X65561904Y-54412914D01*
X65561904Y-54412914D02*
X65657142Y-54460533D01*
X64466666Y-54174819D02*
X64371428Y-54174819D01*
X64371428Y-54174819D02*
X64276190Y-54222438D01*
X64276190Y-54222438D02*
X64228571Y-54270057D01*
X64228571Y-54270057D02*
X64180952Y-54365295D01*
X64180952Y-54365295D02*
X64133333Y-54555771D01*
X64133333Y-54555771D02*
X64133333Y-54793866D01*
X64133333Y-54793866D02*
X64180952Y-54984342D01*
X64180952Y-54984342D02*
X64228571Y-55079580D01*
X64228571Y-55079580D02*
X64276190Y-55127200D01*
X64276190Y-55127200D02*
X64371428Y-55174819D01*
X64371428Y-55174819D02*
X64466666Y-55174819D01*
X64466666Y-55174819D02*
X64561904Y-55127200D01*
X64561904Y-55127200D02*
X64609523Y-55079580D01*
X64609523Y-55079580D02*
X64657142Y-54984342D01*
X64657142Y-54984342D02*
X64704761Y-54793866D01*
X64704761Y-54793866D02*
X64704761Y-54555771D01*
X64704761Y-54555771D02*
X64657142Y-54365295D01*
X64657142Y-54365295D02*
X64609523Y-54270057D01*
X64609523Y-54270057D02*
X64561904Y-54222438D01*
X64561904Y-54222438D02*
X64466666Y-54174819D01*
X63180952Y-55174819D02*
X63752380Y-55174819D01*
X63466666Y-55174819D02*
X63466666Y-54174819D01*
X63466666Y-54174819D02*
X63561904Y-54317676D01*
X63561904Y-54317676D02*
X63657142Y-54412914D01*
X63657142Y-54412914D02*
X63752380Y-54460533D01*
X67419047Y-18889104D02*
X66942857Y-18889104D01*
X67514285Y-19174819D02*
X67180952Y-18174819D01*
X67180952Y-18174819D02*
X66847619Y-19174819D01*
X66514285Y-18651009D02*
X66180952Y-18651009D01*
X66038095Y-19174819D02*
X66514285Y-19174819D01*
X66514285Y-19174819D02*
X66514285Y-18174819D01*
X66514285Y-18174819D02*
X66038095Y-18174819D01*
X65085714Y-19174819D02*
X65657142Y-19174819D01*
X65371428Y-19174819D02*
X65371428Y-18174819D01*
X65371428Y-18174819D02*
X65466666Y-18317676D01*
X65466666Y-18317676D02*
X65561904Y-18412914D01*
X65561904Y-18412914D02*
X65657142Y-18460533D01*
X64466666Y-18174819D02*
X64371428Y-18174819D01*
X64371428Y-18174819D02*
X64276190Y-18222438D01*
X64276190Y-18222438D02*
X64228571Y-18270057D01*
X64228571Y-18270057D02*
X64180952Y-18365295D01*
X64180952Y-18365295D02*
X64133333Y-18555771D01*
X64133333Y-18555771D02*
X64133333Y-18793866D01*
X64133333Y-18793866D02*
X64180952Y-18984342D01*
X64180952Y-18984342D02*
X64228571Y-19079580D01*
X64228571Y-19079580D02*
X64276190Y-19127200D01*
X64276190Y-19127200D02*
X64371428Y-19174819D01*
X64371428Y-19174819D02*
X64466666Y-19174819D01*
X64466666Y-19174819D02*
X64561904Y-19127200D01*
X64561904Y-19127200D02*
X64609523Y-19079580D01*
X64609523Y-19079580D02*
X64657142Y-18984342D01*
X64657142Y-18984342D02*
X64704761Y-18793866D01*
X64704761Y-18793866D02*
X64704761Y-18555771D01*
X64704761Y-18555771D02*
X64657142Y-18365295D01*
X64657142Y-18365295D02*
X64609523Y-18270057D01*
X64609523Y-18270057D02*
X64561904Y-18222438D01*
X64561904Y-18222438D02*
X64466666Y-18174819D01*
X63180952Y-19174819D02*
X63752380Y-19174819D01*
X63466666Y-19174819D02*
X63466666Y-18174819D01*
X63466666Y-18174819D02*
X63561904Y-18317676D01*
X63561904Y-18317676D02*
X63657142Y-18412914D01*
X63657142Y-18412914D02*
X63752380Y-18460533D01*
X67419047Y-90889104D02*
X66942857Y-90889104D01*
X67514285Y-91174819D02*
X67180952Y-90174819D01*
X67180952Y-90174819D02*
X66847619Y-91174819D01*
X66514285Y-90651009D02*
X66180952Y-90651009D01*
X66038095Y-91174819D02*
X66514285Y-91174819D01*
X66514285Y-91174819D02*
X66514285Y-90174819D01*
X66514285Y-90174819D02*
X66038095Y-90174819D01*
X65085714Y-91174819D02*
X65657142Y-91174819D01*
X65371428Y-91174819D02*
X65371428Y-90174819D01*
X65371428Y-90174819D02*
X65466666Y-90317676D01*
X65466666Y-90317676D02*
X65561904Y-90412914D01*
X65561904Y-90412914D02*
X65657142Y-90460533D01*
X64466666Y-90174819D02*
X64371428Y-90174819D01*
X64371428Y-90174819D02*
X64276190Y-90222438D01*
X64276190Y-90222438D02*
X64228571Y-90270057D01*
X64228571Y-90270057D02*
X64180952Y-90365295D01*
X64180952Y-90365295D02*
X64133333Y-90555771D01*
X64133333Y-90555771D02*
X64133333Y-90793866D01*
X64133333Y-90793866D02*
X64180952Y-90984342D01*
X64180952Y-90984342D02*
X64228571Y-91079580D01*
X64228571Y-91079580D02*
X64276190Y-91127200D01*
X64276190Y-91127200D02*
X64371428Y-91174819D01*
X64371428Y-91174819D02*
X64466666Y-91174819D01*
X64466666Y-91174819D02*
X64561904Y-91127200D01*
X64561904Y-91127200D02*
X64609523Y-91079580D01*
X64609523Y-91079580D02*
X64657142Y-90984342D01*
X64657142Y-90984342D02*
X64704761Y-90793866D01*
X64704761Y-90793866D02*
X64704761Y-90555771D01*
X64704761Y-90555771D02*
X64657142Y-90365295D01*
X64657142Y-90365295D02*
X64609523Y-90270057D01*
X64609523Y-90270057D02*
X64561904Y-90222438D01*
X64561904Y-90222438D02*
X64466666Y-90174819D01*
X63180952Y-91174819D02*
X63752380Y-91174819D01*
X63466666Y-91174819D02*
X63466666Y-90174819D01*
X63466666Y-90174819D02*
X63561904Y-90317676D01*
X63561904Y-90317676D02*
X63657142Y-90412914D01*
X63657142Y-90412914D02*
X63752380Y-90460533D01*
X67419047Y-33289104D02*
X66942857Y-33289104D01*
X67514285Y-33574819D02*
X67180952Y-32574819D01*
X67180952Y-32574819D02*
X66847619Y-33574819D01*
X66514285Y-33051009D02*
X66180952Y-33051009D01*
X66038095Y-33574819D02*
X66514285Y-33574819D01*
X66514285Y-33574819D02*
X66514285Y-32574819D01*
X66514285Y-32574819D02*
X66038095Y-32574819D01*
X65085714Y-33574819D02*
X65657142Y-33574819D01*
X65371428Y-33574819D02*
X65371428Y-32574819D01*
X65371428Y-32574819D02*
X65466666Y-32717676D01*
X65466666Y-32717676D02*
X65561904Y-32812914D01*
X65561904Y-32812914D02*
X65657142Y-32860533D01*
X64466666Y-32574819D02*
X64371428Y-32574819D01*
X64371428Y-32574819D02*
X64276190Y-32622438D01*
X64276190Y-32622438D02*
X64228571Y-32670057D01*
X64228571Y-32670057D02*
X64180952Y-32765295D01*
X64180952Y-32765295D02*
X64133333Y-32955771D01*
X64133333Y-32955771D02*
X64133333Y-33193866D01*
X64133333Y-33193866D02*
X64180952Y-33384342D01*
X64180952Y-33384342D02*
X64228571Y-33479580D01*
X64228571Y-33479580D02*
X64276190Y-33527200D01*
X64276190Y-33527200D02*
X64371428Y-33574819D01*
X64371428Y-33574819D02*
X64466666Y-33574819D01*
X64466666Y-33574819D02*
X64561904Y-33527200D01*
X64561904Y-33527200D02*
X64609523Y-33479580D01*
X64609523Y-33479580D02*
X64657142Y-33384342D01*
X64657142Y-33384342D02*
X64704761Y-33193866D01*
X64704761Y-33193866D02*
X64704761Y-32955771D01*
X64704761Y-32955771D02*
X64657142Y-32765295D01*
X64657142Y-32765295D02*
X64609523Y-32670057D01*
X64609523Y-32670057D02*
X64561904Y-32622438D01*
X64561904Y-32622438D02*
X64466666Y-32574819D01*
X63180952Y-33574819D02*
X63752380Y-33574819D01*
X63466666Y-33574819D02*
X63466666Y-32574819D01*
X63466666Y-32574819D02*
X63561904Y-32717676D01*
X63561904Y-32717676D02*
X63657142Y-32812914D01*
X63657142Y-32812914D02*
X63752380Y-32860533D01*
D11*
G04 #@! TO.C,R106*
X11420000Y-87746359D02*
X11420000Y-88053641D01*
X12180000Y-87746359D02*
X12180000Y-88053641D01*
G04 #@! TO.C,AE101*
X80840581Y-48440000D02*
X80559419Y-48440000D01*
X80840581Y-49460000D02*
X80559419Y-49460000D01*
G04 #@! TO.C,R106*
X50420000Y-43653641D02*
X50420000Y-43346359D01*
X51180000Y-43653641D02*
X51180000Y-43346359D01*
G04 #@! TO.C,C101*
X51090581Y-13810000D02*
X50809419Y-13810000D01*
X51090581Y-14830000D02*
X50809419Y-14830000D01*
G04 #@! TO.C,AE101*
X80840581Y-70040000D02*
X80559419Y-70040000D01*
X80840581Y-71060000D02*
X80559419Y-71060000D01*
G04 #@! TO.C,U102*
X47957500Y-71160000D02*
X47957500Y-72580000D01*
X48957500Y-71160000D02*
X48827500Y-71160000D01*
X49827500Y-72295568D02*
X49827500Y-71160000D01*
X50022500Y-72730000D02*
X49832499Y-72590000D01*
X50022500Y-72450000D01*
X50022500Y-72730000D01*
G36*
X50022500Y-72730000D02*
G01*
X49832499Y-72590000D01*
X50022500Y-72450000D01*
X50022500Y-72730000D01*
G37*
G04 #@! TO.C,L101*
X34375000Y-88525000D02*
X34375000Y-91475000D01*
X37825000Y-88525000D02*
X37825000Y-91475000D01*
G04 #@! TO.C,R102*
X21720000Y-74453641D02*
X21720000Y-74146359D01*
X22480000Y-74453641D02*
X22480000Y-74146359D01*
G04 #@! TO.C,R104*
X24020000Y-57253641D02*
X24020000Y-56946359D01*
X24780000Y-57253641D02*
X24780000Y-56946359D01*
G04 #@! TO.C,C101*
X9390581Y-75410000D02*
X9109419Y-75410000D01*
X9390581Y-76430000D02*
X9109419Y-76430000D01*
X9390581Y-44610000D02*
X9109419Y-44610000D01*
X9390581Y-45630000D02*
X9109419Y-45630000D01*
G04 #@! TO.C,C104*
X23050000Y-25472164D02*
X23050000Y-25687836D01*
X23770000Y-25472164D02*
X23770000Y-25687836D01*
G04 #@! TO.C,U103*
X53690001Y-74740000D02*
X53690001Y-76040000D01*
X56009999Y-74740000D02*
X56010000Y-75790000D01*
X56010000Y-76430000D02*
X56010000Y-76150000D01*
X56290000Y-76150000D01*
X56010000Y-76430000D01*
G36*
X56010000Y-76430000D02*
G01*
X56010000Y-76150000D01*
X56290000Y-76150000D01*
X56010000Y-76430000D01*
G37*
G04 #@! TO.C,L101*
X6575000Y-57725000D02*
X6575000Y-60675000D01*
X10025000Y-57725000D02*
X10025000Y-60675000D01*
G04 #@! TO.C,Q102*
X50090000Y-72400000D02*
X50090000Y-71000000D01*
X52410000Y-72410000D02*
X52410000Y-71000000D01*
X52690000Y-73020000D02*
X52360000Y-72780000D01*
X52690000Y-72540000D01*
X52690000Y-73020000D01*
G36*
X52690000Y-73020000D02*
G01*
X52360000Y-72780000D01*
X52690000Y-72540000D01*
X52690000Y-73020000D01*
G37*
G04 #@! TO.C,U103*
X6590001Y-87460000D02*
X6590000Y-86410000D01*
X8909999Y-87460000D02*
X8909999Y-86160000D01*
X6590000Y-86050000D02*
X6310000Y-86050000D01*
X6590000Y-85770000D01*
X6590000Y-86050000D01*
G36*
X6590000Y-86050000D02*
G01*
X6310000Y-86050000D01*
X6590000Y-85770000D01*
X6590000Y-86050000D01*
G37*
G04 #@! TO.C,L101*
X48275000Y-57725000D02*
X48275000Y-60675000D01*
X51725000Y-57725000D02*
X51725000Y-60675000D01*
G04 #@! TO.C,U102*
X47957500Y-9560000D02*
X47957500Y-10980000D01*
X48957500Y-9560000D02*
X48827500Y-9560000D01*
X49827500Y-10695568D02*
X49827500Y-9560000D01*
X50022500Y-11130000D02*
X49832499Y-10990000D01*
X50022500Y-10850000D01*
X50022500Y-11130000D01*
G36*
X50022500Y-11130000D02*
G01*
X49832499Y-10990000D01*
X50022500Y-10850000D01*
X50022500Y-11130000D01*
G37*
G04 #@! TO.C,R106*
X53120000Y-26146359D02*
X53120000Y-26453641D01*
X53880000Y-26146359D02*
X53880000Y-26453641D01*
G04 #@! TO.C,R104*
X23920000Y-74146359D02*
X23920000Y-74453641D01*
X24680000Y-74146359D02*
X24680000Y-74453641D01*
G04 #@! TO.C,U102*
X20157500Y-9560000D02*
X20157500Y-10980000D01*
X21157500Y-9560000D02*
X21027500Y-9560000D01*
X22027500Y-10695568D02*
X22027500Y-9560000D01*
X22222500Y-11130000D02*
X22032499Y-10990000D01*
X22222500Y-10850000D01*
X22222500Y-11130000D01*
G36*
X22222500Y-11130000D02*
G01*
X22032499Y-10990000D01*
X22222500Y-10850000D01*
X22222500Y-11130000D01*
G37*
G04 #@! TO.C,C101*
X37190581Y-75410000D02*
X36909419Y-75410000D01*
X37190581Y-76430000D02*
X36909419Y-76430000D01*
G04 #@! TO.C,U102*
X12772500Y-89904432D02*
X12772500Y-91040000D01*
X13642500Y-91040000D02*
X13772500Y-91040000D01*
X14642500Y-91040000D02*
X14642500Y-89620000D01*
X12767501Y-89610000D02*
X12577500Y-89750000D01*
X12577500Y-89470000D01*
X12767501Y-89610000D01*
G36*
X12767501Y-89610000D02*
G01*
X12577500Y-89750000D01*
X12577500Y-89470000D01*
X12767501Y-89610000D01*
G37*
G04 #@! TO.C,AE101*
X80840581Y-26840000D02*
X80559419Y-26840000D01*
X80840581Y-27860000D02*
X80559419Y-27860000D01*
G04 #@! TO.C,U103*
X48290001Y-56660000D02*
X48290000Y-55610000D01*
X50609999Y-56660000D02*
X50609999Y-55360000D01*
X48290000Y-55250000D02*
X48010000Y-55250000D01*
X48290000Y-54970000D01*
X48290000Y-55250000D01*
G36*
X48290000Y-55250000D02*
G01*
X48010000Y-55250000D01*
X48290000Y-54970000D01*
X48290000Y-55250000D01*
G37*
G04 #@! TO.C,R102*
X49520000Y-74453641D02*
X49520000Y-74146359D01*
X50280000Y-74453641D02*
X50280000Y-74146359D01*
G04 #@! TO.C,R103*
X41177500Y-55987742D02*
X41177500Y-56462258D01*
X42222500Y-55987742D02*
X42222500Y-56462258D01*
G04 #@! TO.C,C101*
X9390581Y-13810000D02*
X9109419Y-13810000D01*
X9390581Y-14830000D02*
X9109419Y-14830000D01*
G04 #@! TO.C,R106*
X8720000Y-43653641D02*
X8720000Y-43346359D01*
X9480000Y-43653641D02*
X9480000Y-43346359D01*
G04 #@! TO.C,U103*
X39790001Y-13140000D02*
X39790001Y-14440000D01*
X42109999Y-13140000D02*
X42110000Y-14190000D01*
X42110000Y-14830000D02*
X42110000Y-14550000D01*
X42390000Y-14550000D01*
X42110000Y-14830000D01*
G36*
X42110000Y-14830000D02*
G01*
X42110000Y-14550000D01*
X42390000Y-14550000D01*
X42110000Y-14830000D01*
G37*
G04 #@! TO.C,U102*
X6257500Y-9560000D02*
X6257500Y-10980000D01*
X7257500Y-9560000D02*
X7127500Y-9560000D01*
X8127500Y-10695568D02*
X8127500Y-9560000D01*
X8322500Y-11130000D02*
X8132499Y-10990000D01*
X8322500Y-10850000D01*
X8322500Y-11130000D01*
G36*
X8322500Y-11130000D02*
G01*
X8132499Y-10990000D01*
X8322500Y-10850000D01*
X8322500Y-11130000D01*
G37*
G04 #@! TO.C,U103*
X34390001Y-87460000D02*
X34390000Y-86410000D01*
X36709999Y-87460000D02*
X36709999Y-86160000D01*
X34390000Y-86050000D02*
X34110000Y-86050000D01*
X34390000Y-85770000D01*
X34390000Y-86050000D01*
G36*
X34390000Y-86050000D02*
G01*
X34110000Y-86050000D01*
X34390000Y-85770000D01*
X34390000Y-86050000D01*
G37*
G04 #@! TO.C,R102*
X21720000Y-12853641D02*
X21720000Y-12546359D01*
X22480000Y-12853641D02*
X22480000Y-12546359D01*
G04 #@! TO.C,Q102*
X50090000Y-10800000D02*
X50090000Y-9400000D01*
X52410000Y-10810000D02*
X52410000Y-9400000D01*
X52690000Y-11420000D02*
X52360000Y-11180000D01*
X52690000Y-10940000D01*
X52690000Y-11420000D01*
G36*
X52690000Y-11420000D02*
G01*
X52360000Y-11180000D01*
X52690000Y-10940000D01*
X52690000Y-11420000D01*
G37*
G04 #@! TO.C,R104*
X37820000Y-43346359D02*
X37820000Y-43653641D01*
X38580000Y-43346359D02*
X38580000Y-43653641D01*
G04 #@! TO.C,U102*
X40572500Y-28304432D02*
X40572500Y-29440000D01*
X41442500Y-29440000D02*
X41572500Y-29440000D01*
X42442500Y-29440000D02*
X42442500Y-28020000D01*
X40567501Y-28010000D02*
X40377500Y-28150000D01*
X40377500Y-27870000D01*
X40567501Y-28010000D01*
G36*
X40567501Y-28010000D02*
G01*
X40377500Y-28150000D01*
X40377500Y-27870000D01*
X40567501Y-28010000D01*
G37*
G04 #@! TO.C,R103*
X13377500Y-55987742D02*
X13377500Y-56462258D01*
X14422500Y-55987742D02*
X14422500Y-56462258D01*
X27277500Y-25187742D02*
X27277500Y-25662258D01*
X28322500Y-25187742D02*
X28322500Y-25662258D01*
G04 #@! TO.C,R106*
X25320000Y-87746359D02*
X25320000Y-88053641D01*
X26080000Y-87746359D02*
X26080000Y-88053641D01*
G04 #@! TO.C,R102*
X40120000Y-26146359D02*
X40120000Y-26453641D01*
X40880000Y-26146359D02*
X40880000Y-26453641D01*
X7820000Y-12853641D02*
X7820000Y-12546359D01*
X8580000Y-12853641D02*
X8580000Y-12546359D01*
G04 #@! TO.C,R104*
X37820000Y-12546359D02*
X37820000Y-12853641D01*
X38580000Y-12546359D02*
X38580000Y-12853641D01*
G04 #@! TO.C,C104*
X50850000Y-56272164D02*
X50850000Y-56487836D01*
X51570000Y-56272164D02*
X51570000Y-56487836D01*
G04 #@! TO.C,R103*
X13377500Y-25187742D02*
X13377500Y-25662258D01*
X14422500Y-25187742D02*
X14422500Y-25662258D01*
G04 #@! TO.C,L101*
X10875000Y-42875000D02*
X10875000Y-39925000D01*
X14325000Y-42875000D02*
X14325000Y-39925000D01*
G04 #@! TO.C,C101*
X53209419Y-54970000D02*
X53490581Y-54970000D01*
X53209419Y-55990000D02*
X53490581Y-55990000D01*
G04 #@! TO.C,Q102*
X51890000Y-89790000D02*
X51890000Y-91200000D01*
X54210000Y-89800000D02*
X54210000Y-91200000D01*
X51940000Y-89420000D02*
X51610000Y-89660000D01*
X51610000Y-89180000D01*
X51940000Y-89420000D01*
G36*
X51940000Y-89420000D02*
G01*
X51610000Y-89660000D01*
X51610000Y-89180000D01*
X51940000Y-89420000D01*
G37*
G04 #@! TO.C,L101*
X6575000Y-88525000D02*
X6575000Y-91475000D01*
X10025000Y-88525000D02*
X10025000Y-91475000D01*
G04 #@! TO.C,R104*
X10120000Y-88053641D02*
X10120000Y-87746359D01*
X10880000Y-88053641D02*
X10880000Y-87746359D01*
G04 #@! TO.C,U102*
X47957500Y-40360000D02*
X47957500Y-41780000D01*
X48957500Y-40360000D02*
X48827500Y-40360000D01*
X49827500Y-41495568D02*
X49827500Y-40360000D01*
X50022500Y-41930000D02*
X49832499Y-41790000D01*
X50022500Y-41650000D01*
X50022500Y-41930000D01*
G36*
X50022500Y-41930000D02*
G01*
X49832499Y-41790000D01*
X50022500Y-41650000D01*
X50022500Y-41930000D01*
G37*
G04 #@! TO.C,C104*
X11030000Y-13527836D02*
X11030000Y-13312164D01*
X11750000Y-13527836D02*
X11750000Y-13312164D01*
G04 #@! TO.C,U102*
X20157500Y-40360000D02*
X20157500Y-41780000D01*
X21157500Y-40360000D02*
X21027500Y-40360000D01*
X22027500Y-41495568D02*
X22027500Y-40360000D01*
X22222500Y-41930000D02*
X22032499Y-41790000D01*
X22222500Y-41650000D01*
X22222500Y-41930000D01*
G36*
X22222500Y-41930000D02*
G01*
X22032499Y-41790000D01*
X22222500Y-41650000D01*
X22222500Y-41930000D01*
G37*
G04 #@! TO.C,AE101*
X80840581Y-12440000D02*
X80559419Y-12440000D01*
X80840581Y-13460000D02*
X80559419Y-13460000D01*
G04 #@! TO.C,Q102*
X50090000Y-41600000D02*
X50090000Y-40200000D01*
X52410000Y-41610000D02*
X52410000Y-40200000D01*
X52690000Y-42220000D02*
X52360000Y-41980000D01*
X52690000Y-41740000D01*
X52690000Y-42220000D01*
G36*
X52690000Y-42220000D02*
G01*
X52360000Y-41980000D01*
X52690000Y-41740000D01*
X52690000Y-42220000D01*
G37*
G04 #@! TO.C,C101*
X39309419Y-24170000D02*
X39590581Y-24170000D01*
X39309419Y-25190000D02*
X39590581Y-25190000D01*
G04 #@! TO.C,Q102*
X24090000Y-28190000D02*
X24090000Y-29600000D01*
X26410000Y-28200000D02*
X26410000Y-29600000D01*
X24140000Y-27820000D02*
X23810000Y-28060000D01*
X23810000Y-27580000D01*
X24140000Y-27820000D01*
G36*
X24140000Y-27820000D02*
G01*
X23810000Y-28060000D01*
X23810000Y-27580000D01*
X24140000Y-27820000D01*
G37*
G04 #@! TO.C,R102*
X40120000Y-56946359D02*
X40120000Y-57253641D01*
X40880000Y-56946359D02*
X40880000Y-57253641D01*
G04 #@! TO.C,AE101*
X80840581Y-34040000D02*
X80559419Y-34040000D01*
X80840581Y-35060000D02*
X80559419Y-35060000D01*
G04 #@! TO.C,L101*
X38675000Y-12075000D02*
X38675000Y-9125000D01*
X42125000Y-12075000D02*
X42125000Y-9125000D01*
X20475000Y-26925000D02*
X20475000Y-29875000D01*
X23925000Y-26925000D02*
X23925000Y-29875000D01*
G04 #@! TO.C,C101*
X37190581Y-13810000D02*
X36909419Y-13810000D01*
X37190581Y-14830000D02*
X36909419Y-14830000D01*
X11509419Y-85770000D02*
X11790581Y-85770000D01*
X11509419Y-86790000D02*
X11790581Y-86790000D01*
G04 #@! TO.C,U102*
X26672500Y-28304432D02*
X26672500Y-29440000D01*
X27542500Y-29440000D02*
X27672500Y-29440000D01*
X28542500Y-29440000D02*
X28542500Y-28020000D01*
X26667501Y-28010000D02*
X26477500Y-28150000D01*
X26477500Y-27870000D01*
X26667501Y-28010000D01*
G36*
X26667501Y-28010000D02*
G01*
X26477500Y-28150000D01*
X26477500Y-27870000D01*
X26667501Y-28010000D01*
G37*
G04 #@! TO.C,L101*
X20475000Y-57725000D02*
X20475000Y-60675000D01*
X23925000Y-57725000D02*
X23925000Y-60675000D01*
G04 #@! TO.C,R103*
X34277500Y-44612258D02*
X34277500Y-44137742D01*
X35322500Y-44612258D02*
X35322500Y-44137742D01*
G04 #@! TO.C,Q102*
X51890000Y-58990000D02*
X51890000Y-60400000D01*
X54210000Y-59000000D02*
X54210000Y-60400000D01*
X51940000Y-58620000D02*
X51610000Y-58860000D01*
X51610000Y-58380000D01*
X51940000Y-58620000D01*
G36*
X51940000Y-58620000D02*
G01*
X51610000Y-58860000D01*
X51610000Y-58380000D01*
X51940000Y-58620000D01*
G37*
G04 #@! TO.C,R103*
X6477500Y-13812258D02*
X6477500Y-13337742D01*
X7522500Y-13812258D02*
X7522500Y-13337742D01*
G04 #@! TO.C,C104*
X36950000Y-87072164D02*
X36950000Y-87287836D01*
X37670000Y-87072164D02*
X37670000Y-87287836D01*
G04 #@! TO.C,AE101*
X80840581Y-55640000D02*
X80559419Y-55640000D01*
X80840581Y-56660000D02*
X80559419Y-56660000D01*
G04 #@! TO.C,Q102*
X8390000Y-72400000D02*
X8390000Y-71000000D01*
X10710000Y-72410000D02*
X10710000Y-71000000D01*
X10990000Y-73020000D02*
X10660000Y-72780000D01*
X10990000Y-72540000D01*
X10990000Y-73020000D01*
G36*
X10990000Y-73020000D02*
G01*
X10660000Y-72780000D01*
X10990000Y-72540000D01*
X10990000Y-73020000D01*
G37*
G04 #@! TO.C,R106*
X53120000Y-56946359D02*
X53120000Y-57253641D01*
X53880000Y-56946359D02*
X53880000Y-57253641D01*
G04 #@! TO.C,L101*
X10875000Y-73675000D02*
X10875000Y-70725000D01*
X14325000Y-73675000D02*
X14325000Y-70725000D01*
G04 #@! TO.C,AE101*
X80840581Y-62840000D02*
X80559419Y-62840000D01*
X80840581Y-63860000D02*
X80559419Y-63860000D01*
G04 #@! TO.C,R104*
X51720000Y-12546359D02*
X51720000Y-12853641D01*
X52480000Y-12546359D02*
X52480000Y-12853641D01*
G04 #@! TO.C,L101*
X24775000Y-73675000D02*
X24775000Y-70725000D01*
X28225000Y-73675000D02*
X28225000Y-70725000D01*
G04 #@! TO.C,U102*
X12772500Y-28304432D02*
X12772500Y-29440000D01*
X13642500Y-29440000D02*
X13772500Y-29440000D01*
X14642500Y-29440000D02*
X14642500Y-28020000D01*
X12767501Y-28010000D02*
X12577500Y-28150000D01*
X12577500Y-27870000D01*
X12767501Y-28010000D01*
G36*
X12767501Y-28010000D02*
G01*
X12577500Y-28150000D01*
X12577500Y-27870000D01*
X12767501Y-28010000D01*
G37*
G04 #@! TO.C,R103*
X55077500Y-86787742D02*
X55077500Y-87262258D01*
X56122500Y-86787742D02*
X56122500Y-87262258D01*
G04 #@! TO.C,R104*
X51720000Y-43346359D02*
X51720000Y-43653641D01*
X52480000Y-43346359D02*
X52480000Y-43653641D01*
G04 #@! TO.C,C104*
X9150000Y-25472164D02*
X9150000Y-25687836D01*
X9870000Y-25472164D02*
X9870000Y-25687836D01*
G04 #@! TO.C,R106*
X22620000Y-74453641D02*
X22620000Y-74146359D01*
X23380000Y-74453641D02*
X23380000Y-74146359D01*
G04 #@! TO.C,C104*
X52730000Y-44327836D02*
X52730000Y-44112164D01*
X53450000Y-44327836D02*
X53450000Y-44112164D01*
G04 #@! TO.C,U102*
X6257500Y-71160000D02*
X6257500Y-72580000D01*
X7257500Y-71160000D02*
X7127500Y-71160000D01*
X8127500Y-72295568D02*
X8127500Y-71160000D01*
X8322500Y-72730000D02*
X8132499Y-72590000D01*
X8322500Y-72450000D01*
X8322500Y-72730000D01*
G36*
X8322500Y-72730000D02*
G01*
X8132499Y-72590000D01*
X8322500Y-72450000D01*
X8322500Y-72730000D01*
G37*
G04 #@! TO.C,AE101*
X65440581Y-62840000D02*
X65159419Y-62840000D01*
X65440581Y-63860000D02*
X65159419Y-63860000D01*
G04 #@! TO.C,C101*
X11509419Y-24170000D02*
X11790581Y-24170000D01*
X11509419Y-25190000D02*
X11790581Y-25190000D01*
G04 #@! TO.C,C104*
X11030000Y-44327836D02*
X11030000Y-44112164D01*
X11750000Y-44327836D02*
X11750000Y-44112164D01*
G04 #@! TO.C,R103*
X34277500Y-13812258D02*
X34277500Y-13337742D01*
X35322500Y-13812258D02*
X35322500Y-13337742D01*
X20377500Y-75412258D02*
X20377500Y-74937742D01*
X21422500Y-75412258D02*
X21422500Y-74937742D01*
G04 #@! TO.C,AE101*
X65440581Y-12440000D02*
X65159419Y-12440000D01*
X65440581Y-13460000D02*
X65159419Y-13460000D01*
G04 #@! TO.C,R102*
X12320000Y-87746359D02*
X12320000Y-88053641D01*
X13080000Y-87746359D02*
X13080000Y-88053641D01*
G04 #@! TO.C,L101*
X34375000Y-57725000D02*
X34375000Y-60675000D01*
X37825000Y-57725000D02*
X37825000Y-60675000D01*
G04 #@! TO.C,R104*
X51720000Y-74146359D02*
X51720000Y-74453641D01*
X52480000Y-74146359D02*
X52480000Y-74453641D01*
G04 #@! TO.C,U103*
X34390001Y-25860000D02*
X34390000Y-24810000D01*
X36709999Y-25860000D02*
X36709999Y-24560000D01*
X34390000Y-24450000D02*
X34110000Y-24450000D01*
X34390000Y-24170000D01*
X34390000Y-24450000D01*
G36*
X34390000Y-24450000D02*
G01*
X34110000Y-24450000D01*
X34390000Y-24170000D01*
X34390000Y-24450000D01*
G37*
X11990001Y-43940000D02*
X11990001Y-45240000D01*
X14309999Y-43940000D02*
X14310000Y-44990000D01*
X14310000Y-45630000D02*
X14310000Y-45350000D01*
X14590000Y-45350000D01*
X14310000Y-45630000D01*
G36*
X14310000Y-45630000D02*
G01*
X14310000Y-45350000D01*
X14590000Y-45350000D01*
X14310000Y-45630000D01*
G37*
G04 #@! TO.C,R106*
X36520000Y-74453641D02*
X36520000Y-74146359D01*
X37280000Y-74453641D02*
X37280000Y-74146359D01*
G04 #@! TO.C,L101*
X6575000Y-26925000D02*
X6575000Y-29875000D01*
X10025000Y-26925000D02*
X10025000Y-29875000D01*
G04 #@! TO.C,R102*
X7820000Y-74453641D02*
X7820000Y-74146359D01*
X8580000Y-74453641D02*
X8580000Y-74146359D01*
G04 #@! TO.C,AE101*
X80840581Y-41240000D02*
X80559419Y-41240000D01*
X80840581Y-42260000D02*
X80559419Y-42260000D01*
G04 #@! TO.C,L101*
X20475000Y-88525000D02*
X20475000Y-91475000D01*
X23925000Y-88525000D02*
X23925000Y-91475000D01*
X52575000Y-42875000D02*
X52575000Y-39925000D01*
X56025000Y-42875000D02*
X56025000Y-39925000D01*
G04 #@! TO.C,R104*
X51820000Y-26453641D02*
X51820000Y-26146359D01*
X52580000Y-26453641D02*
X52580000Y-26146359D01*
G04 #@! TO.C,R102*
X12320000Y-56946359D02*
X12320000Y-57253641D01*
X13080000Y-56946359D02*
X13080000Y-57253641D01*
G04 #@! TO.C,C104*
X23050000Y-56272164D02*
X23050000Y-56487836D01*
X23770000Y-56272164D02*
X23770000Y-56487836D01*
G04 #@! TO.C,U102*
X40572500Y-89904432D02*
X40572500Y-91040000D01*
X41442500Y-91040000D02*
X41572500Y-91040000D01*
X42442500Y-91040000D02*
X42442500Y-89620000D01*
X40567501Y-89610000D02*
X40377500Y-89750000D01*
X40377500Y-89470000D01*
X40567501Y-89610000D01*
G36*
X40567501Y-89610000D02*
G01*
X40377500Y-89750000D01*
X40377500Y-89470000D01*
X40567501Y-89610000D01*
G37*
G04 #@! TO.C,Q102*
X10190000Y-89790000D02*
X10190000Y-91200000D01*
X12510000Y-89800000D02*
X12510000Y-91200000D01*
X10240000Y-89420000D02*
X9910000Y-89660000D01*
X9910000Y-89180000D01*
X10240000Y-89420000D01*
G36*
X10240000Y-89420000D02*
G01*
X9910000Y-89660000D01*
X9910000Y-89180000D01*
X10240000Y-89420000D01*
G37*
G04 #@! TO.C,AE101*
X80840581Y-19640000D02*
X80559419Y-19640000D01*
X80840581Y-20660000D02*
X80559419Y-20660000D01*
G04 #@! TO.C,R102*
X54020000Y-87746359D02*
X54020000Y-88053641D01*
X54780000Y-87746359D02*
X54780000Y-88053641D01*
G04 #@! TO.C,R104*
X10020000Y-74146359D02*
X10020000Y-74453641D01*
X10780000Y-74146359D02*
X10780000Y-74453641D01*
G04 #@! TO.C,Q102*
X22290000Y-72400000D02*
X22290000Y-71000000D01*
X24610000Y-72410000D02*
X24610000Y-71000000D01*
X24890000Y-73020000D02*
X24560000Y-72780000D01*
X24890000Y-72540000D01*
X24890000Y-73020000D01*
G36*
X24890000Y-73020000D02*
G01*
X24560000Y-72780000D01*
X24890000Y-72540000D01*
X24890000Y-73020000D01*
G37*
G04 #@! TO.C,R102*
X54020000Y-26146359D02*
X54020000Y-26453641D01*
X54780000Y-26146359D02*
X54780000Y-26453641D01*
G04 #@! TO.C,R103*
X48177500Y-44612258D02*
X48177500Y-44137742D01*
X49222500Y-44612258D02*
X49222500Y-44137742D01*
G04 #@! TO.C,L101*
X48275000Y-88525000D02*
X48275000Y-91475000D01*
X51725000Y-88525000D02*
X51725000Y-91475000D01*
G04 #@! TO.C,U102*
X54472500Y-89904432D02*
X54472500Y-91040000D01*
X55342500Y-91040000D02*
X55472500Y-91040000D01*
X56342500Y-91040000D02*
X56342500Y-89620000D01*
X54467501Y-89610000D02*
X54277500Y-89750000D01*
X54277500Y-89470000D01*
X54467501Y-89610000D01*
G36*
X54467501Y-89610000D02*
G01*
X54277500Y-89750000D01*
X54277500Y-89470000D01*
X54467501Y-89610000D01*
G37*
G04 #@! TO.C,U103*
X25890001Y-43940000D02*
X25890001Y-45240000D01*
X28209999Y-43940000D02*
X28210000Y-44990000D01*
X28210000Y-45630000D02*
X28210000Y-45350000D01*
X28490000Y-45350000D01*
X28210000Y-45630000D01*
G36*
X28210000Y-45630000D02*
G01*
X28210000Y-45350000D01*
X28490000Y-45350000D01*
X28210000Y-45630000D01*
G37*
G04 #@! TO.C,R106*
X25320000Y-26146359D02*
X25320000Y-26453641D01*
X26080000Y-26146359D02*
X26080000Y-26453641D01*
G04 #@! TO.C,R104*
X24020000Y-26453641D02*
X24020000Y-26146359D01*
X24780000Y-26453641D02*
X24780000Y-26146359D01*
G04 #@! TO.C,R106*
X25320000Y-56946359D02*
X25320000Y-57253641D01*
X26080000Y-56946359D02*
X26080000Y-57253641D01*
G04 #@! TO.C,C104*
X50850000Y-25472164D02*
X50850000Y-25687836D01*
X51570000Y-25472164D02*
X51570000Y-25687836D01*
G04 #@! TO.C,C101*
X37190581Y-44610000D02*
X36909419Y-44610000D01*
X37190581Y-45630000D02*
X36909419Y-45630000D01*
G04 #@! TO.C,AE101*
X65440581Y-48440000D02*
X65159419Y-48440000D01*
X65440581Y-49460000D02*
X65159419Y-49460000D01*
G04 #@! TO.C,R103*
X6477500Y-44612258D02*
X6477500Y-44137742D01*
X7522500Y-44612258D02*
X7522500Y-44137742D01*
X13377500Y-86787742D02*
X13377500Y-87262258D01*
X14422500Y-86787742D02*
X14422500Y-87262258D01*
X48177500Y-13812258D02*
X48177500Y-13337742D01*
X49222500Y-13812258D02*
X49222500Y-13337742D01*
G04 #@! TO.C,L101*
X10875000Y-12075000D02*
X10875000Y-9125000D01*
X14325000Y-12075000D02*
X14325000Y-9125000D01*
G04 #@! TO.C,R103*
X6477500Y-75412258D02*
X6477500Y-74937742D01*
X7522500Y-75412258D02*
X7522500Y-74937742D01*
G04 #@! TO.C,U103*
X48290001Y-87460000D02*
X48290000Y-86410000D01*
X50609999Y-87460000D02*
X50609999Y-86160000D01*
X48290000Y-86050000D02*
X48010000Y-86050000D01*
X48290000Y-85770000D01*
X48290000Y-86050000D01*
G36*
X48290000Y-86050000D02*
G01*
X48010000Y-86050000D01*
X48290000Y-85770000D01*
X48290000Y-86050000D01*
G37*
G04 #@! TO.C,R104*
X37820000Y-74146359D02*
X37820000Y-74453641D01*
X38580000Y-74146359D02*
X38580000Y-74453641D01*
G04 #@! TO.C,R102*
X35620000Y-12853641D02*
X35620000Y-12546359D01*
X36380000Y-12853641D02*
X36380000Y-12546359D01*
G04 #@! TO.C,L101*
X52575000Y-12075000D02*
X52575000Y-9125000D01*
X56025000Y-12075000D02*
X56025000Y-9125000D01*
G04 #@! TO.C,R103*
X27277500Y-86787742D02*
X27277500Y-87262258D01*
X28322500Y-86787742D02*
X28322500Y-87262258D01*
G04 #@! TO.C,C101*
X25409419Y-24170000D02*
X25690581Y-24170000D01*
X25409419Y-25190000D02*
X25690581Y-25190000D01*
G04 #@! TO.C,R106*
X36520000Y-12853641D02*
X36520000Y-12546359D01*
X37280000Y-12853641D02*
X37280000Y-12546359D01*
G04 #@! TO.C,C101*
X53209419Y-24170000D02*
X53490581Y-24170000D01*
X53209419Y-25190000D02*
X53490581Y-25190000D01*
G04 #@! TO.C,C104*
X52730000Y-13527836D02*
X52730000Y-13312164D01*
X53450000Y-13527836D02*
X53450000Y-13312164D01*
G04 #@! TO.C,Q102*
X36190000Y-10800000D02*
X36190000Y-9400000D01*
X38510000Y-10810000D02*
X38510000Y-9400000D01*
X38790000Y-11420000D02*
X38460000Y-11180000D01*
X38790000Y-10940000D01*
X38790000Y-11420000D01*
G36*
X38790000Y-11420000D02*
G01*
X38460000Y-11180000D01*
X38790000Y-10940000D01*
X38790000Y-11420000D01*
G37*
G04 #@! TO.C,R104*
X37920000Y-88053641D02*
X37920000Y-87746359D01*
X38680000Y-88053641D02*
X38680000Y-87746359D01*
G04 #@! TO.C,AE101*
X80840581Y-91640000D02*
X80559419Y-91640000D01*
X80840581Y-92660000D02*
X80559419Y-92660000D01*
G04 #@! TO.C,L101*
X24775000Y-42875000D02*
X24775000Y-39925000D01*
X28225000Y-42875000D02*
X28225000Y-39925000D01*
G04 #@! TO.C,U102*
X54472500Y-59104432D02*
X54472500Y-60240000D01*
X55342500Y-60240000D02*
X55472500Y-60240000D01*
X56342500Y-60240000D02*
X56342500Y-58820000D01*
X54467501Y-58810000D02*
X54277500Y-58950000D01*
X54277500Y-58670000D01*
X54467501Y-58810000D01*
G36*
X54467501Y-58810000D02*
G01*
X54277500Y-58950000D01*
X54277500Y-58670000D01*
X54467501Y-58810000D01*
G37*
G04 #@! TO.C,R104*
X24020000Y-88053641D02*
X24020000Y-87746359D01*
X24780000Y-88053641D02*
X24780000Y-87746359D01*
X23920000Y-43346359D02*
X23920000Y-43653641D01*
X24680000Y-43346359D02*
X24680000Y-43653641D01*
G04 #@! TO.C,R103*
X41177500Y-25187742D02*
X41177500Y-25662258D01*
X42222500Y-25187742D02*
X42222500Y-25662258D01*
G04 #@! TO.C,U103*
X11990001Y-74740000D02*
X11990001Y-76040000D01*
X14309999Y-74740000D02*
X14310000Y-75790000D01*
X14310000Y-76430000D02*
X14310000Y-76150000D01*
X14590000Y-76150000D01*
X14310000Y-76430000D01*
G36*
X14310000Y-76430000D02*
G01*
X14310000Y-76150000D01*
X14590000Y-76150000D01*
X14310000Y-76430000D01*
G37*
G04 #@! TO.C,AE101*
X65440581Y-84440000D02*
X65159419Y-84440000D01*
X65440581Y-85460000D02*
X65159419Y-85460000D01*
G04 #@! TO.C,R106*
X22620000Y-12853641D02*
X22620000Y-12546359D01*
X23380000Y-12853641D02*
X23380000Y-12546359D01*
G04 #@! TO.C,R103*
X55077500Y-55987742D02*
X55077500Y-56462258D01*
X56122500Y-55987742D02*
X56122500Y-56462258D01*
G04 #@! TO.C,Q102*
X36190000Y-41600000D02*
X36190000Y-40200000D01*
X38510000Y-41610000D02*
X38510000Y-40200000D01*
X38790000Y-42220000D02*
X38460000Y-41980000D01*
X38790000Y-41740000D01*
X38790000Y-42220000D01*
G36*
X38790000Y-42220000D02*
G01*
X38460000Y-41980000D01*
X38790000Y-41740000D01*
X38790000Y-42220000D01*
G37*
G04 #@! TO.C,R106*
X50420000Y-12853641D02*
X50420000Y-12546359D01*
X51180000Y-12853641D02*
X51180000Y-12546359D01*
G04 #@! TO.C,Q102*
X37990000Y-58990000D02*
X37990000Y-60400000D01*
X40310000Y-59000000D02*
X40310000Y-60400000D01*
X38040000Y-58620000D02*
X37710000Y-58860000D01*
X37710000Y-58380000D01*
X38040000Y-58620000D01*
G36*
X38040000Y-58620000D02*
G01*
X37710000Y-58860000D01*
X37710000Y-58380000D01*
X38040000Y-58620000D01*
G37*
G04 #@! TO.C,U103*
X6590001Y-56660000D02*
X6590000Y-55610000D01*
X8909999Y-56660000D02*
X8909999Y-55360000D01*
X6590000Y-55250000D02*
X6310000Y-55250000D01*
X6590000Y-54970000D01*
X6590000Y-55250000D01*
G36*
X6590000Y-55250000D02*
G01*
X6310000Y-55250000D01*
X6590000Y-54970000D01*
X6590000Y-55250000D01*
G37*
X25890001Y-74740000D02*
X25890001Y-76040000D01*
X28209999Y-74740000D02*
X28210000Y-75790000D01*
X28210000Y-76430000D02*
X28210000Y-76150000D01*
X28490000Y-76150000D01*
X28210000Y-76430000D01*
G36*
X28210000Y-76430000D02*
G01*
X28210000Y-76150000D01*
X28490000Y-76150000D01*
X28210000Y-76430000D01*
G37*
G04 #@! TO.C,R104*
X51820000Y-88053641D02*
X51820000Y-87746359D01*
X52580000Y-88053641D02*
X52580000Y-87746359D01*
G04 #@! TO.C,Q102*
X24090000Y-89790000D02*
X24090000Y-91200000D01*
X26410000Y-89800000D02*
X26410000Y-91200000D01*
X24140000Y-89420000D02*
X23810000Y-89660000D01*
X23810000Y-89180000D01*
X24140000Y-89420000D01*
G36*
X24140000Y-89420000D02*
G01*
X23810000Y-89660000D01*
X23810000Y-89180000D01*
X24140000Y-89420000D01*
G37*
G04 #@! TO.C,C104*
X38830000Y-44327836D02*
X38830000Y-44112164D01*
X39550000Y-44327836D02*
X39550000Y-44112164D01*
G04 #@! TO.C,R102*
X26220000Y-26146359D02*
X26220000Y-26453641D01*
X26980000Y-26146359D02*
X26980000Y-26453641D01*
G04 #@! TO.C,R106*
X50420000Y-74453641D02*
X50420000Y-74146359D01*
X51180000Y-74453641D02*
X51180000Y-74146359D01*
G04 #@! TO.C,U103*
X39790001Y-43940000D02*
X39790001Y-45240000D01*
X42109999Y-43940000D02*
X42110000Y-44990000D01*
X42110000Y-45630000D02*
X42110000Y-45350000D01*
X42390000Y-45350000D01*
X42110000Y-45630000D01*
G36*
X42110000Y-45630000D02*
G01*
X42110000Y-45350000D01*
X42390000Y-45350000D01*
X42110000Y-45630000D01*
G37*
G04 #@! TO.C,R103*
X20377500Y-44612258D02*
X20377500Y-44137742D01*
X21422500Y-44612258D02*
X21422500Y-44137742D01*
G04 #@! TO.C,U102*
X34057500Y-40360000D02*
X34057500Y-41780000D01*
X35057500Y-40360000D02*
X34927500Y-40360000D01*
X35927500Y-41495568D02*
X35927500Y-40360000D01*
X36122500Y-41930000D02*
X35932499Y-41790000D01*
X36122500Y-41650000D01*
X36122500Y-41930000D01*
G36*
X36122500Y-41930000D02*
G01*
X35932499Y-41790000D01*
X36122500Y-41650000D01*
X36122500Y-41930000D01*
G37*
G04 #@! TO.C,L101*
X38675000Y-73675000D02*
X38675000Y-70725000D01*
X42125000Y-73675000D02*
X42125000Y-70725000D01*
G04 #@! TO.C,C104*
X50850000Y-87072164D02*
X50850000Y-87287836D01*
X51570000Y-87072164D02*
X51570000Y-87287836D01*
G04 #@! TO.C,U102*
X40572500Y-59104432D02*
X40572500Y-60240000D01*
X41442500Y-60240000D02*
X41572500Y-60240000D01*
X42442500Y-60240000D02*
X42442500Y-58820000D01*
X40567501Y-58810000D02*
X40377500Y-58950000D01*
X40377500Y-58670000D01*
X40567501Y-58810000D01*
G36*
X40567501Y-58810000D02*
G01*
X40377500Y-58950000D01*
X40377500Y-58670000D01*
X40567501Y-58810000D01*
G37*
G04 #@! TO.C,R104*
X51820000Y-57253641D02*
X51820000Y-56946359D01*
X52580000Y-57253641D02*
X52580000Y-56946359D01*
G04 #@! TO.C,U102*
X6257500Y-40360000D02*
X6257500Y-41780000D01*
X7257500Y-40360000D02*
X7127500Y-40360000D01*
X8127500Y-41495568D02*
X8127500Y-40360000D01*
X8322500Y-41930000D02*
X8132499Y-41790000D01*
X8322500Y-41650000D01*
X8322500Y-41930000D01*
G36*
X8322500Y-41930000D02*
G01*
X8132499Y-41790000D01*
X8322500Y-41650000D01*
X8322500Y-41930000D01*
G37*
G04 #@! TO.C,C104*
X23050000Y-87072164D02*
X23050000Y-87287836D01*
X23770000Y-87072164D02*
X23770000Y-87287836D01*
G04 #@! TO.C,Q102*
X10190000Y-28190000D02*
X10190000Y-29600000D01*
X12510000Y-28200000D02*
X12510000Y-29600000D01*
X10240000Y-27820000D02*
X9910000Y-28060000D01*
X9910000Y-27580000D01*
X10240000Y-27820000D01*
G36*
X10240000Y-27820000D02*
G01*
X9910000Y-28060000D01*
X9910000Y-27580000D01*
X10240000Y-27820000D01*
G37*
X8390000Y-41600000D02*
X8390000Y-40200000D01*
X10710000Y-41610000D02*
X10710000Y-40200000D01*
X10990000Y-42220000D02*
X10660000Y-41980000D01*
X10990000Y-41740000D01*
X10990000Y-42220000D01*
G36*
X10990000Y-42220000D02*
G01*
X10660000Y-41980000D01*
X10990000Y-41740000D01*
X10990000Y-42220000D01*
G37*
G04 #@! TO.C,C104*
X36950000Y-56272164D02*
X36950000Y-56487836D01*
X37670000Y-56272164D02*
X37670000Y-56487836D01*
G04 #@! TO.C,R106*
X11420000Y-26146359D02*
X11420000Y-26453641D01*
X12180000Y-26146359D02*
X12180000Y-26453641D01*
G04 #@! TO.C,R103*
X20377500Y-13812258D02*
X20377500Y-13337742D01*
X21422500Y-13812258D02*
X21422500Y-13337742D01*
G04 #@! TO.C,R106*
X36520000Y-43653641D02*
X36520000Y-43346359D01*
X37280000Y-43653641D02*
X37280000Y-43346359D01*
G04 #@! TO.C,Q102*
X10190000Y-58990000D02*
X10190000Y-60400000D01*
X12510000Y-59000000D02*
X12510000Y-60400000D01*
X10240000Y-58620000D02*
X9910000Y-58860000D01*
X9910000Y-58380000D01*
X10240000Y-58620000D01*
G36*
X10240000Y-58620000D02*
G01*
X9910000Y-58860000D01*
X9910000Y-58380000D01*
X10240000Y-58620000D01*
G37*
G04 #@! TO.C,C104*
X9150000Y-56272164D02*
X9150000Y-56487836D01*
X9870000Y-56272164D02*
X9870000Y-56487836D01*
G04 #@! TO.C,AE101*
X65440581Y-70040000D02*
X65159419Y-70040000D01*
X65440581Y-71060000D02*
X65159419Y-71060000D01*
G04 #@! TO.C,R104*
X23920000Y-12546359D02*
X23920000Y-12853641D01*
X24680000Y-12546359D02*
X24680000Y-12853641D01*
X10020000Y-43346359D02*
X10020000Y-43653641D01*
X10780000Y-43346359D02*
X10780000Y-43653641D01*
G04 #@! TO.C,C104*
X36950000Y-25472164D02*
X36950000Y-25687836D01*
X37670000Y-25472164D02*
X37670000Y-25687836D01*
G04 #@! TO.C,U103*
X20490001Y-25860000D02*
X20490000Y-24810000D01*
X22809999Y-25860000D02*
X22809999Y-24560000D01*
X20490000Y-24450000D02*
X20210000Y-24450000D01*
X20490000Y-24170000D01*
X20490000Y-24450000D01*
G36*
X20490000Y-24450000D02*
G01*
X20210000Y-24450000D01*
X20490000Y-24170000D01*
X20490000Y-24450000D01*
G37*
G04 #@! TO.C,C101*
X23290581Y-13810000D02*
X23009419Y-13810000D01*
X23290581Y-14830000D02*
X23009419Y-14830000D01*
G04 #@! TO.C,R102*
X49520000Y-43653641D02*
X49520000Y-43346359D01*
X50280000Y-43653641D02*
X50280000Y-43346359D01*
X54020000Y-56946359D02*
X54020000Y-57253641D01*
X54780000Y-56946359D02*
X54780000Y-57253641D01*
G04 #@! TO.C,C104*
X24930000Y-13527836D02*
X24930000Y-13312164D01*
X25650000Y-13527836D02*
X25650000Y-13312164D01*
G04 #@! TO.C,R106*
X39220000Y-87746359D02*
X39220000Y-88053641D01*
X39980000Y-87746359D02*
X39980000Y-88053641D01*
G04 #@! TO.C,U103*
X48290001Y-25860000D02*
X48290000Y-24810000D01*
X50609999Y-25860000D02*
X50609999Y-24560000D01*
X48290000Y-24450000D02*
X48010000Y-24450000D01*
X48290000Y-24170000D01*
X48290000Y-24450000D01*
G36*
X48290000Y-24450000D02*
G01*
X48010000Y-24450000D01*
X48290000Y-24170000D01*
X48290000Y-24450000D01*
G37*
G04 #@! TO.C,AE101*
X80840581Y-77240000D02*
X80559419Y-77240000D01*
X80840581Y-78260000D02*
X80559419Y-78260000D01*
G04 #@! TO.C,R103*
X34277500Y-75412258D02*
X34277500Y-74937742D01*
X35322500Y-75412258D02*
X35322500Y-74937742D01*
G04 #@! TO.C,Q102*
X22290000Y-41600000D02*
X22290000Y-40200000D01*
X24610000Y-41610000D02*
X24610000Y-40200000D01*
X24890000Y-42220000D02*
X24560000Y-41980000D01*
X24890000Y-41740000D01*
X24890000Y-42220000D01*
G36*
X24890000Y-42220000D02*
G01*
X24560000Y-41980000D01*
X24890000Y-41740000D01*
X24890000Y-42220000D01*
G37*
G04 #@! TO.C,AE101*
X80840581Y-84440000D02*
X80559419Y-84440000D01*
X80840581Y-85460000D02*
X80559419Y-85460000D01*
G04 #@! TO.C,C104*
X11030000Y-75127836D02*
X11030000Y-74912164D01*
X11750000Y-75127836D02*
X11750000Y-74912164D01*
G04 #@! TO.C,L101*
X34375000Y-26925000D02*
X34375000Y-29875000D01*
X37825000Y-26925000D02*
X37825000Y-29875000D01*
G04 #@! TO.C,Q102*
X8390000Y-10800000D02*
X8390000Y-9400000D01*
X10710000Y-10810000D02*
X10710000Y-9400000D01*
X10990000Y-11420000D02*
X10660000Y-11180000D01*
X10990000Y-10940000D01*
X10990000Y-11420000D01*
G36*
X10990000Y-11420000D02*
G01*
X10660000Y-11180000D01*
X10990000Y-10940000D01*
X10990000Y-11420000D01*
G37*
G04 #@! TO.C,U103*
X53690001Y-13140000D02*
X53690001Y-14440000D01*
X56009999Y-13140000D02*
X56010000Y-14190000D01*
X56010000Y-14830000D02*
X56010000Y-14550000D01*
X56290000Y-14550000D01*
X56010000Y-14830000D01*
G36*
X56010000Y-14830000D02*
G01*
X56010000Y-14550000D01*
X56290000Y-14550000D01*
X56010000Y-14830000D01*
G37*
G04 #@! TO.C,L101*
X48275000Y-26925000D02*
X48275000Y-29875000D01*
X51725000Y-26925000D02*
X51725000Y-29875000D01*
G04 #@! TO.C,C101*
X39309419Y-54970000D02*
X39590581Y-54970000D01*
X39309419Y-55990000D02*
X39590581Y-55990000D01*
G04 #@! TO.C,C104*
X24930000Y-75127836D02*
X24930000Y-74912164D01*
X25650000Y-75127836D02*
X25650000Y-74912164D01*
G04 #@! TO.C,C101*
X23290581Y-44610000D02*
X23009419Y-44610000D01*
X23290581Y-45630000D02*
X23009419Y-45630000D01*
G04 #@! TO.C,R106*
X39220000Y-56946359D02*
X39220000Y-57253641D01*
X39980000Y-56946359D02*
X39980000Y-57253641D01*
X11420000Y-56946359D02*
X11420000Y-57253641D01*
X12180000Y-56946359D02*
X12180000Y-57253641D01*
G04 #@! TO.C,L101*
X52575000Y-73675000D02*
X52575000Y-70725000D01*
X56025000Y-73675000D02*
X56025000Y-70725000D01*
G04 #@! TO.C,R102*
X49520000Y-12853641D02*
X49520000Y-12546359D01*
X50280000Y-12853641D02*
X50280000Y-12546359D01*
G04 #@! TO.C,C104*
X52730000Y-75127836D02*
X52730000Y-74912164D01*
X53450000Y-75127836D02*
X53450000Y-74912164D01*
G04 #@! TO.C,U103*
X20490001Y-87460000D02*
X20490000Y-86410000D01*
X22809999Y-87460000D02*
X22809999Y-86160000D01*
X20490000Y-86050000D02*
X20210000Y-86050000D01*
X20490000Y-85770000D01*
X20490000Y-86050000D01*
G36*
X20490000Y-86050000D02*
G01*
X20210000Y-86050000D01*
X20490000Y-85770000D01*
X20490000Y-86050000D01*
G37*
G04 #@! TO.C,R103*
X27277500Y-55987742D02*
X27277500Y-56462258D01*
X28322500Y-55987742D02*
X28322500Y-56462258D01*
G04 #@! TO.C,R104*
X10120000Y-26453641D02*
X10120000Y-26146359D01*
X10880000Y-26453641D02*
X10880000Y-26146359D01*
G04 #@! TO.C,C104*
X24930000Y-44327836D02*
X24930000Y-44112164D01*
X25650000Y-44327836D02*
X25650000Y-44112164D01*
G04 #@! TO.C,AE101*
X65440581Y-41240000D02*
X65159419Y-41240000D01*
X65440581Y-42260000D02*
X65159419Y-42260000D01*
G04 #@! TO.C,C104*
X38830000Y-13527836D02*
X38830000Y-13312164D01*
X39550000Y-13527836D02*
X39550000Y-13312164D01*
G04 #@! TO.C,Q102*
X37990000Y-28190000D02*
X37990000Y-29600000D01*
X40310000Y-28200000D02*
X40310000Y-29600000D01*
X38040000Y-27820000D02*
X37710000Y-28060000D01*
X37710000Y-27580000D01*
X38040000Y-27820000D01*
G36*
X38040000Y-27820000D02*
G01*
X37710000Y-28060000D01*
X37710000Y-27580000D01*
X38040000Y-27820000D01*
G37*
G04 #@! TO.C,C101*
X25409419Y-85770000D02*
X25690581Y-85770000D01*
X25409419Y-86790000D02*
X25690581Y-86790000D01*
G04 #@! TO.C,R104*
X37920000Y-57253641D02*
X37920000Y-56946359D01*
X38680000Y-57253641D02*
X38680000Y-56946359D01*
G04 #@! TO.C,R103*
X48177500Y-75412258D02*
X48177500Y-74937742D01*
X49222500Y-75412258D02*
X49222500Y-74937742D01*
G04 #@! TO.C,AE101*
X65440581Y-26840000D02*
X65159419Y-26840000D01*
X65440581Y-27860000D02*
X65159419Y-27860000D01*
G04 #@! TO.C,R106*
X8720000Y-74453641D02*
X8720000Y-74146359D01*
X9480000Y-74453641D02*
X9480000Y-74146359D01*
G04 #@! TO.C,U102*
X34057500Y-9560000D02*
X34057500Y-10980000D01*
X35057500Y-9560000D02*
X34927500Y-9560000D01*
X35927500Y-10695568D02*
X35927500Y-9560000D01*
X36122500Y-11130000D02*
X35932499Y-10990000D01*
X36122500Y-10850000D01*
X36122500Y-11130000D01*
G36*
X36122500Y-11130000D02*
G01*
X35932499Y-10990000D01*
X36122500Y-10850000D01*
X36122500Y-11130000D01*
G37*
G04 #@! TO.C,C101*
X25409419Y-54970000D02*
X25690581Y-54970000D01*
X25409419Y-55990000D02*
X25690581Y-55990000D01*
G04 #@! TO.C,U102*
X26672500Y-59104432D02*
X26672500Y-60240000D01*
X27542500Y-60240000D02*
X27672500Y-60240000D01*
X28542500Y-60240000D02*
X28542500Y-58820000D01*
X26667501Y-58810000D02*
X26477500Y-58950000D01*
X26477500Y-58670000D01*
X26667501Y-58810000D01*
G36*
X26667501Y-58810000D02*
G01*
X26477500Y-58950000D01*
X26477500Y-58670000D01*
X26667501Y-58810000D01*
G37*
G04 #@! TO.C,AE101*
X65440581Y-77240000D02*
X65159419Y-77240000D01*
X65440581Y-78260000D02*
X65159419Y-78260000D01*
G04 #@! TO.C,R102*
X12320000Y-26146359D02*
X12320000Y-26453641D01*
X13080000Y-26146359D02*
X13080000Y-26453641D01*
G04 #@! TO.C,U103*
X6590001Y-25860000D02*
X6590000Y-24810000D01*
X8909999Y-25860000D02*
X8909999Y-24560000D01*
X6590000Y-24450000D02*
X6310000Y-24450000D01*
X6590000Y-24170000D01*
X6590000Y-24450000D01*
G36*
X6590000Y-24450000D02*
G01*
X6310000Y-24450000D01*
X6590000Y-24170000D01*
X6590000Y-24450000D01*
G37*
G04 #@! TO.C,R102*
X7820000Y-43653641D02*
X7820000Y-43346359D01*
X8580000Y-43653641D02*
X8580000Y-43346359D01*
G04 #@! TO.C,C104*
X38830000Y-75127836D02*
X38830000Y-74912164D01*
X39550000Y-75127836D02*
X39550000Y-74912164D01*
G04 #@! TO.C,R103*
X55077500Y-25187742D02*
X55077500Y-25662258D01*
X56122500Y-25187742D02*
X56122500Y-25662258D01*
G04 #@! TO.C,AE101*
X65440581Y-55640000D02*
X65159419Y-55640000D01*
X65440581Y-56660000D02*
X65159419Y-56660000D01*
G04 #@! TO.C,R104*
X10020000Y-12546359D02*
X10020000Y-12853641D01*
X10780000Y-12546359D02*
X10780000Y-12853641D01*
G04 #@! TO.C,U102*
X20157500Y-71160000D02*
X20157500Y-72580000D01*
X21157500Y-71160000D02*
X21027500Y-71160000D01*
X22027500Y-72295568D02*
X22027500Y-71160000D01*
X22222500Y-72730000D02*
X22032499Y-72590000D01*
X22222500Y-72450000D01*
X22222500Y-72730000D01*
G36*
X22222500Y-72730000D02*
G01*
X22032499Y-72590000D01*
X22222500Y-72450000D01*
X22222500Y-72730000D01*
G37*
G04 #@! TO.C,C101*
X23290581Y-75410000D02*
X23009419Y-75410000D01*
X23290581Y-76430000D02*
X23009419Y-76430000D01*
G04 #@! TO.C,L101*
X24775000Y-12075000D02*
X24775000Y-9125000D01*
X28225000Y-12075000D02*
X28225000Y-9125000D01*
G04 #@! TO.C,U102*
X26672500Y-89904432D02*
X26672500Y-91040000D01*
X27542500Y-91040000D02*
X27672500Y-91040000D01*
X28542500Y-91040000D02*
X28542500Y-89620000D01*
X26667501Y-89610000D02*
X26477500Y-89750000D01*
X26477500Y-89470000D01*
X26667501Y-89610000D01*
G36*
X26667501Y-89610000D02*
G01*
X26477500Y-89750000D01*
X26477500Y-89470000D01*
X26667501Y-89610000D01*
G37*
G04 #@! TO.C,Q102*
X36190000Y-72400000D02*
X36190000Y-71000000D01*
X38510000Y-72410000D02*
X38510000Y-71000000D01*
X38790000Y-73020000D02*
X38460000Y-72780000D01*
X38790000Y-72540000D01*
X38790000Y-73020000D01*
G36*
X38790000Y-73020000D02*
G01*
X38460000Y-72780000D01*
X38790000Y-72540000D01*
X38790000Y-73020000D01*
G37*
G04 #@! TO.C,L101*
X38675000Y-42875000D02*
X38675000Y-39925000D01*
X42125000Y-42875000D02*
X42125000Y-39925000D01*
G04 #@! TO.C,R104*
X37920000Y-26453641D02*
X37920000Y-26146359D01*
X38680000Y-26453641D02*
X38680000Y-26146359D01*
G04 #@! TO.C,U103*
X11990001Y-13140000D02*
X11990001Y-14440000D01*
X14309999Y-13140000D02*
X14310000Y-14190000D01*
X14310000Y-14830000D02*
X14310000Y-14550000D01*
X14590000Y-14550000D01*
X14310000Y-14830000D01*
G36*
X14310000Y-14830000D02*
G01*
X14310000Y-14550000D01*
X14590000Y-14550000D01*
X14310000Y-14830000D01*
G37*
G04 #@! TO.C,Q102*
X37990000Y-89790000D02*
X37990000Y-91200000D01*
X40310000Y-89800000D02*
X40310000Y-91200000D01*
X38040000Y-89420000D02*
X37710000Y-89660000D01*
X37710000Y-89180000D01*
X38040000Y-89420000D01*
G36*
X38040000Y-89420000D02*
G01*
X37710000Y-89660000D01*
X37710000Y-89180000D01*
X38040000Y-89420000D01*
G37*
G04 #@! TO.C,U103*
X34390001Y-56660000D02*
X34390000Y-55610000D01*
X36709999Y-56660000D02*
X36709999Y-55360000D01*
X34390000Y-55250000D02*
X34110000Y-55250000D01*
X34390000Y-54970000D01*
X34390000Y-55250000D01*
G36*
X34390000Y-55250000D02*
G01*
X34110000Y-55250000D01*
X34390000Y-54970000D01*
X34390000Y-55250000D01*
G37*
X20490001Y-56660000D02*
X20490000Y-55610000D01*
X22809999Y-56660000D02*
X22809999Y-55360000D01*
X20490000Y-55250000D02*
X20210000Y-55250000D01*
X20490000Y-54970000D01*
X20490000Y-55250000D01*
G36*
X20490000Y-55250000D02*
G01*
X20210000Y-55250000D01*
X20490000Y-54970000D01*
X20490000Y-55250000D01*
G37*
G04 #@! TO.C,R102*
X21720000Y-43653641D02*
X21720000Y-43346359D01*
X22480000Y-43653641D02*
X22480000Y-43346359D01*
G04 #@! TO.C,U103*
X39790001Y-74740000D02*
X39790001Y-76040000D01*
X42109999Y-74740000D02*
X42110000Y-75790000D01*
X42110000Y-76430000D02*
X42110000Y-76150000D01*
X42390000Y-76150000D01*
X42110000Y-76430000D01*
G36*
X42110000Y-76430000D02*
G01*
X42110000Y-76150000D01*
X42390000Y-76150000D01*
X42110000Y-76430000D01*
G37*
G04 #@! TO.C,AE101*
X65440581Y-19640000D02*
X65159419Y-19640000D01*
X65440581Y-20660000D02*
X65159419Y-20660000D01*
G04 #@! TO.C,C101*
X51090581Y-75410000D02*
X50809419Y-75410000D01*
X51090581Y-76430000D02*
X50809419Y-76430000D01*
G04 #@! TO.C,R102*
X35620000Y-74453641D02*
X35620000Y-74146359D01*
X36380000Y-74453641D02*
X36380000Y-74146359D01*
X35620000Y-43653641D02*
X35620000Y-43346359D01*
X36380000Y-43653641D02*
X36380000Y-43346359D01*
G04 #@! TO.C,R106*
X22620000Y-43653641D02*
X22620000Y-43346359D01*
X23380000Y-43653641D02*
X23380000Y-43346359D01*
G04 #@! TO.C,AE101*
X65440581Y-91640000D02*
X65159419Y-91640000D01*
X65440581Y-92660000D02*
X65159419Y-92660000D01*
G04 #@! TO.C,R106*
X39220000Y-26146359D02*
X39220000Y-26453641D01*
X39980000Y-26146359D02*
X39980000Y-26453641D01*
G04 #@! TO.C,C101*
X39309419Y-85770000D02*
X39590581Y-85770000D01*
X39309419Y-86790000D02*
X39590581Y-86790000D01*
X53209419Y-85770000D02*
X53490581Y-85770000D01*
X53209419Y-86790000D02*
X53490581Y-86790000D01*
G04 #@! TO.C,R106*
X53120000Y-87746359D02*
X53120000Y-88053641D01*
X53880000Y-87746359D02*
X53880000Y-88053641D01*
G04 #@! TO.C,Q102*
X22290000Y-10800000D02*
X22290000Y-9400000D01*
X24610000Y-10810000D02*
X24610000Y-9400000D01*
X24890000Y-11420000D02*
X24560000Y-11180000D01*
X24890000Y-10940000D01*
X24890000Y-11420000D01*
G36*
X24890000Y-11420000D02*
G01*
X24560000Y-11180000D01*
X24890000Y-10940000D01*
X24890000Y-11420000D01*
G37*
G04 #@! TO.C,C104*
X9150000Y-87072164D02*
X9150000Y-87287836D01*
X9870000Y-87072164D02*
X9870000Y-87287836D01*
G04 #@! TO.C,C101*
X11509419Y-54970000D02*
X11790581Y-54970000D01*
X11509419Y-55990000D02*
X11790581Y-55990000D01*
G04 #@! TO.C,R102*
X40120000Y-87746359D02*
X40120000Y-88053641D01*
X40880000Y-87746359D02*
X40880000Y-88053641D01*
G04 #@! TO.C,Q102*
X51890000Y-28190000D02*
X51890000Y-29600000D01*
X54210000Y-28200000D02*
X54210000Y-29600000D01*
X51940000Y-27820000D02*
X51610000Y-28060000D01*
X51610000Y-27580000D01*
X51940000Y-27820000D01*
G36*
X51940000Y-27820000D02*
G01*
X51610000Y-28060000D01*
X51610000Y-27580000D01*
X51940000Y-27820000D01*
G37*
G04 #@! TO.C,C101*
X51090581Y-44610000D02*
X50809419Y-44610000D01*
X51090581Y-45630000D02*
X50809419Y-45630000D01*
G04 #@! TO.C,Q102*
X24090000Y-58990000D02*
X24090000Y-60400000D01*
X26410000Y-59000000D02*
X26410000Y-60400000D01*
X24140000Y-58620000D02*
X23810000Y-58860000D01*
X23810000Y-58380000D01*
X24140000Y-58620000D01*
G36*
X24140000Y-58620000D02*
G01*
X23810000Y-58860000D01*
X23810000Y-58380000D01*
X24140000Y-58620000D01*
G37*
G04 #@! TO.C,R106*
X8720000Y-12853641D02*
X8720000Y-12546359D01*
X9480000Y-12853641D02*
X9480000Y-12546359D01*
G04 #@! TO.C,U102*
X54472500Y-28304432D02*
X54472500Y-29440000D01*
X55342500Y-29440000D02*
X55472500Y-29440000D01*
X56342500Y-29440000D02*
X56342500Y-28020000D01*
X54467501Y-28010000D02*
X54277500Y-28150000D01*
X54277500Y-27870000D01*
X54467501Y-28010000D01*
G36*
X54467501Y-28010000D02*
G01*
X54277500Y-28150000D01*
X54277500Y-27870000D01*
X54467501Y-28010000D01*
G37*
G04 #@! TO.C,R102*
X26220000Y-87746359D02*
X26220000Y-88053641D01*
X26980000Y-87746359D02*
X26980000Y-88053641D01*
X26220000Y-56946359D02*
X26220000Y-57253641D01*
X26980000Y-56946359D02*
X26980000Y-57253641D01*
G04 #@! TO.C,U103*
X53690001Y-43940000D02*
X53690001Y-45240000D01*
X56009999Y-43940000D02*
X56010000Y-44990000D01*
X56010000Y-45630000D02*
X56010000Y-45350000D01*
X56290000Y-45350000D01*
X56010000Y-45630000D01*
G36*
X56010000Y-45630000D02*
G01*
X56010000Y-45350000D01*
X56290000Y-45350000D01*
X56010000Y-45630000D01*
G37*
X25890001Y-13140000D02*
X25890001Y-14440000D01*
X28209999Y-13140000D02*
X28210000Y-14190000D01*
X28210000Y-14830000D02*
X28210000Y-14550000D01*
X28490000Y-14550000D01*
X28210000Y-14830000D01*
G36*
X28210000Y-14830000D02*
G01*
X28210000Y-14550000D01*
X28490000Y-14550000D01*
X28210000Y-14830000D01*
G37*
G04 #@! TO.C,AE101*
X65440581Y-34040000D02*
X65159419Y-34040000D01*
X65440581Y-35060000D02*
X65159419Y-35060000D01*
G04 #@! TO.C,R104*
X10120000Y-57253641D02*
X10120000Y-56946359D01*
X10880000Y-57253641D02*
X10880000Y-56946359D01*
G04 #@! TO.C,R103*
X41177500Y-86787742D02*
X41177500Y-87262258D01*
X42222500Y-86787742D02*
X42222500Y-87262258D01*
G04 #@! TO.C,U102*
X12772500Y-59104432D02*
X12772500Y-60240000D01*
X13642500Y-60240000D02*
X13772500Y-60240000D01*
X14642500Y-60240000D02*
X14642500Y-58820000D01*
X12767501Y-58810000D02*
X12577500Y-58950000D01*
X12577500Y-58670000D01*
X12767501Y-58810000D01*
G36*
X12767501Y-58810000D02*
G01*
X12577500Y-58950000D01*
X12577500Y-58670000D01*
X12767501Y-58810000D01*
G37*
X34057500Y-71160000D02*
X34057500Y-72580000D01*
X35057500Y-71160000D02*
X34927500Y-71160000D01*
X35927500Y-72295568D02*
X35927500Y-71160000D01*
X36122500Y-72730000D02*
X35932499Y-72590000D01*
X36122500Y-72450000D01*
X36122500Y-72730000D01*
G36*
X36122500Y-72730000D02*
G01*
X35932499Y-72590000D01*
X36122500Y-72450000D01*
X36122500Y-72730000D01*
G37*
G04 #@! TD*
M02*
