G04 #@! TF.GenerationSoftware,KiCad,Pcbnew,9.0.6-9.0.6~ubuntu24.04.1*
G04 #@! TF.CreationDate,2026-01-11T21:02:37+01:00*
G04 #@! TF.ProjectId,panel,70616e65-6c2e-46b6-9963-61645f706362,rev?*
G04 #@! TF.SameCoordinates,Original*
G04 #@! TF.FileFunction,Paste,Bot*
G04 #@! TF.FilePolarity,Positive*
%FSLAX46Y46*%
G04 Gerber Fmt 4.6, Leading zero omitted, Abs format (unit mm)*
G04 Created by KiCad (PCBNEW 9.0.6-9.0.6~ubuntu24.04.1) date 2026-01-11 21:02:37*
%MOMM*%
%LPD*%
G01*
G04 APERTURE LIST*
G04 Aperture macros list*
%AMRoundRect*
0 Rectangle with rounded corners*
0 $1 Rounding radius*
0 $2 $3 $4 $5 $6 $7 $8 $9 X,Y pos of 4 corners*
0 Add a 4 corners polygon primitive as box body*
4,1,4,$2,$3,$4,$5,$6,$7,$8,$9,$2,$3,0*
0 Add four circle primitives for the rounded corners*
1,1,$1+$1,$2,$3*
1,1,$1+$1,$4,$5*
1,1,$1+$1,$6,$7*
1,1,$1+$1,$8,$9*
0 Add four rect primitives between the rounded corners*
20,1,$1+$1,$2,$3,$4,$5,0*
20,1,$1+$1,$4,$5,$6,$7,0*
20,1,$1+$1,$6,$7,$8,$9,0*
20,1,$1+$1,$8,$9,$2,$3,0*%
%AMFreePoly0*
4,1,11,0.760000,0.825000,0.380000,0.510000,0.380000,-0.510000,0.760000,-0.825000,0.760000,-1.525000,-0.125000,-1.525000,-0.380000,-1.270000,-0.380000,1.270000,-0.125000,1.525000,0.760000,1.525000,0.760000,0.825000,0.760000,0.825000,$1*%
G04 Aperture macros list end*
%ADD10RoundRect,0.090000X-0.210000X0.660000X-0.210000X-0.660000X0.210000X-0.660000X0.210000X0.660000X0*%
%ADD11FreePoly0,270.000000*%
%ADD12FreePoly0,90.000000*%
%ADD13RoundRect,0.100000X-0.100000X0.225000X-0.100000X-0.225000X0.100000X-0.225000X0.100000X0.225000X0*%
%ADD14RoundRect,0.050000X-0.100000X0.285000X-0.100000X-0.285000X0.100000X-0.285000X0.100000X0.285000X0*%
%ADD15RoundRect,0.135000X0.185000X-0.135000X0.185000X0.135000X-0.185000X0.135000X-0.185000X-0.135000X0*%
%ADD16RoundRect,0.090000X0.210000X-0.660000X0.210000X0.660000X-0.210000X0.660000X-0.210000X-0.660000X0*%
%ADD17RoundRect,0.200000X-0.275000X0.200000X-0.275000X-0.200000X0.275000X-0.200000X0.275000X0.200000X0*%
%ADD18RoundRect,0.087500X0.087500X-0.250000X0.087500X0.250000X-0.087500X0.250000X-0.087500X-0.250000X0*%
%ADD19RoundRect,0.087500X-0.087500X0.250000X-0.087500X-0.250000X0.087500X-0.250000X0.087500X0.250000X0*%
%ADD20RoundRect,0.135000X-0.185000X0.135000X-0.185000X-0.135000X0.185000X-0.135000X0.185000X0.135000X0*%
%ADD21RoundRect,0.225000X-0.225000X-0.250000X0.225000X-0.250000X0.225000X0.250000X-0.225000X0.250000X0*%
%ADD22RoundRect,0.100000X0.100000X-0.225000X0.100000X0.225000X-0.100000X0.225000X-0.100000X-0.225000X0*%
%ADD23RoundRect,0.200000X0.275000X-0.200000X0.275000X0.200000X-0.275000X0.200000X-0.275000X-0.200000X0*%
%ADD24RoundRect,0.140000X-0.170000X0.140000X-0.170000X-0.140000X0.170000X-0.140000X0.170000X0.140000X0*%
%ADD25RoundRect,0.140000X0.170000X-0.140000X0.170000X0.140000X-0.170000X0.140000X-0.170000X-0.140000X0*%
%ADD26RoundRect,0.050000X0.100000X-0.285000X0.100000X0.285000X-0.100000X0.285000X-0.100000X-0.285000X0*%
%ADD27RoundRect,0.225000X0.225000X0.250000X-0.225000X0.250000X-0.225000X-0.250000X0.225000X-0.250000X0*%
G04 APERTURE END LIST*
D10*
G04 #@! TO.C,H101*
X55450000Y-23000000D03*
X53850000Y-23000000D03*
G04 #@! TD*
D11*
G04 #@! TO.C,L101*
X36100000Y-88729999D03*
D12*
X36100000Y-91270001D03*
G04 #@! TD*
D13*
G04 #@! TO.C,Q102*
X38500000Y-89550000D03*
X39150000Y-89550001D03*
X39800000Y-89550000D03*
X39800000Y-91450000D03*
X39150000Y-91449999D03*
X38500000Y-91450000D03*
G04 #@! TD*
D14*
G04 #@! TO.C,U103*
X7000000Y-86070000D03*
X7500000Y-86070000D03*
X8000000Y-86070000D03*
X8500000Y-86070000D03*
X8500000Y-87550000D03*
X8000000Y-87550000D03*
X7500000Y-87550000D03*
X7000000Y-87550000D03*
G04 #@! TD*
D10*
G04 #@! TO.C,H102*
X39050000Y-23000000D03*
X37450000Y-23000000D03*
G04 #@! TD*
D13*
G04 #@! TO.C,Q102*
X10700000Y-89550000D03*
X11350000Y-89550001D03*
X12000000Y-89550000D03*
X12000000Y-91450000D03*
X11350000Y-91449999D03*
X10700000Y-91450000D03*
G04 #@! TD*
D15*
G04 #@! TO.C,R104*
X52200000Y-57609999D03*
X52200000Y-56590001D03*
G04 #@! TD*
D16*
G04 #@! TO.C,H102*
X23550000Y-77600000D03*
X25150000Y-77600000D03*
G04 #@! TD*
D17*
G04 #@! TO.C,R103*
X27800000Y-24600000D03*
X27800000Y-26250000D03*
G04 #@! TD*
D18*
G04 #@! TO.C,U102*
X7692500Y-10982500D03*
X7192500Y-10982501D03*
X6692500Y-10982500D03*
X6692500Y-9557500D03*
X7692500Y-9557500D03*
G04 #@! TD*
D10*
G04 #@! TO.C,H102*
X39050000Y-84600000D03*
X37450000Y-84600000D03*
G04 #@! TD*
D19*
G04 #@! TO.C,U102*
X41007500Y-28017500D03*
X41507500Y-28017499D03*
X42007500Y-28017500D03*
X42007500Y-29442500D03*
X41007500Y-29442500D03*
G04 #@! TD*
D10*
G04 #@! TO.C,H101*
X13750000Y-23000000D03*
X12150000Y-23000000D03*
G04 #@! TD*
D17*
G04 #@! TO.C,R103*
X13900000Y-55400000D03*
X13900000Y-57050000D03*
G04 #@! TD*
D20*
G04 #@! TO.C,R102*
X12700000Y-87390001D03*
X12700000Y-88409999D03*
G04 #@! TD*
G04 #@! TO.C,R104*
X10400000Y-42990001D03*
X10400000Y-44009999D03*
G04 #@! TD*
D15*
G04 #@! TO.C,R104*
X52200000Y-88409999D03*
X52200000Y-87390001D03*
G04 #@! TD*
D11*
G04 #@! TO.C,L101*
X8300000Y-57929999D03*
D12*
X8300000Y-60470001D03*
G04 #@! TD*
D21*
G04 #@! TO.C,C101*
X24775000Y-86280000D03*
X26325000Y-86280000D03*
G04 #@! TD*
D13*
G04 #@! TO.C,Q102*
X10700000Y-58750000D03*
X11350000Y-58750001D03*
X12000000Y-58750000D03*
X12000000Y-60650000D03*
X11350000Y-60649999D03*
X10700000Y-60650000D03*
G04 #@! TD*
D20*
G04 #@! TO.C,R104*
X38200000Y-12190001D03*
X38200000Y-13209999D03*
G04 #@! TD*
G04 #@! TO.C,R106*
X25700000Y-25790001D03*
X25700000Y-26809999D03*
G04 #@! TD*
D19*
G04 #@! TO.C,U102*
X13207500Y-58817500D03*
X13707500Y-58817499D03*
X14207500Y-58817500D03*
X14207500Y-60242500D03*
X13207500Y-60242500D03*
G04 #@! TD*
D20*
G04 #@! TO.C,R102*
X12700000Y-25790001D03*
X12700000Y-26809999D03*
G04 #@! TD*
D15*
G04 #@! TO.C,R104*
X24400000Y-88409999D03*
X24400000Y-87390001D03*
G04 #@! TD*
D19*
G04 #@! TO.C,U102*
X54907500Y-28017500D03*
X55407500Y-28017499D03*
X55907500Y-28017500D03*
X55907500Y-29442500D03*
X54907500Y-29442500D03*
G04 #@! TD*
D18*
G04 #@! TO.C,U102*
X35492500Y-10982500D03*
X34992500Y-10982501D03*
X34492500Y-10982500D03*
X34492500Y-9557500D03*
X35492500Y-9557500D03*
G04 #@! TD*
D22*
G04 #@! TO.C,Q102*
X38000000Y-72650000D03*
X37350000Y-72649999D03*
X36700000Y-72650000D03*
X36700000Y-70750000D03*
X37350000Y-70750001D03*
X38000000Y-70750000D03*
G04 #@! TD*
D16*
G04 #@! TO.C,H103*
X53850001Y-46800000D03*
X55450001Y-46800000D03*
G04 #@! TD*
D12*
G04 #@! TO.C,L101*
X26500000Y-11870001D03*
D11*
X26500000Y-9329999D03*
G04 #@! TD*
D19*
G04 #@! TO.C,U102*
X54907500Y-58817500D03*
X55407500Y-58817499D03*
X55907500Y-58817500D03*
X55907500Y-60242500D03*
X54907500Y-60242500D03*
G04 #@! TD*
D17*
G04 #@! TO.C,R103*
X55600000Y-55400000D03*
X55600000Y-57050000D03*
G04 #@! TD*
D15*
G04 #@! TO.C,R106*
X50800000Y-44009999D03*
X50800000Y-42990001D03*
G04 #@! TD*
D20*
G04 #@! TO.C,R104*
X10400000Y-12190001D03*
X10400000Y-13209999D03*
G04 #@! TD*
D16*
G04 #@! TO.C,H103*
X39950001Y-16000000D03*
X41550001Y-16000000D03*
G04 #@! TD*
D17*
G04 #@! TO.C,R103*
X13900000Y-86200000D03*
X13900000Y-87850000D03*
G04 #@! TD*
D19*
G04 #@! TO.C,U102*
X13207500Y-28017500D03*
X13707500Y-28017499D03*
X14207500Y-28017500D03*
X14207500Y-29442500D03*
X13207500Y-29442500D03*
G04 #@! TD*
D16*
G04 #@! TO.C,H101*
X7150000Y-16000000D03*
X8750000Y-16000000D03*
G04 #@! TD*
D10*
G04 #@! TO.C,H103*
X8749999Y-23000000D03*
X7149999Y-23000000D03*
G04 #@! TD*
G04 #@! TO.C,H103*
X50449999Y-53800000D03*
X48849999Y-53800000D03*
G04 #@! TD*
D18*
G04 #@! TO.C,U102*
X21592500Y-10982500D03*
X21092500Y-10982501D03*
X20592500Y-10982500D03*
X20592500Y-9557500D03*
X21592500Y-9557500D03*
G04 #@! TD*
D11*
G04 #@! TO.C,L101*
X50000000Y-57929999D03*
D12*
X50000000Y-60470001D03*
G04 #@! TD*
D23*
G04 #@! TO.C,R103*
X7000000Y-45200000D03*
X7000000Y-43550000D03*
G04 #@! TD*
D20*
G04 #@! TO.C,R102*
X40500000Y-25790001D03*
X40500000Y-26809999D03*
G04 #@! TD*
G04 #@! TO.C,R106*
X39600000Y-56590001D03*
X39600000Y-57609999D03*
G04 #@! TD*
D18*
G04 #@! TO.C,U102*
X7692500Y-41782500D03*
X7192500Y-41782501D03*
X6692500Y-41782500D03*
X6692500Y-40357500D03*
X7692500Y-40357500D03*
G04 #@! TD*
D15*
G04 #@! TO.C,R104*
X38300000Y-88409999D03*
X38300000Y-87390001D03*
G04 #@! TD*
D16*
G04 #@! TO.C,H101*
X34950000Y-77600000D03*
X36550000Y-77600000D03*
G04 #@! TD*
G04 #@! TO.C,H103*
X53850001Y-16000000D03*
X55450001Y-16000000D03*
G04 #@! TD*
D24*
G04 #@! TO.C,C104*
X37310000Y-25100000D03*
X37310000Y-26060000D03*
G04 #@! TD*
D10*
G04 #@! TO.C,H101*
X27650000Y-84600000D03*
X26050000Y-84600000D03*
G04 #@! TD*
D16*
G04 #@! TO.C,H102*
X51350000Y-16000000D03*
X52950000Y-16000000D03*
G04 #@! TD*
D20*
G04 #@! TO.C,R104*
X10400000Y-73790001D03*
X10400000Y-74809999D03*
G04 #@! TD*
D15*
G04 #@! TO.C,R102*
X36000000Y-44009999D03*
X36000000Y-42990001D03*
G04 #@! TD*
D24*
G04 #@! TO.C,C104*
X23410000Y-86700000D03*
X23410000Y-87660000D03*
G04 #@! TD*
D15*
G04 #@! TO.C,R106*
X9100000Y-13209999D03*
X9100000Y-12190001D03*
G04 #@! TD*
D21*
G04 #@! TO.C,C101*
X52575000Y-24680000D03*
X54125000Y-24680000D03*
G04 #@! TD*
D20*
G04 #@! TO.C,R104*
X24300000Y-42990001D03*
X24300000Y-44009999D03*
G04 #@! TD*
D19*
G04 #@! TO.C,U102*
X27107500Y-58817500D03*
X27607500Y-58817499D03*
X28107500Y-58817500D03*
X28107500Y-60242500D03*
X27107500Y-60242500D03*
G04 #@! TD*
D25*
G04 #@! TO.C,C104*
X11390000Y-13900000D03*
X11390000Y-12940000D03*
G04 #@! TD*
D18*
G04 #@! TO.C,U102*
X49392500Y-10982500D03*
X48892500Y-10982501D03*
X48392500Y-10982500D03*
X48392500Y-9557500D03*
X49392500Y-9557500D03*
G04 #@! TD*
D26*
G04 #@! TO.C,U103*
X27800000Y-76130000D03*
X27300000Y-76130000D03*
X26800000Y-76130000D03*
X26300000Y-76130000D03*
X26300000Y-74650000D03*
X26800000Y-74650000D03*
X27300000Y-74650000D03*
X27800000Y-74650000D03*
G04 #@! TD*
D25*
G04 #@! TO.C,C104*
X25290000Y-44700000D03*
X25290000Y-43740000D03*
G04 #@! TD*
D20*
G04 #@! TO.C,R106*
X53500000Y-87390001D03*
X53500000Y-88409999D03*
G04 #@! TD*
D10*
G04 #@! TO.C,H101*
X55450000Y-84600000D03*
X53850000Y-84600000D03*
G04 #@! TD*
D23*
G04 #@! TO.C,R103*
X20900000Y-76000000D03*
X20900000Y-74350000D03*
G04 #@! TD*
D10*
G04 #@! TO.C,H103*
X8749999Y-84600000D03*
X7149999Y-84600000D03*
G04 #@! TD*
D12*
G04 #@! TO.C,L101*
X40400000Y-42670001D03*
D11*
X40400000Y-40129999D03*
G04 #@! TD*
D15*
G04 #@! TO.C,R104*
X38300000Y-26809999D03*
X38300000Y-25790001D03*
G04 #@! TD*
D27*
G04 #@! TO.C,C101*
X10025000Y-75920000D03*
X8475000Y-75920000D03*
G04 #@! TD*
D20*
G04 #@! TO.C,R106*
X53500000Y-25790001D03*
X53500000Y-26809999D03*
G04 #@! TD*
D16*
G04 #@! TO.C,H101*
X21050000Y-77600000D03*
X22650000Y-77600000D03*
G04 #@! TD*
D25*
G04 #@! TO.C,C104*
X39190000Y-13900000D03*
X39190000Y-12940000D03*
G04 #@! TD*
D23*
G04 #@! TO.C,R103*
X20900000Y-14400000D03*
X20900000Y-12750000D03*
G04 #@! TD*
D15*
G04 #@! TO.C,R106*
X36900000Y-74809999D03*
X36900000Y-73790001D03*
G04 #@! TD*
D16*
G04 #@! TO.C,H103*
X39950001Y-46800000D03*
X41550001Y-46800000D03*
G04 #@! TD*
D27*
G04 #@! TO.C,C101*
X23925000Y-45120000D03*
X22375000Y-45120000D03*
G04 #@! TD*
D22*
G04 #@! TO.C,Q102*
X10200000Y-72650000D03*
X9550000Y-72649999D03*
X8900000Y-72650000D03*
X8900000Y-70750000D03*
X9550000Y-70750001D03*
X10200000Y-70750000D03*
G04 #@! TD*
D15*
G04 #@! TO.C,R106*
X9100000Y-74809999D03*
X9100000Y-73790001D03*
G04 #@! TD*
D26*
G04 #@! TO.C,U103*
X55600000Y-14530000D03*
X55100000Y-14530000D03*
X54600000Y-14530000D03*
X54100000Y-14530000D03*
X54100000Y-13050000D03*
X54600000Y-13050000D03*
X55100000Y-13050000D03*
X55600000Y-13050000D03*
G04 #@! TD*
D20*
G04 #@! TO.C,R104*
X24300000Y-73790001D03*
X24300000Y-74809999D03*
G04 #@! TD*
D15*
G04 #@! TO.C,R102*
X49900000Y-44009999D03*
X49900000Y-42990001D03*
G04 #@! TD*
D16*
G04 #@! TO.C,H103*
X39950001Y-77600000D03*
X41550001Y-77600000D03*
G04 #@! TD*
D14*
G04 #@! TO.C,U103*
X34800000Y-55270000D03*
X35300000Y-55270000D03*
X35800000Y-55270000D03*
X36300000Y-55270000D03*
X36300000Y-56750000D03*
X35800000Y-56750000D03*
X35300000Y-56750000D03*
X34800000Y-56750000D03*
G04 #@! TD*
D15*
G04 #@! TO.C,R106*
X23000000Y-44009999D03*
X23000000Y-42990001D03*
G04 #@! TD*
G04 #@! TO.C,R106*
X9100000Y-44009999D03*
X9100000Y-42990001D03*
G04 #@! TD*
D26*
G04 #@! TO.C,U103*
X41700000Y-14530000D03*
X41200000Y-14530000D03*
X40700000Y-14530000D03*
X40200000Y-14530000D03*
X40200000Y-13050000D03*
X40700000Y-13050000D03*
X41200000Y-13050000D03*
X41700000Y-13050000D03*
G04 #@! TD*
D10*
G04 #@! TO.C,H103*
X36549999Y-23000000D03*
X34949999Y-23000000D03*
G04 #@! TD*
G04 #@! TO.C,H102*
X25150000Y-23000000D03*
X23550000Y-23000000D03*
G04 #@! TD*
D21*
G04 #@! TO.C,C101*
X10875000Y-86280000D03*
X12425000Y-86280000D03*
G04 #@! TD*
D16*
G04 #@! TO.C,H103*
X12150001Y-16000000D03*
X13750001Y-16000000D03*
G04 #@! TD*
D15*
G04 #@! TO.C,R104*
X38300000Y-57609999D03*
X38300000Y-56590001D03*
G04 #@! TD*
D22*
G04 #@! TO.C,Q102*
X38000000Y-11050000D03*
X37350000Y-11049999D03*
X36700000Y-11050000D03*
X36700000Y-9150000D03*
X37350000Y-9150001D03*
X38000000Y-9150000D03*
G04 #@! TD*
D13*
G04 #@! TO.C,Q102*
X24600000Y-89550000D03*
X25250000Y-89550001D03*
X25900000Y-89550000D03*
X25900000Y-91450000D03*
X25250000Y-91449999D03*
X24600000Y-91450000D03*
G04 #@! TD*
D22*
G04 #@! TO.C,Q102*
X51900000Y-41850000D03*
X51250000Y-41849999D03*
X50600000Y-41850000D03*
X50600000Y-39950000D03*
X51250000Y-39950001D03*
X51900000Y-39950000D03*
G04 #@! TD*
D23*
G04 #@! TO.C,R103*
X34800000Y-45200000D03*
X34800000Y-43550000D03*
G04 #@! TD*
D20*
G04 #@! TO.C,R106*
X25700000Y-56590001D03*
X25700000Y-57609999D03*
G04 #@! TD*
D15*
G04 #@! TO.C,R106*
X23000000Y-13209999D03*
X23000000Y-12190001D03*
G04 #@! TD*
D11*
G04 #@! TO.C,L101*
X50000000Y-88729999D03*
D12*
X50000000Y-91270001D03*
G04 #@! TD*
D10*
G04 #@! TO.C,H101*
X41550000Y-53800000D03*
X39950000Y-53800000D03*
G04 #@! TD*
D13*
G04 #@! TO.C,Q102*
X52400000Y-27950000D03*
X53050000Y-27950001D03*
X53700000Y-27950000D03*
X53700000Y-29850000D03*
X53050000Y-29849999D03*
X52400000Y-29850000D03*
G04 #@! TD*
D22*
G04 #@! TO.C,Q102*
X10200000Y-41850000D03*
X9550000Y-41849999D03*
X8900000Y-41850000D03*
X8900000Y-39950000D03*
X9550000Y-39950001D03*
X10200000Y-39950000D03*
G04 #@! TD*
D15*
G04 #@! TO.C,R102*
X8200000Y-74809999D03*
X8200000Y-73790001D03*
G04 #@! TD*
D16*
G04 #@! TO.C,H102*
X23550000Y-16000000D03*
X25150000Y-16000000D03*
G04 #@! TD*
D12*
G04 #@! TO.C,L101*
X26500000Y-42670001D03*
D11*
X26500000Y-40129999D03*
G04 #@! TD*
D20*
G04 #@! TO.C,R102*
X12700000Y-56590001D03*
X12700000Y-57609999D03*
G04 #@! TD*
D25*
G04 #@! TO.C,C104*
X53090000Y-44700000D03*
X53090000Y-43740000D03*
G04 #@! TD*
D16*
G04 #@! TO.C,H102*
X51350000Y-77600000D03*
X52950000Y-77600000D03*
G04 #@! TD*
D10*
G04 #@! TO.C,H103*
X22649999Y-23000000D03*
X21049999Y-23000000D03*
G04 #@! TD*
D17*
G04 #@! TO.C,R103*
X13900000Y-24600000D03*
X13900000Y-26250000D03*
G04 #@! TD*
D24*
G04 #@! TO.C,C104*
X51210000Y-25100000D03*
X51210000Y-26060000D03*
G04 #@! TD*
D25*
G04 #@! TO.C,C104*
X25290000Y-75500000D03*
X25290000Y-74540000D03*
G04 #@! TD*
D26*
G04 #@! TO.C,U103*
X55600000Y-45330000D03*
X55100000Y-45330000D03*
X54600000Y-45330000D03*
X54100000Y-45330000D03*
X54100000Y-43850000D03*
X54600000Y-43850000D03*
X55100000Y-43850000D03*
X55600000Y-43850000D03*
G04 #@! TD*
D24*
G04 #@! TO.C,C104*
X23410000Y-55900000D03*
X23410000Y-56860000D03*
G04 #@! TD*
D20*
G04 #@! TO.C,R106*
X11800000Y-25790001D03*
X11800000Y-26809999D03*
G04 #@! TD*
D17*
G04 #@! TO.C,R103*
X55600000Y-24600000D03*
X55600000Y-26250000D03*
G04 #@! TD*
D16*
G04 #@! TO.C,H101*
X34950000Y-16000000D03*
X36550000Y-16000000D03*
G04 #@! TD*
D12*
G04 #@! TO.C,L101*
X12600000Y-11870001D03*
D11*
X12600000Y-9329999D03*
G04 #@! TD*
D22*
G04 #@! TO.C,Q102*
X24100000Y-41850000D03*
X23450000Y-41849999D03*
X22800000Y-41850000D03*
X22800000Y-39950000D03*
X23450000Y-39950001D03*
X24100000Y-39950000D03*
G04 #@! TD*
D18*
G04 #@! TO.C,U102*
X7692500Y-72582500D03*
X7192500Y-72582501D03*
X6692500Y-72582500D03*
X6692500Y-71157500D03*
X7692500Y-71157500D03*
G04 #@! TD*
D27*
G04 #@! TO.C,C101*
X51725000Y-45120000D03*
X50175000Y-45120000D03*
G04 #@! TD*
G04 #@! TO.C,C101*
X23925000Y-75920000D03*
X22375000Y-75920000D03*
G04 #@! TD*
D21*
G04 #@! TO.C,C101*
X10875000Y-55480000D03*
X12425000Y-55480000D03*
G04 #@! TD*
D10*
G04 #@! TO.C,H101*
X41550000Y-23000000D03*
X39950000Y-23000000D03*
G04 #@! TD*
D27*
G04 #@! TO.C,C101*
X37825000Y-14320000D03*
X36275000Y-14320000D03*
G04 #@! TD*
D14*
G04 #@! TO.C,U103*
X20900000Y-86070000D03*
X21400000Y-86070000D03*
X21900000Y-86070000D03*
X22400000Y-86070000D03*
X22400000Y-87550000D03*
X21900000Y-87550000D03*
X21400000Y-87550000D03*
X20900000Y-87550000D03*
G04 #@! TD*
D27*
G04 #@! TO.C,C101*
X10025000Y-45120000D03*
X8475000Y-45120000D03*
G04 #@! TD*
D10*
G04 #@! TO.C,H101*
X27650000Y-53800000D03*
X26050000Y-53800000D03*
G04 #@! TD*
D27*
G04 #@! TO.C,C101*
X23925000Y-14320000D03*
X22375000Y-14320000D03*
G04 #@! TD*
D21*
G04 #@! TO.C,C101*
X38675000Y-24680000D03*
X40225000Y-24680000D03*
G04 #@! TD*
D20*
G04 #@! TO.C,R102*
X40500000Y-87390001D03*
X40500000Y-88409999D03*
G04 #@! TD*
D10*
G04 #@! TO.C,H102*
X52950000Y-53800000D03*
X51350000Y-53800000D03*
G04 #@! TD*
G04 #@! TO.C,H103*
X36549999Y-84600000D03*
X34949999Y-84600000D03*
G04 #@! TD*
D25*
G04 #@! TO.C,C104*
X39190000Y-75500000D03*
X39190000Y-74540000D03*
G04 #@! TD*
D16*
G04 #@! TO.C,H103*
X26050001Y-77600000D03*
X27650001Y-77600000D03*
G04 #@! TD*
D10*
G04 #@! TO.C,H103*
X36549999Y-53800000D03*
X34949999Y-53800000D03*
G04 #@! TD*
D23*
G04 #@! TO.C,R103*
X20900000Y-45200000D03*
X20900000Y-43550000D03*
G04 #@! TD*
D24*
G04 #@! TO.C,C104*
X9510000Y-55900000D03*
X9510000Y-56860000D03*
G04 #@! TD*
D18*
G04 #@! TO.C,U102*
X21592500Y-41782500D03*
X21092500Y-41782501D03*
X20592500Y-41782500D03*
X20592500Y-40357500D03*
X21592500Y-40357500D03*
G04 #@! TD*
D23*
G04 #@! TO.C,R103*
X34800000Y-76000000D03*
X34800000Y-74350000D03*
G04 #@! TD*
D14*
G04 #@! TO.C,U103*
X48700000Y-55270000D03*
X49200000Y-55270000D03*
X49700000Y-55270000D03*
X50200000Y-55270000D03*
X50200000Y-56750000D03*
X49700000Y-56750000D03*
X49200000Y-56750000D03*
X48700000Y-56750000D03*
G04 #@! TD*
D10*
G04 #@! TO.C,H102*
X52950000Y-23000000D03*
X51350000Y-23000000D03*
G04 #@! TD*
D15*
G04 #@! TO.C,R104*
X10500000Y-26809999D03*
X10500000Y-25790001D03*
G04 #@! TD*
D10*
G04 #@! TO.C,H101*
X27650000Y-23000000D03*
X26050000Y-23000000D03*
G04 #@! TD*
D20*
G04 #@! TO.C,R104*
X38200000Y-42990001D03*
X38200000Y-44009999D03*
G04 #@! TD*
D24*
G04 #@! TO.C,C104*
X37310000Y-55900000D03*
X37310000Y-56860000D03*
G04 #@! TD*
D14*
G04 #@! TO.C,U103*
X48700000Y-24470000D03*
X49200000Y-24470000D03*
X49700000Y-24470000D03*
X50200000Y-24470000D03*
X50200000Y-25950000D03*
X49700000Y-25950000D03*
X49200000Y-25950000D03*
X48700000Y-25950000D03*
G04 #@! TD*
D25*
G04 #@! TO.C,C104*
X39190000Y-44700000D03*
X39190000Y-43740000D03*
G04 #@! TD*
D20*
G04 #@! TO.C,R102*
X54400000Y-25790001D03*
X54400000Y-26809999D03*
G04 #@! TD*
D27*
G04 #@! TO.C,C101*
X51725000Y-14320000D03*
X50175000Y-14320000D03*
G04 #@! TD*
D16*
G04 #@! TO.C,H102*
X9650000Y-16000000D03*
X11250000Y-16000000D03*
G04 #@! TD*
G04 #@! TO.C,H102*
X37450000Y-77600000D03*
X39050000Y-77600000D03*
G04 #@! TD*
D14*
G04 #@! TO.C,U103*
X48700000Y-86070000D03*
X49200000Y-86070000D03*
X49700000Y-86070000D03*
X50200000Y-86070000D03*
X50200000Y-87550000D03*
X49700000Y-87550000D03*
X49200000Y-87550000D03*
X48700000Y-87550000D03*
G04 #@! TD*
D10*
G04 #@! TO.C,H101*
X41550000Y-84600000D03*
X39950000Y-84600000D03*
G04 #@! TD*
D24*
G04 #@! TO.C,C104*
X51210000Y-55900000D03*
X51210000Y-56860000D03*
G04 #@! TD*
D16*
G04 #@! TO.C,H101*
X48850000Y-77600000D03*
X50450000Y-77600000D03*
G04 #@! TD*
D18*
G04 #@! TO.C,U102*
X35492500Y-41782500D03*
X34992500Y-41782501D03*
X34492500Y-41782500D03*
X34492500Y-40357500D03*
X35492500Y-40357500D03*
G04 #@! TD*
D16*
G04 #@! TO.C,H102*
X23550000Y-46800000D03*
X25150000Y-46800000D03*
G04 #@! TD*
G04 #@! TO.C,H101*
X34950000Y-46800000D03*
X36550000Y-46800000D03*
G04 #@! TD*
D13*
G04 #@! TO.C,Q102*
X52400000Y-89550000D03*
X53050000Y-89550001D03*
X53700000Y-89550000D03*
X53700000Y-91450000D03*
X53050000Y-91449999D03*
X52400000Y-91450000D03*
G04 #@! TD*
D18*
G04 #@! TO.C,U102*
X49392500Y-41782500D03*
X48892500Y-41782501D03*
X48392500Y-41782500D03*
X48392500Y-40357500D03*
X49392500Y-40357500D03*
G04 #@! TD*
D26*
G04 #@! TO.C,U103*
X41700000Y-76130000D03*
X41200000Y-76130000D03*
X40700000Y-76130000D03*
X40200000Y-76130000D03*
X40200000Y-74650000D03*
X40700000Y-74650000D03*
X41200000Y-74650000D03*
X41700000Y-74650000D03*
G04 #@! TD*
D20*
G04 #@! TO.C,R102*
X54400000Y-56590001D03*
X54400000Y-57609999D03*
G04 #@! TD*
D16*
G04 #@! TO.C,H102*
X51350000Y-46800000D03*
X52950000Y-46800000D03*
G04 #@! TD*
D12*
G04 #@! TO.C,L101*
X40400000Y-73470001D03*
D11*
X40400000Y-70929999D03*
G04 #@! TD*
G04 #@! TO.C,L101*
X36100000Y-57929999D03*
D12*
X36100000Y-60470001D03*
G04 #@! TD*
D11*
G04 #@! TO.C,L101*
X22200000Y-27129999D03*
D12*
X22200000Y-29670001D03*
G04 #@! TD*
D21*
G04 #@! TO.C,C101*
X10875000Y-24680000D03*
X12425000Y-24680000D03*
G04 #@! TD*
D15*
G04 #@! TO.C,R104*
X52200000Y-26809999D03*
X52200000Y-25790001D03*
G04 #@! TD*
D12*
G04 #@! TO.C,L101*
X26500000Y-73470001D03*
D11*
X26500000Y-70929999D03*
G04 #@! TD*
D25*
G04 #@! TO.C,C104*
X53090000Y-13900000D03*
X53090000Y-12940000D03*
G04 #@! TD*
D22*
G04 #@! TO.C,Q102*
X51900000Y-72650000D03*
X51250000Y-72649999D03*
X50600000Y-72650000D03*
X50600000Y-70750000D03*
X51250000Y-70750001D03*
X51900000Y-70750000D03*
G04 #@! TD*
D27*
G04 #@! TO.C,C101*
X51725000Y-75920000D03*
X50175000Y-75920000D03*
G04 #@! TD*
D15*
G04 #@! TO.C,R102*
X22100000Y-44009999D03*
X22100000Y-42990001D03*
G04 #@! TD*
D22*
G04 #@! TO.C,Q102*
X24100000Y-72650000D03*
X23450000Y-72649999D03*
X22800000Y-72650000D03*
X22800000Y-70750000D03*
X23450000Y-70750001D03*
X24100000Y-70750000D03*
G04 #@! TD*
D21*
G04 #@! TO.C,C101*
X52575000Y-55480000D03*
X54125000Y-55480000D03*
G04 #@! TD*
D16*
G04 #@! TO.C,H102*
X9650000Y-46800000D03*
X11250000Y-46800000D03*
G04 #@! TD*
D15*
G04 #@! TO.C,R102*
X22100000Y-74809999D03*
X22100000Y-73790001D03*
G04 #@! TD*
G04 #@! TO.C,R102*
X8200000Y-44009999D03*
X8200000Y-42990001D03*
G04 #@! TD*
D14*
G04 #@! TO.C,U103*
X7000000Y-55270000D03*
X7500000Y-55270000D03*
X8000000Y-55270000D03*
X8500000Y-55270000D03*
X8500000Y-56750000D03*
X8000000Y-56750000D03*
X7500000Y-56750000D03*
X7000000Y-56750000D03*
G04 #@! TD*
D24*
G04 #@! TO.C,C104*
X37310000Y-86700000D03*
X37310000Y-87660000D03*
G04 #@! TD*
D17*
G04 #@! TO.C,R103*
X27800000Y-86200000D03*
X27800000Y-87850000D03*
G04 #@! TD*
D19*
G04 #@! TO.C,U102*
X13207500Y-89617500D03*
X13707500Y-89617499D03*
X14207500Y-89617500D03*
X14207500Y-91042500D03*
X13207500Y-91042500D03*
G04 #@! TD*
D15*
G04 #@! TO.C,R104*
X24400000Y-57609999D03*
X24400000Y-56590001D03*
G04 #@! TD*
D14*
G04 #@! TO.C,U103*
X7000000Y-24470000D03*
X7500000Y-24470000D03*
X8000000Y-24470000D03*
X8500000Y-24470000D03*
X8500000Y-25950000D03*
X8000000Y-25950000D03*
X7500000Y-25950000D03*
X7000000Y-25950000D03*
G04 #@! TD*
D20*
G04 #@! TO.C,R104*
X38200000Y-73790001D03*
X38200000Y-74809999D03*
G04 #@! TD*
D24*
G04 #@! TO.C,C104*
X23410000Y-25100000D03*
X23410000Y-26060000D03*
G04 #@! TD*
D10*
G04 #@! TO.C,H102*
X11250000Y-23000000D03*
X9650000Y-23000000D03*
G04 #@! TD*
D18*
G04 #@! TO.C,U102*
X35492500Y-72582500D03*
X34992500Y-72582501D03*
X34492500Y-72582500D03*
X34492500Y-71157500D03*
X35492500Y-71157500D03*
G04 #@! TD*
D10*
G04 #@! TO.C,H103*
X50449999Y-23000000D03*
X48849999Y-23000000D03*
G04 #@! TD*
G04 #@! TO.C,H101*
X13750000Y-53800000D03*
X12150000Y-53800000D03*
G04 #@! TD*
D19*
G04 #@! TO.C,U102*
X27107500Y-89617500D03*
X27607500Y-89617499D03*
X28107500Y-89617500D03*
X28107500Y-91042500D03*
X27107500Y-91042500D03*
G04 #@! TD*
D22*
G04 #@! TO.C,Q102*
X24100000Y-11050000D03*
X23450000Y-11049999D03*
X22800000Y-11050000D03*
X22800000Y-9150000D03*
X23450000Y-9150001D03*
X24100000Y-9150000D03*
G04 #@! TD*
D21*
G04 #@! TO.C,C101*
X24775000Y-24680000D03*
X26325000Y-24680000D03*
G04 #@! TD*
D14*
G04 #@! TO.C,U103*
X20900000Y-55270000D03*
X21400000Y-55270000D03*
X21900000Y-55270000D03*
X22400000Y-55270000D03*
X22400000Y-56750000D03*
X21900000Y-56750000D03*
X21400000Y-56750000D03*
X20900000Y-56750000D03*
G04 #@! TD*
D13*
G04 #@! TO.C,Q102*
X38500000Y-27950000D03*
X39150000Y-27950001D03*
X39800000Y-27950000D03*
X39800000Y-29850000D03*
X39150000Y-29849999D03*
X38500000Y-29850000D03*
G04 #@! TD*
D25*
G04 #@! TO.C,C104*
X25290000Y-13900000D03*
X25290000Y-12940000D03*
G04 #@! TD*
D17*
G04 #@! TO.C,R103*
X41700000Y-86200000D03*
X41700000Y-87850000D03*
G04 #@! TD*
D13*
G04 #@! TO.C,Q102*
X38500000Y-58750000D03*
X39150000Y-58750001D03*
X39800000Y-58750000D03*
X39800000Y-60650000D03*
X39150000Y-60649999D03*
X38500000Y-60650000D03*
G04 #@! TD*
D19*
G04 #@! TO.C,U102*
X41007500Y-58817500D03*
X41507500Y-58817499D03*
X42007500Y-58817500D03*
X42007500Y-60242500D03*
X41007500Y-60242500D03*
G04 #@! TD*
D20*
G04 #@! TO.C,R104*
X52100000Y-42990001D03*
X52100000Y-44009999D03*
G04 #@! TD*
D10*
G04 #@! TO.C,H103*
X50449999Y-84600000D03*
X48849999Y-84600000D03*
G04 #@! TD*
D27*
G04 #@! TO.C,C101*
X37825000Y-45120000D03*
X36275000Y-45120000D03*
G04 #@! TD*
D26*
G04 #@! TO.C,U103*
X27800000Y-14530000D03*
X27300000Y-14530000D03*
X26800000Y-14530000D03*
X26300000Y-14530000D03*
X26300000Y-13050000D03*
X26800000Y-13050000D03*
X27300000Y-13050000D03*
X27800000Y-13050000D03*
G04 #@! TD*
D20*
G04 #@! TO.C,R104*
X52100000Y-73790001D03*
X52100000Y-74809999D03*
G04 #@! TD*
D26*
G04 #@! TO.C,U103*
X41700000Y-45330000D03*
X41200000Y-45330000D03*
X40700000Y-45330000D03*
X40200000Y-45330000D03*
X40200000Y-43850000D03*
X40700000Y-43850000D03*
X41200000Y-43850000D03*
X41700000Y-43850000D03*
G04 #@! TD*
D15*
G04 #@! TO.C,R106*
X36900000Y-13209999D03*
X36900000Y-12190001D03*
G04 #@! TD*
D12*
G04 #@! TO.C,L101*
X54300000Y-73470001D03*
D11*
X54300000Y-70929999D03*
G04 #@! TD*
D23*
G04 #@! TO.C,R103*
X48700000Y-14400000D03*
X48700000Y-12750000D03*
G04 #@! TD*
D20*
G04 #@! TO.C,R106*
X11800000Y-87390001D03*
X11800000Y-88409999D03*
G04 #@! TD*
D19*
G04 #@! TO.C,U102*
X54907500Y-89617500D03*
X55407500Y-89617499D03*
X55907500Y-89617500D03*
X55907500Y-91042500D03*
X54907500Y-91042500D03*
G04 #@! TD*
D20*
G04 #@! TO.C,R102*
X40500000Y-56590001D03*
X40500000Y-57609999D03*
G04 #@! TD*
D26*
G04 #@! TO.C,U103*
X13900000Y-76130000D03*
X13400000Y-76130000D03*
X12900000Y-76130000D03*
X12400000Y-76130000D03*
X12400000Y-74650000D03*
X12900000Y-74650000D03*
X13400000Y-74650000D03*
X13900000Y-74650000D03*
G04 #@! TD*
D15*
G04 #@! TO.C,R104*
X10500000Y-57609999D03*
X10500000Y-56590001D03*
G04 #@! TD*
G04 #@! TO.C,R102*
X22100000Y-13209999D03*
X22100000Y-12190001D03*
G04 #@! TD*
D14*
G04 #@! TO.C,U103*
X20900000Y-24470000D03*
X21400000Y-24470000D03*
X21900000Y-24470000D03*
X22400000Y-24470000D03*
X22400000Y-25950000D03*
X21900000Y-25950000D03*
X21400000Y-25950000D03*
X20900000Y-25950000D03*
G04 #@! TD*
D20*
G04 #@! TO.C,R102*
X26600000Y-87390001D03*
X26600000Y-88409999D03*
G04 #@! TD*
D19*
G04 #@! TO.C,U102*
X27107500Y-28017500D03*
X27607500Y-28017499D03*
X28107500Y-28017500D03*
X28107500Y-29442500D03*
X27107500Y-29442500D03*
G04 #@! TD*
D20*
G04 #@! TO.C,R102*
X26600000Y-25790001D03*
X26600000Y-26809999D03*
G04 #@! TD*
D15*
G04 #@! TO.C,R102*
X49900000Y-74809999D03*
X49900000Y-73790001D03*
G04 #@! TD*
D10*
G04 #@! TO.C,H102*
X39050000Y-53800000D03*
X37450000Y-53800000D03*
G04 #@! TD*
D15*
G04 #@! TO.C,R102*
X49900000Y-13209999D03*
X49900000Y-12190001D03*
G04 #@! TD*
D16*
G04 #@! TO.C,H101*
X48850000Y-16000000D03*
X50450000Y-16000000D03*
G04 #@! TD*
D13*
G04 #@! TO.C,Q102*
X52400000Y-58750000D03*
X53050000Y-58750001D03*
X53700000Y-58750000D03*
X53700000Y-60650000D03*
X53050000Y-60649999D03*
X52400000Y-60650000D03*
G04 #@! TD*
D25*
G04 #@! TO.C,C104*
X11390000Y-75500000D03*
X11390000Y-74540000D03*
G04 #@! TD*
D10*
G04 #@! TO.C,H102*
X11250000Y-53800000D03*
X9650000Y-53800000D03*
G04 #@! TD*
D22*
G04 #@! TO.C,Q102*
X38000000Y-41850000D03*
X37350000Y-41849999D03*
X36700000Y-41850000D03*
X36700000Y-39950000D03*
X37350000Y-39950001D03*
X38000000Y-39950000D03*
G04 #@! TD*
D13*
G04 #@! TO.C,Q102*
X24600000Y-27950000D03*
X25250000Y-27950001D03*
X25900000Y-27950000D03*
X25900000Y-29850000D03*
X25250000Y-29849999D03*
X24600000Y-29850000D03*
G04 #@! TD*
D20*
G04 #@! TO.C,R104*
X52100000Y-12190001D03*
X52100000Y-13209999D03*
G04 #@! TD*
D18*
G04 #@! TO.C,U102*
X21592500Y-72582500D03*
X21092500Y-72582501D03*
X20592500Y-72582500D03*
X20592500Y-71157500D03*
X21592500Y-71157500D03*
G04 #@! TD*
D15*
G04 #@! TO.C,R106*
X23000000Y-74809999D03*
X23000000Y-73790001D03*
G04 #@! TD*
D25*
G04 #@! TO.C,C104*
X11390000Y-44700000D03*
X11390000Y-43740000D03*
G04 #@! TD*
D10*
G04 #@! TO.C,H102*
X25150000Y-53800000D03*
X23550000Y-53800000D03*
G04 #@! TD*
D16*
G04 #@! TO.C,H102*
X37450000Y-16000000D03*
X39050000Y-16000000D03*
G04 #@! TD*
D11*
G04 #@! TO.C,L101*
X8300000Y-27129999D03*
D12*
X8300000Y-29670001D03*
G04 #@! TD*
D15*
G04 #@! TO.C,R106*
X50800000Y-13209999D03*
X50800000Y-12190001D03*
G04 #@! TD*
D16*
G04 #@! TO.C,H103*
X26050001Y-16000000D03*
X27650001Y-16000000D03*
G04 #@! TD*
G04 #@! TO.C,H101*
X21050000Y-46800000D03*
X22650000Y-46800000D03*
G04 #@! TD*
D23*
G04 #@! TO.C,R103*
X48700000Y-76000000D03*
X48700000Y-74350000D03*
G04 #@! TD*
D16*
G04 #@! TO.C,H103*
X53850001Y-77600000D03*
X55450001Y-77600000D03*
G04 #@! TD*
D26*
G04 #@! TO.C,U103*
X27800000Y-45330000D03*
X27300000Y-45330000D03*
X26800000Y-45330000D03*
X26300000Y-45330000D03*
X26300000Y-43850000D03*
X26800000Y-43850000D03*
X27300000Y-43850000D03*
X27800000Y-43850000D03*
G04 #@! TD*
D15*
G04 #@! TO.C,R102*
X8200000Y-13209999D03*
X8200000Y-12190001D03*
G04 #@! TD*
D10*
G04 #@! TO.C,H102*
X11250000Y-84600000D03*
X9650000Y-84600000D03*
G04 #@! TD*
G04 #@! TO.C,H103*
X22649999Y-53800000D03*
X21049999Y-53800000D03*
G04 #@! TD*
D13*
G04 #@! TO.C,Q102*
X10700000Y-27950000D03*
X11350000Y-27950001D03*
X12000000Y-27950000D03*
X12000000Y-29850000D03*
X11350000Y-29849999D03*
X10700000Y-29850000D03*
G04 #@! TD*
D16*
G04 #@! TO.C,H101*
X7150000Y-77600000D03*
X8750000Y-77600000D03*
G04 #@! TD*
D25*
G04 #@! TO.C,C104*
X53090000Y-75500000D03*
X53090000Y-74540000D03*
G04 #@! TD*
D11*
G04 #@! TO.C,L101*
X22200000Y-57929999D03*
D12*
X22200000Y-60470001D03*
G04 #@! TD*
D16*
G04 #@! TO.C,H102*
X9650000Y-77600000D03*
X11250000Y-77600000D03*
G04 #@! TD*
D19*
G04 #@! TO.C,U102*
X41007500Y-89617500D03*
X41507500Y-89617499D03*
X42007500Y-89617500D03*
X42007500Y-91042500D03*
X41007500Y-91042500D03*
G04 #@! TD*
D11*
G04 #@! TO.C,L101*
X8300000Y-88729999D03*
D12*
X8300000Y-91270001D03*
G04 #@! TD*
D23*
G04 #@! TO.C,R103*
X7000000Y-76000000D03*
X7000000Y-74350000D03*
G04 #@! TD*
D24*
G04 #@! TO.C,C104*
X51210000Y-86700000D03*
X51210000Y-87660000D03*
G04 #@! TD*
D10*
G04 #@! TO.C,H102*
X52950000Y-84600000D03*
X51350000Y-84600000D03*
G04 #@! TD*
D22*
G04 #@! TO.C,Q102*
X51900000Y-11050000D03*
X51250000Y-11049999D03*
X50600000Y-11050000D03*
X50600000Y-9150000D03*
X51250000Y-9150001D03*
X51900000Y-9150000D03*
G04 #@! TD*
D23*
G04 #@! TO.C,R103*
X48700000Y-45200000D03*
X48700000Y-43550000D03*
G04 #@! TD*
D16*
G04 #@! TO.C,H101*
X7150000Y-46800000D03*
X8750000Y-46800000D03*
G04 #@! TD*
D10*
G04 #@! TO.C,H101*
X13750000Y-84600000D03*
X12150000Y-84600000D03*
G04 #@! TD*
D16*
G04 #@! TO.C,H103*
X12150001Y-46800000D03*
X13750001Y-46800000D03*
G04 #@! TD*
D17*
G04 #@! TO.C,R103*
X55600000Y-86200000D03*
X55600000Y-87850000D03*
G04 #@! TD*
D15*
G04 #@! TO.C,R104*
X24400000Y-26809999D03*
X24400000Y-25790001D03*
G04 #@! TD*
D14*
G04 #@! TO.C,U103*
X34800000Y-24470000D03*
X35300000Y-24470000D03*
X35800000Y-24470000D03*
X36300000Y-24470000D03*
X36300000Y-25950000D03*
X35800000Y-25950000D03*
X35300000Y-25950000D03*
X34800000Y-25950000D03*
G04 #@! TD*
D12*
G04 #@! TO.C,L101*
X12600000Y-42670001D03*
D11*
X12600000Y-40129999D03*
G04 #@! TD*
D10*
G04 #@! TO.C,H102*
X25150000Y-84600000D03*
X23550000Y-84600000D03*
G04 #@! TD*
D26*
G04 #@! TO.C,U103*
X13900000Y-45330000D03*
X13400000Y-45330000D03*
X12900000Y-45330000D03*
X12400000Y-45330000D03*
X12400000Y-43850000D03*
X12900000Y-43850000D03*
X13400000Y-43850000D03*
X13900000Y-43850000D03*
G04 #@! TD*
D20*
G04 #@! TO.C,R104*
X24300000Y-12190001D03*
X24300000Y-13209999D03*
G04 #@! TD*
D12*
G04 #@! TO.C,L101*
X12600000Y-73470001D03*
D11*
X12600000Y-70929999D03*
G04 #@! TD*
D21*
G04 #@! TO.C,C101*
X52575000Y-86280000D03*
X54125000Y-86280000D03*
G04 #@! TD*
D24*
G04 #@! TO.C,C104*
X9510000Y-25100000D03*
X9510000Y-26060000D03*
G04 #@! TD*
D15*
G04 #@! TO.C,R106*
X50800000Y-74809999D03*
X50800000Y-73790001D03*
G04 #@! TD*
D10*
G04 #@! TO.C,H103*
X8749999Y-53800000D03*
X7149999Y-53800000D03*
G04 #@! TD*
D12*
G04 #@! TO.C,L101*
X54300000Y-11870001D03*
D11*
X54300000Y-9329999D03*
G04 #@! TD*
D20*
G04 #@! TO.C,R106*
X25700000Y-87390001D03*
X25700000Y-88409999D03*
G04 #@! TD*
D11*
G04 #@! TO.C,L101*
X22200000Y-88729999D03*
D12*
X22200000Y-91270001D03*
G04 #@! TD*
D26*
G04 #@! TO.C,U103*
X13900000Y-14530000D03*
X13400000Y-14530000D03*
X12900000Y-14530000D03*
X12400000Y-14530000D03*
X12400000Y-13050000D03*
X12900000Y-13050000D03*
X13400000Y-13050000D03*
X13900000Y-13050000D03*
G04 #@! TD*
D23*
G04 #@! TO.C,R103*
X34800000Y-14400000D03*
X34800000Y-12750000D03*
G04 #@! TD*
D20*
G04 #@! TO.C,R106*
X39600000Y-87390001D03*
X39600000Y-88409999D03*
G04 #@! TD*
G04 #@! TO.C,R106*
X11800000Y-56590001D03*
X11800000Y-57609999D03*
G04 #@! TD*
D12*
G04 #@! TO.C,L101*
X40400000Y-11870001D03*
D11*
X40400000Y-9329999D03*
G04 #@! TD*
D26*
G04 #@! TO.C,U103*
X55600000Y-76130000D03*
X55100000Y-76130000D03*
X54600000Y-76130000D03*
X54100000Y-76130000D03*
X54100000Y-74650000D03*
X54600000Y-74650000D03*
X55100000Y-74650000D03*
X55600000Y-74650000D03*
G04 #@! TD*
D20*
G04 #@! TO.C,R106*
X53500000Y-56590001D03*
X53500000Y-57609999D03*
G04 #@! TD*
D15*
G04 #@! TO.C,R102*
X36000000Y-13209999D03*
X36000000Y-12190001D03*
G04 #@! TD*
D18*
G04 #@! TO.C,U102*
X49392500Y-72582500D03*
X48892500Y-72582501D03*
X48392500Y-72582500D03*
X48392500Y-71157500D03*
X49392500Y-71157500D03*
G04 #@! TD*
D21*
G04 #@! TO.C,C101*
X24775000Y-55480000D03*
X26325000Y-55480000D03*
G04 #@! TD*
D16*
G04 #@! TO.C,H102*
X37450000Y-46800000D03*
X39050000Y-46800000D03*
G04 #@! TD*
G04 #@! TO.C,H101*
X48850000Y-46800000D03*
X50450000Y-46800000D03*
G04 #@! TD*
D20*
G04 #@! TO.C,R102*
X26600000Y-56590001D03*
X26600000Y-57609999D03*
G04 #@! TD*
G04 #@! TO.C,R102*
X54400000Y-87390001D03*
X54400000Y-88409999D03*
G04 #@! TD*
D15*
G04 #@! TO.C,R104*
X10500000Y-88409999D03*
X10500000Y-87390001D03*
G04 #@! TD*
D16*
G04 #@! TO.C,H103*
X12150001Y-77600000D03*
X13750001Y-77600000D03*
G04 #@! TD*
D11*
G04 #@! TO.C,L101*
X36100000Y-27129999D03*
D12*
X36100000Y-29670001D03*
G04 #@! TD*
D10*
G04 #@! TO.C,H103*
X22649999Y-84600000D03*
X21049999Y-84600000D03*
G04 #@! TD*
D17*
G04 #@! TO.C,R103*
X27800000Y-55400000D03*
X27800000Y-57050000D03*
G04 #@! TD*
D14*
G04 #@! TO.C,U103*
X34800000Y-86070000D03*
X35300000Y-86070000D03*
X35800000Y-86070000D03*
X36300000Y-86070000D03*
X36300000Y-87550000D03*
X35800000Y-87550000D03*
X35300000Y-87550000D03*
X34800000Y-87550000D03*
G04 #@! TD*
D20*
G04 #@! TO.C,R106*
X39600000Y-25790001D03*
X39600000Y-26809999D03*
G04 #@! TD*
D17*
G04 #@! TO.C,R103*
X41700000Y-24600000D03*
X41700000Y-26250000D03*
G04 #@! TD*
D13*
G04 #@! TO.C,Q102*
X24600000Y-58750000D03*
X25250000Y-58750001D03*
X25900000Y-58750000D03*
X25900000Y-60650000D03*
X25250000Y-60649999D03*
X24600000Y-60650000D03*
G04 #@! TD*
D12*
G04 #@! TO.C,L101*
X54300000Y-42670001D03*
D11*
X54300000Y-40129999D03*
G04 #@! TD*
D10*
G04 #@! TO.C,H101*
X55450000Y-53800000D03*
X53850000Y-53800000D03*
G04 #@! TD*
D21*
G04 #@! TO.C,C101*
X38675000Y-86280000D03*
X40225000Y-86280000D03*
G04 #@! TD*
D17*
G04 #@! TO.C,R103*
X41700000Y-55400000D03*
X41700000Y-57050000D03*
G04 #@! TD*
D16*
G04 #@! TO.C,H103*
X26050001Y-46800000D03*
X27650001Y-46800000D03*
G04 #@! TD*
D24*
G04 #@! TO.C,C104*
X9510000Y-86700000D03*
X9510000Y-87660000D03*
G04 #@! TD*
D15*
G04 #@! TO.C,R102*
X36000000Y-74809999D03*
X36000000Y-73790001D03*
G04 #@! TD*
D22*
G04 #@! TO.C,Q102*
X10200000Y-11050000D03*
X9550000Y-11049999D03*
X8900000Y-11050000D03*
X8900000Y-9150000D03*
X9550000Y-9150001D03*
X10200000Y-9150000D03*
G04 #@! TD*
D27*
G04 #@! TO.C,C101*
X10025000Y-14320000D03*
X8475000Y-14320000D03*
G04 #@! TD*
D21*
G04 #@! TO.C,C101*
X38675000Y-55480000D03*
X40225000Y-55480000D03*
G04 #@! TD*
D27*
G04 #@! TO.C,C101*
X37825000Y-75920000D03*
X36275000Y-75920000D03*
G04 #@! TD*
D23*
G04 #@! TO.C,R103*
X7000000Y-14400000D03*
X7000000Y-12750000D03*
G04 #@! TD*
D11*
G04 #@! TO.C,L101*
X50000000Y-27129999D03*
D12*
X50000000Y-29670001D03*
G04 #@! TD*
D16*
G04 #@! TO.C,H101*
X21050000Y-16000000D03*
X22650000Y-16000000D03*
G04 #@! TD*
D15*
G04 #@! TO.C,R106*
X36900000Y-44009999D03*
X36900000Y-42990001D03*
G04 #@! TD*
M02*
