G04 #@! TF.GenerationSoftware,KiCad,Pcbnew,9.0.6-9.0.6~ubuntu24.04.1*
G04 #@! TF.CreationDate,2026-01-17T19:17:03+01:00*
G04 #@! TF.ProjectId,panel,70616e65-6c2e-46b6-9963-61645f706362,rev?*
G04 #@! TF.SameCoordinates,Original*
G04 #@! TF.FileFunction,Paste,Top*
G04 #@! TF.FilePolarity,Positive*
%FSLAX46Y46*%
G04 Gerber Fmt 4.6, Leading zero omitted, Abs format (unit mm)*
G04 Created by KiCad (PCBNEW 9.0.6-9.0.6~ubuntu24.04.1) date 2026-01-17 19:17:03*
%MOMM*%
%LPD*%
G01*
G04 APERTURE LIST*
G04 Aperture macros list*
%AMRoundRect*
0 Rectangle with rounded corners*
0 $1 Rounding radius*
0 $2 $3 $4 $5 $6 $7 $8 $9 X,Y pos of 4 corners*
0 Add a 4 corners polygon primitive as box body*
4,1,4,$2,$3,$4,$5,$6,$7,$8,$9,$2,$3,0*
0 Add four circle primitives for the rounded corners*
1,1,$1+$1,$2,$3*
1,1,$1+$1,$4,$5*
1,1,$1+$1,$6,$7*
1,1,$1+$1,$8,$9*
0 Add four rect primitives between the rounded corners*
20,1,$1+$1,$2,$3,$4,$5,0*
20,1,$1+$1,$4,$5,$6,$7,0*
20,1,$1+$1,$6,$7,$8,$9,0*
20,1,$1+$1,$8,$9,$2,$3,0*%
G04 Aperture macros list end*
%ADD10RoundRect,0.135000X0.185000X-0.135000X0.185000X0.135000X-0.185000X0.135000X-0.185000X-0.135000X0*%
%ADD11RoundRect,0.140000X-0.170000X0.140000X-0.170000X-0.140000X0.170000X-0.140000X0.170000X0.140000X0*%
%ADD12RoundRect,0.140000X-0.140000X-0.170000X0.140000X-0.170000X0.140000X0.170000X-0.140000X0.170000X0*%
%ADD13RoundRect,0.140000X0.140000X0.170000X-0.140000X0.170000X-0.140000X-0.170000X0.140000X-0.170000X0*%
%ADD14RoundRect,0.135000X-0.185000X0.135000X-0.185000X-0.135000X0.185000X-0.135000X0.185000X0.135000X0*%
%ADD15RoundRect,0.225000X0.250000X-0.225000X0.250000X0.225000X-0.250000X0.225000X-0.250000X-0.225000X0*%
%ADD16RoundRect,0.225000X-0.250000X0.225000X-0.250000X-0.225000X0.250000X-0.225000X0.250000X0.225000X0*%
%ADD17RoundRect,0.150000X-0.200000X0.150000X-0.200000X-0.150000X0.200000X-0.150000X0.200000X0.150000X0*%
%ADD18RoundRect,0.150000X0.200000X-0.150000X0.200000X0.150000X-0.200000X0.150000X-0.200000X-0.150000X0*%
%ADD19RoundRect,0.140000X0.170000X-0.140000X0.170000X0.140000X-0.170000X0.140000X-0.170000X-0.140000X0*%
%ADD20RoundRect,0.135000X-0.135000X-0.185000X0.135000X-0.185000X0.135000X0.185000X-0.135000X0.185000X0*%
%ADD21RoundRect,0.135000X0.135000X0.185000X-0.135000X0.185000X-0.135000X-0.185000X0.135000X-0.185000X0*%
G04 APERTURE END LIST*
D10*
G04 #@! TO.C,R101*
X49000000Y-55409999D03*
X49000000Y-54390001D03*
G04 #@! TD*
D11*
G04 #@! TO.C,C105*
X41500000Y-12320000D03*
X41500000Y-13280000D03*
G04 #@! TD*
D12*
G04 #@! TO.C,C103*
X13320000Y-89500000D03*
X14280000Y-89500000D03*
G04 #@! TD*
D13*
G04 #@! TO.C,C103*
X49280000Y-41900000D03*
X48320000Y-41900000D03*
G04 #@! TD*
D14*
G04 #@! TO.C,R101*
X41400000Y-14390001D03*
X41400000Y-15409999D03*
G04 #@! TD*
D15*
G04 #@! TO.C,C102*
X35150000Y-90875000D03*
X35150000Y-89325000D03*
G04 #@! TD*
D10*
G04 #@! TO.C,R101*
X21200000Y-24609999D03*
X21200000Y-23590001D03*
G04 #@! TD*
D16*
G04 #@! TO.C,C102*
X55250000Y-9725000D03*
X55250000Y-11275000D03*
G04 #@! TD*
D12*
G04 #@! TO.C,C103*
X41120000Y-89500000D03*
X42080000Y-89500000D03*
G04 #@! TD*
D14*
G04 #@! TO.C,R101*
X27500000Y-45190001D03*
X27500000Y-46209999D03*
G04 #@! TD*
D17*
G04 #@! TO.C,D101*
X27700000Y-57600000D03*
X27700000Y-56200000D03*
G04 #@! TD*
D12*
G04 #@! TO.C,C103*
X41120000Y-58700000D03*
X42080000Y-58700000D03*
G04 #@! TD*
D15*
G04 #@! TO.C,C102*
X49050000Y-90875000D03*
X49050000Y-89325000D03*
G04 #@! TD*
D16*
G04 #@! TO.C,C102*
X41350000Y-71325000D03*
X41350000Y-72875000D03*
G04 #@! TD*
D11*
G04 #@! TO.C,C105*
X55400000Y-73920000D03*
X55400000Y-74880000D03*
G04 #@! TD*
D14*
G04 #@! TO.C,R101*
X27500000Y-14390001D03*
X27500000Y-15409999D03*
G04 #@! TD*
D18*
G04 #@! TO.C,D101*
X34900000Y-73800000D03*
X34900000Y-75200000D03*
G04 #@! TD*
D12*
G04 #@! TO.C,C103*
X13320000Y-58700000D03*
X14280000Y-58700000D03*
G04 #@! TD*
D19*
G04 #@! TO.C,C105*
X21100000Y-57480000D03*
X21100000Y-56520000D03*
G04 #@! TD*
D10*
G04 #@! TO.C,R101*
X35100000Y-24609999D03*
X35100000Y-23590001D03*
G04 #@! TD*
D12*
G04 #@! TO.C,C103*
X27220000Y-58700000D03*
X28180000Y-58700000D03*
G04 #@! TD*
D16*
G04 #@! TO.C,C102*
X41350000Y-40525000D03*
X41350000Y-42075000D03*
G04 #@! TD*
D12*
G04 #@! TO.C,C103*
X55020000Y-27900000D03*
X55980000Y-27900000D03*
G04 #@! TD*
D20*
G04 #@! TO.C,R105*
X27290001Y-29400000D03*
X28309999Y-29400000D03*
G04 #@! TD*
D13*
G04 #@! TO.C,C103*
X21480000Y-11100000D03*
X20520000Y-11100000D03*
G04 #@! TD*
D20*
G04 #@! TO.C,R105*
X27290001Y-91000000D03*
X28309999Y-91000000D03*
G04 #@! TD*
D14*
G04 #@! TO.C,R101*
X55300000Y-75990001D03*
X55300000Y-77009999D03*
G04 #@! TD*
G04 #@! TO.C,R101*
X41400000Y-45190001D03*
X41400000Y-46209999D03*
G04 #@! TD*
D20*
G04 #@! TO.C,R105*
X41190001Y-91000000D03*
X42209999Y-91000000D03*
G04 #@! TD*
D15*
G04 #@! TO.C,C102*
X7350000Y-29275000D03*
X7350000Y-27725000D03*
G04 #@! TD*
D21*
G04 #@! TO.C,R105*
X49209999Y-40400000D03*
X48190001Y-40400000D03*
G04 #@! TD*
D10*
G04 #@! TO.C,R101*
X21200000Y-55409999D03*
X21200000Y-54390001D03*
G04 #@! TD*
D14*
G04 #@! TO.C,R101*
X55300000Y-14390001D03*
X55300000Y-15409999D03*
G04 #@! TD*
D20*
G04 #@! TO.C,R105*
X55090001Y-29400000D03*
X56109999Y-29400000D03*
G04 #@! TD*
D19*
G04 #@! TO.C,C105*
X35000000Y-88280000D03*
X35000000Y-87320000D03*
G04 #@! TD*
D13*
G04 #@! TO.C,C103*
X21480000Y-72700000D03*
X20520000Y-72700000D03*
G04 #@! TD*
D20*
G04 #@! TO.C,R105*
X55090001Y-91000000D03*
X56109999Y-91000000D03*
G04 #@! TD*
D15*
G04 #@! TO.C,C102*
X35150000Y-29275000D03*
X35150000Y-27725000D03*
G04 #@! TD*
D17*
G04 #@! TO.C,D101*
X55500000Y-26800000D03*
X55500000Y-25400000D03*
G04 #@! TD*
D13*
G04 #@! TO.C,C103*
X7580000Y-41900000D03*
X6620000Y-41900000D03*
G04 #@! TD*
D11*
G04 #@! TO.C,C105*
X27600000Y-43120000D03*
X27600000Y-44080000D03*
G04 #@! TD*
D14*
G04 #@! TO.C,R101*
X13600000Y-45190001D03*
X13600000Y-46209999D03*
G04 #@! TD*
D19*
G04 #@! TO.C,C105*
X7200000Y-88280000D03*
X7200000Y-87320000D03*
G04 #@! TD*
D10*
G04 #@! TO.C,R101*
X7300000Y-86209999D03*
X7300000Y-85190001D03*
G04 #@! TD*
D20*
G04 #@! TO.C,R105*
X41190001Y-60200000D03*
X42209999Y-60200000D03*
G04 #@! TD*
D10*
G04 #@! TO.C,R101*
X21200000Y-86209999D03*
X21200000Y-85190001D03*
G04 #@! TD*
D11*
G04 #@! TO.C,C105*
X55400000Y-12320000D03*
X55400000Y-13280000D03*
G04 #@! TD*
G04 #@! TO.C,C105*
X27600000Y-12320000D03*
X27600000Y-13280000D03*
G04 #@! TD*
D12*
G04 #@! TO.C,C103*
X55020000Y-89500000D03*
X55980000Y-89500000D03*
G04 #@! TD*
D10*
G04 #@! TO.C,R101*
X35100000Y-86209999D03*
X35100000Y-85190001D03*
G04 #@! TD*
D21*
G04 #@! TO.C,R105*
X7509999Y-40400000D03*
X6490001Y-40400000D03*
G04 #@! TD*
D19*
G04 #@! TO.C,C105*
X21100000Y-26680000D03*
X21100000Y-25720000D03*
G04 #@! TD*
D16*
G04 #@! TO.C,C102*
X55250000Y-40525000D03*
X55250000Y-42075000D03*
G04 #@! TD*
D21*
G04 #@! TO.C,R105*
X7509999Y-71200000D03*
X6490001Y-71200000D03*
G04 #@! TD*
D13*
G04 #@! TO.C,C103*
X49280000Y-72700000D03*
X48320000Y-72700000D03*
G04 #@! TD*
D17*
G04 #@! TO.C,D101*
X27700000Y-88400000D03*
X27700000Y-87000000D03*
G04 #@! TD*
D11*
G04 #@! TO.C,C105*
X41500000Y-43120000D03*
X41500000Y-44080000D03*
G04 #@! TD*
D15*
G04 #@! TO.C,C102*
X21250000Y-60075000D03*
X21250000Y-58525000D03*
G04 #@! TD*
G04 #@! TO.C,C102*
X21250000Y-29275000D03*
X21250000Y-27725000D03*
G04 #@! TD*
D17*
G04 #@! TO.C,D101*
X13800000Y-57600000D03*
X13800000Y-56200000D03*
G04 #@! TD*
D18*
G04 #@! TO.C,D101*
X21000000Y-12200000D03*
X21000000Y-13600000D03*
G04 #@! TD*
D17*
G04 #@! TO.C,D101*
X55500000Y-88400000D03*
X55500000Y-87000000D03*
G04 #@! TD*
D14*
G04 #@! TO.C,R101*
X55300000Y-45190001D03*
X55300000Y-46209999D03*
G04 #@! TD*
D20*
G04 #@! TO.C,R105*
X13390001Y-60200000D03*
X14409999Y-60200000D03*
G04 #@! TD*
D14*
G04 #@! TO.C,R101*
X13600000Y-14390001D03*
X13600000Y-15409999D03*
G04 #@! TD*
D17*
G04 #@! TO.C,D101*
X41600000Y-88400000D03*
X41600000Y-87000000D03*
G04 #@! TD*
D16*
G04 #@! TO.C,C102*
X41350000Y-9725000D03*
X41350000Y-11275000D03*
G04 #@! TD*
D15*
G04 #@! TO.C,C102*
X7350000Y-90875000D03*
X7350000Y-89325000D03*
G04 #@! TD*
D12*
G04 #@! TO.C,C103*
X41120000Y-27900000D03*
X42080000Y-27900000D03*
G04 #@! TD*
D21*
G04 #@! TO.C,R105*
X35309999Y-40400000D03*
X34290001Y-40400000D03*
G04 #@! TD*
D18*
G04 #@! TO.C,D101*
X48800000Y-12200000D03*
X48800000Y-13600000D03*
G04 #@! TD*
D13*
G04 #@! TO.C,C103*
X7580000Y-11100000D03*
X6620000Y-11100000D03*
G04 #@! TD*
D21*
G04 #@! TO.C,R105*
X7509999Y-9600000D03*
X6490001Y-9600000D03*
G04 #@! TD*
D20*
G04 #@! TO.C,R105*
X27290001Y-60200000D03*
X28309999Y-60200000D03*
G04 #@! TD*
D11*
G04 #@! TO.C,C105*
X13700000Y-12320000D03*
X13700000Y-13280000D03*
G04 #@! TD*
D21*
G04 #@! TO.C,R105*
X35309999Y-9600000D03*
X34290001Y-9600000D03*
G04 #@! TD*
D11*
G04 #@! TO.C,C105*
X13700000Y-43120000D03*
X13700000Y-44080000D03*
G04 #@! TD*
D17*
G04 #@! TO.C,D101*
X55500000Y-57600000D03*
X55500000Y-56200000D03*
G04 #@! TD*
D15*
G04 #@! TO.C,C102*
X21250000Y-90875000D03*
X21250000Y-89325000D03*
G04 #@! TD*
G04 #@! TO.C,C102*
X49050000Y-29275000D03*
X49050000Y-27725000D03*
G04 #@! TD*
D10*
G04 #@! TO.C,R101*
X35100000Y-55409999D03*
X35100000Y-54390001D03*
G04 #@! TD*
D13*
G04 #@! TO.C,C103*
X35380000Y-72700000D03*
X34420000Y-72700000D03*
G04 #@! TD*
D14*
G04 #@! TO.C,R101*
X27500000Y-75990001D03*
X27500000Y-77009999D03*
G04 #@! TD*
D13*
G04 #@! TO.C,C103*
X21480000Y-41900000D03*
X20520000Y-41900000D03*
G04 #@! TD*
G04 #@! TO.C,C103*
X35380000Y-41900000D03*
X34420000Y-41900000D03*
G04 #@! TD*
D19*
G04 #@! TO.C,C105*
X48900000Y-26680000D03*
X48900000Y-25720000D03*
G04 #@! TD*
D18*
G04 #@! TO.C,D101*
X7100000Y-12200000D03*
X7100000Y-13600000D03*
G04 #@! TD*
D12*
G04 #@! TO.C,C103*
X27220000Y-89500000D03*
X28180000Y-89500000D03*
G04 #@! TD*
D14*
G04 #@! TO.C,R101*
X41400000Y-75990001D03*
X41400000Y-77009999D03*
G04 #@! TD*
D21*
G04 #@! TO.C,R105*
X35309999Y-71200000D03*
X34290001Y-71200000D03*
G04 #@! TD*
D11*
G04 #@! TO.C,C105*
X13700000Y-73920000D03*
X13700000Y-74880000D03*
G04 #@! TD*
D14*
G04 #@! TO.C,R101*
X13600000Y-75990001D03*
X13600000Y-77009999D03*
G04 #@! TD*
D10*
G04 #@! TO.C,R101*
X49000000Y-24609999D03*
X49000000Y-23590001D03*
G04 #@! TD*
D19*
G04 #@! TO.C,C105*
X48900000Y-88280000D03*
X48900000Y-87320000D03*
G04 #@! TD*
D12*
G04 #@! TO.C,C103*
X27220000Y-27900000D03*
X28180000Y-27900000D03*
G04 #@! TD*
D17*
G04 #@! TO.C,D101*
X13800000Y-88400000D03*
X13800000Y-87000000D03*
G04 #@! TD*
D15*
G04 #@! TO.C,C102*
X7350000Y-60075000D03*
X7350000Y-58525000D03*
G04 #@! TD*
D19*
G04 #@! TO.C,C105*
X7200000Y-26680000D03*
X7200000Y-25720000D03*
G04 #@! TD*
D16*
G04 #@! TO.C,C102*
X13550000Y-40525000D03*
X13550000Y-42075000D03*
G04 #@! TD*
D15*
G04 #@! TO.C,C102*
X35150000Y-60075000D03*
X35150000Y-58525000D03*
G04 #@! TD*
D20*
G04 #@! TO.C,R105*
X41190001Y-29400000D03*
X42209999Y-29400000D03*
G04 #@! TD*
D17*
G04 #@! TO.C,D101*
X41600000Y-57600000D03*
X41600000Y-56200000D03*
G04 #@! TD*
D16*
G04 #@! TO.C,C102*
X27450000Y-40525000D03*
X27450000Y-42075000D03*
G04 #@! TD*
D10*
G04 #@! TO.C,R101*
X49000000Y-86209999D03*
X49000000Y-85190001D03*
G04 #@! TD*
D20*
G04 #@! TO.C,R105*
X13390001Y-29400000D03*
X14409999Y-29400000D03*
G04 #@! TD*
D10*
G04 #@! TO.C,R101*
X7300000Y-55409999D03*
X7300000Y-54390001D03*
G04 #@! TD*
D13*
G04 #@! TO.C,C103*
X49280000Y-11100000D03*
X48320000Y-11100000D03*
G04 #@! TD*
G04 #@! TO.C,C103*
X7580000Y-72700000D03*
X6620000Y-72700000D03*
G04 #@! TD*
D18*
G04 #@! TO.C,D101*
X48800000Y-43000000D03*
X48800000Y-44400000D03*
G04 #@! TD*
D19*
G04 #@! TO.C,C105*
X7200000Y-57480000D03*
X7200000Y-56520000D03*
G04 #@! TD*
D13*
G04 #@! TO.C,C103*
X35380000Y-11100000D03*
X34420000Y-11100000D03*
G04 #@! TD*
D18*
G04 #@! TO.C,D101*
X7100000Y-43000000D03*
X7100000Y-44400000D03*
G04 #@! TD*
G04 #@! TO.C,D101*
X34900000Y-12200000D03*
X34900000Y-13600000D03*
G04 #@! TD*
D16*
G04 #@! TO.C,C102*
X13550000Y-71325000D03*
X13550000Y-72875000D03*
G04 #@! TD*
D21*
G04 #@! TO.C,R105*
X21409999Y-9600000D03*
X20390001Y-9600000D03*
G04 #@! TD*
G04 #@! TO.C,R105*
X49209999Y-9600000D03*
X48190001Y-9600000D03*
G04 #@! TD*
D16*
G04 #@! TO.C,C102*
X13550000Y-9725000D03*
X13550000Y-11275000D03*
G04 #@! TD*
D11*
G04 #@! TO.C,C105*
X55400000Y-43120000D03*
X55400000Y-44080000D03*
G04 #@! TD*
D16*
G04 #@! TO.C,C102*
X27450000Y-71325000D03*
X27450000Y-72875000D03*
G04 #@! TD*
D10*
G04 #@! TO.C,R101*
X7300000Y-24609999D03*
X7300000Y-23590001D03*
G04 #@! TD*
D21*
G04 #@! TO.C,R105*
X21409999Y-40400000D03*
X20390001Y-40400000D03*
G04 #@! TD*
D18*
G04 #@! TO.C,D101*
X21000000Y-73800000D03*
X21000000Y-75200000D03*
G04 #@! TD*
D16*
G04 #@! TO.C,C102*
X55250000Y-71325000D03*
X55250000Y-72875000D03*
G04 #@! TD*
D21*
G04 #@! TO.C,R105*
X49209999Y-71200000D03*
X48190001Y-71200000D03*
G04 #@! TD*
D20*
G04 #@! TO.C,R105*
X55090001Y-60200000D03*
X56109999Y-60200000D03*
G04 #@! TD*
D17*
G04 #@! TO.C,D101*
X41600000Y-26800000D03*
X41600000Y-25400000D03*
G04 #@! TD*
D19*
G04 #@! TO.C,C105*
X35000000Y-26680000D03*
X35000000Y-25720000D03*
G04 #@! TD*
D18*
G04 #@! TO.C,D101*
X7100000Y-73800000D03*
X7100000Y-75200000D03*
G04 #@! TD*
D11*
G04 #@! TO.C,C105*
X27600000Y-73920000D03*
X27600000Y-74880000D03*
G04 #@! TD*
D15*
G04 #@! TO.C,C102*
X49050000Y-60075000D03*
X49050000Y-58525000D03*
G04 #@! TD*
D12*
G04 #@! TO.C,C103*
X55020000Y-58700000D03*
X55980000Y-58700000D03*
G04 #@! TD*
D20*
G04 #@! TO.C,R105*
X13390001Y-91000000D03*
X14409999Y-91000000D03*
G04 #@! TD*
D19*
G04 #@! TO.C,C105*
X21100000Y-88280000D03*
X21100000Y-87320000D03*
G04 #@! TD*
D17*
G04 #@! TO.C,D101*
X13800000Y-26800000D03*
X13800000Y-25400000D03*
G04 #@! TD*
D19*
G04 #@! TO.C,C105*
X48900000Y-57480000D03*
X48900000Y-56520000D03*
G04 #@! TD*
D11*
G04 #@! TO.C,C105*
X41500000Y-73920000D03*
X41500000Y-74880000D03*
G04 #@! TD*
D18*
G04 #@! TO.C,D101*
X21000000Y-43000000D03*
X21000000Y-44400000D03*
G04 #@! TD*
D12*
G04 #@! TO.C,C103*
X13320000Y-27900000D03*
X14280000Y-27900000D03*
G04 #@! TD*
D19*
G04 #@! TO.C,C105*
X35000000Y-57480000D03*
X35000000Y-56520000D03*
G04 #@! TD*
D18*
G04 #@! TO.C,D101*
X34900000Y-43000000D03*
X34900000Y-44400000D03*
G04 #@! TD*
D21*
G04 #@! TO.C,R105*
X21409999Y-71200000D03*
X20390001Y-71200000D03*
G04 #@! TD*
D18*
G04 #@! TO.C,D101*
X48800000Y-73800000D03*
X48800000Y-75200000D03*
G04 #@! TD*
D17*
G04 #@! TO.C,D101*
X27700000Y-26800000D03*
X27700000Y-25400000D03*
G04 #@! TD*
D16*
G04 #@! TO.C,C102*
X27450000Y-9725000D03*
X27450000Y-11275000D03*
G04 #@! TD*
M02*
